<svg width="48" height="49" viewBox="0 0 48 49" fill="none" xmlns="http://www.w3.org/2000/svg">
<path d="M32 10.5V8.5C32 7.43913 31.5786 6.42172 30.8284 5.67157C30.0783 4.92143 29.0609 4.5 28 4.5H20C18.9391 4.5 17.9217 4.92143 17.1716 5.67157C16.4214 6.42172 16 7.43913 16 8.5V10.5C13.8783 10.5 11.8434 11.3429 10.3431 12.8431C8.84285 14.3434 8 16.3783 8 18.5V40.5C8 41.5609 8.42143 42.5783 9.17157 43.3284C9.92172 44.0786 10.9391 44.5 12 44.5H36C37.0609 44.5 38.0783 44.0786 38.8284 43.3284C39.5786 42.5783 40 41.5609 40 40.5V18.5C40 16.3783 39.1571 14.3434 37.6569 12.8431C36.1566 11.3429 34.1217 10.5 32 10.5ZM20 8.5H28V10.5H20V8.5ZM24 18.5L28 22.5L24 26.5L20 22.5L24 18.5ZM36 32.5H18V36.5H16V32.5H12V30.5H36V32.5Z" fill="white"/>
</svg>
