<svg width="100" height="100" viewBox="0 0 100 100" fill="none" xmlns="http://www.w3.org/2000/svg">
<g clip-path="url(#clip0)">
<path d="M23.4265 32.839H4.12148C3.28262 32.839 2.60254 32.1589 2.60254 31.3201V27.0586C2.60254 20.8886 7.60429 15.8869 13.7742 15.8869C19.9441 15.8869 24.9459 20.8886 24.9459 27.0586V31.3201C24.9455 32.1591 24.2656 32.839 23.4265 32.839Z" fill="#F6F6F6"/>
<path d="M34.7574 70.6651C32.5932 69.2362 31.2029 67.5983 30.6248 65.7966C26.9822 64.2499 24.6309 60.6304 24.6309 56.5628C24.6309 51.0579 28.9689 46.5792 34.3015 46.5792H46.6093C51.9418 46.5792 56.28 51.0579 56.28 56.5628C56.28 62.0677 51.9419 66.5462 46.6093 66.5462H37.0652C36.9832 67.37 37.0164 68.2276 37.1638 69.0968L37.6062 71.7057C37.6672 72.0651 37.2701 72.3239 36.966 72.1231L34.7574 70.6651Z" fill="#E30613"/>
<path d="M56.2796 56.563C56.2796 51.0581 51.9416 46.5794 46.609 46.5794H34.3012C32.9131 46.5794 31.5937 46.8853 30.3994 47.4314C30.9133 55.6962 37.934 62.152 46.3019 62.152H54.6181C55.6666 60.5561 56.2796 58.6319 56.2796 56.563Z" fill="#E30613"/>
<path d="M60.1318 63.5517C60.4398 62.2257 60.5296 60.9241 60.3996 59.6819H48.4502C41.7304 59.6819 36.1228 54.3458 36.0205 47.6267C35.9162 40.788 41.449 35.1913 48.2642 35.1913H63.7111C70.445 35.1913 76.048 40.556 76.1269 47.2896C76.1862 52.3431 73.1911 56.8544 68.5261 58.7677C67.5218 61.8087 64.665 63.9767 62.4396 65.2618L60.147 66.5856C59.8314 66.7681 59.4503 66.4856 59.5328 66.1306L60.1318 63.5517Z" fill="#E30613"/>
<path d="M46.0293 50.953C45.925 44.1142 51.4578 38.5177 58.273 38.5177H72.2009C69.9689 36.4533 66.974 35.1913 63.7111 35.1913H48.2642C41.449 35.1913 35.9162 40.788 36.0205 47.6267C36.123 54.3456 41.7304 59.6819 48.4502 59.6819H49.9599C47.5931 57.4956 46.0822 54.4083 46.0293 50.953Z" fill="#E30613"/>
<path d="M95.7864 32.839H76.4813C75.6425 32.839 74.9624 32.1589 74.9624 31.3201V27.0586C74.9624 20.8886 79.9642 15.8869 86.1341 15.8869C92.304 15.8869 97.3057 20.8886 97.3057 27.0586V31.3201C97.3053 32.1591 96.6253 32.839 95.7864 32.839Z" fill="#F6F6F6"/>
<path d="M23.4265 92.5125H4.12148C3.28262 92.5125 2.60254 91.8324 2.60254 90.9933V86.7318C2.60254 80.5619 7.60429 75.5602 13.7742 75.5602C19.9441 75.5602 24.9459 80.5619 24.9459 86.7318V90.9933C24.9455 91.8322 24.2656 92.5125 23.4265 92.5125Z" fill="#F6F6F6"/>
<path d="M95.7864 92.5125H76.4813C75.6425 92.5125 74.9624 91.8324 74.9624 90.9933V86.7318C74.9624 80.5619 79.9642 75.5602 86.1341 75.5602C92.304 75.5602 97.3057 80.5619 97.3057 86.7318V90.9933C97.3053 91.8322 96.6253 92.5125 95.7864 92.5125Z" fill="#F6F6F6"/>
<path d="M13.6774 22.247C9.68564 22.247 6.43799 18.9994 6.43799 15.0074C6.43799 11.0154 9.68564 7.76776 13.6774 7.76776C17.6694 7.76776 20.9171 11.0154 20.9171 15.0074C20.9171 18.9994 17.6694 22.247 13.6774 22.247Z" fill="#F6F6F6"/>
<path d="M86.0373 22.247C82.0455 22.247 78.7979 18.9994 78.7979 15.0074C78.7979 11.0154 82.0455 7.76776 86.0373 7.76776C90.0293 7.76776 93.2769 11.0154 93.2769 15.0074C93.2769 18.9994 90.0293 22.247 86.0373 22.247Z" fill="#F6F6F6"/>
<path d="M13.6774 81.9206C9.68564 81.9206 6.43799 78.6727 6.43799 74.6809C6.43799 70.6891 9.68564 67.4413 13.6774 67.4413C17.6694 67.4413 20.9171 70.6889 20.9171 74.6809C20.9171 78.6729 17.6694 81.9206 13.6774 81.9206Z" fill="#F6F6F6"/>
<path d="M86.0373 81.9206C82.0455 81.9206 78.7979 78.6727 78.7979 74.6809C78.7979 70.6891 82.0455 67.4413 86.0373 67.4413C90.0293 67.4413 93.2769 70.6889 93.2769 74.6809C93.2769 78.6729 90.0293 81.9206 86.0373 81.9206Z" fill="#F6F6F6"/>
<path d="M25.7557 9.79921C26.033 9.79921 26.3139 9.72811 26.5709 9.57909C28.1332 8.67226 29.7644 7.84882 31.4191 7.13124C32.2435 6.77363 32.6221 5.81582 32.2644 4.9914C31.907 4.16719 30.949 3.78867 30.1248 4.14609C28.3543 4.91386 26.609 5.79492 24.9375 6.76503C24.1602 7.2162 23.8961 8.21151 24.3471 8.98866C24.649 9.50878 25.1947 9.79921 25.7557 9.79921Z" fill="black"/>
<path d="M58.0443 3.98263C59.8244 4.29122 61.6041 4.70821 63.3343 5.22208C63.489 5.26798 63.6449 5.28985 63.7984 5.28985C64.5 5.28985 65.1472 4.83243 65.3574 4.1256C65.6134 3.26427 65.1224 2.35861 64.2611 2.10295C62.4093 1.55314 60.505 1.10666 58.6004 0.776582C57.7158 0.623262 56.8728 1.21623 56.7195 2.10158C56.566 2.98712 57.1591 3.82912 58.0443 3.98263Z" fill="black"/>
<path d="M47.1095 3.37834C47.1417 3.37834 47.1742 3.37756 47.2068 3.37541C48.1302 3.32092 49.0683 3.29338 49.9951 3.29338C49.9968 3.29338 49.9984 3.29338 49.9999 3.29338C50.8806 3.29338 51.7702 3.31818 52.6443 3.36701C53.546 3.41838 54.3093 2.73049 54.3593 1.83342C54.4091 0.936351 53.7228 0.168384 52.8257 0.118384C51.8915 0.0662353 50.9408 0.0396729 50.0003 0.0396729C49.9984 0.0396729 49.9968 0.0396729 49.9949 0.0396729C49.0048 0.0396729 48.0023 0.0689697 47.0156 0.127368C46.1187 0.180298 45.4343 0.950218 45.4872 1.84709C45.5378 2.71154 46.2548 3.37834 47.1095 3.37834Z" fill="black"/>
<path d="M96.6798 37.2034C95.8058 37.4116 95.2661 38.2892 95.4743 39.1632C95.8925 40.9181 96.2115 42.7182 96.423 44.5138C96.5204 45.3415 97.2232 45.9507 98.0365 45.9507C98.1001 45.9507 98.1642 45.947 98.2288 45.9393C99.121 45.8343 99.7593 45.0259 99.6542 44.1335C99.4282 42.2128 99.0868 40.2868 98.6396 38.4093C98.431 37.5349 97.554 36.9946 96.6798 37.2034Z" fill="black"/>
<path d="M93.9403 66.0282C93.6331 66.8725 94.0684 67.8061 94.913 68.1133C95.0965 68.1803 95.2842 68.2118 95.4692 68.2118C96.1338 68.2118 96.7577 67.8014 96.9981 67.1407C97.6596 65.3235 98.2198 63.4481 98.6641 61.5665C98.8704 60.6921 98.3288 59.8157 97.4544 59.6095C96.5811 59.4034 95.7036 59.9442 95.4971 60.8192C95.0819 62.5776 94.5583 64.3302 93.9403 66.0282Z" fill="black"/>
<path d="M68.4453 7.07323C70.1037 7.78612 71.7387 8.60545 73.3055 9.50818C73.5617 9.65564 73.8407 9.72576 74.1164 9.72576C74.6791 9.72576 75.2264 9.43338 75.5274 8.91092C75.976 8.1324 75.7088 7.13768 74.9301 6.68905C73.2539 5.72303 71.5045 4.84667 69.7301 4.08397C68.9041 3.72812 67.9477 4.11054 67.593 4.93612C67.2383 5.76151 67.62 6.71815 68.4453 7.07323Z" fill="black"/>
<path d="M2.55556 59.6603C1.68135 59.8677 1.14072 60.7444 1.34795 61.6187C1.79404 63.4995 2.35595 65.3733 3.01865 67.1882C3.25947 67.8481 3.8831 68.2575 4.54696 68.2575C4.73212 68.2575 4.92079 68.2257 5.10478 68.1583C5.94872 67.8503 6.38329 66.9163 6.07509 66.0722C5.45614 64.3765 4.93075 62.6257 4.51396 60.8681C4.30654 59.9937 3.43154 59.453 2.55556 59.6603Z" fill="black"/>
<path d="M36.0535 5.33433C36.2085 5.33433 36.3663 5.31207 36.5226 5.265C38.2505 4.74566 40.029 4.32281 41.8085 4.00836C42.6935 3.85192 43.2841 3.00797 43.1277 2.12321C42.9712 1.23825 42.1281 0.648015 41.2425 0.804069C39.3384 1.1404 37.4353 1.59293 35.5857 2.14879C34.7251 2.40758 34.2374 3.31481 34.496 4.17516C34.7078 4.87984 35.354 5.33433 36.0535 5.33433Z" fill="black"/>
<path d="M98.373 48.3099C97.4744 48.3099 96.7463 49.0382 96.7463 49.9366V50.0396C96.7463 51.8517 96.6414 53.6776 96.4347 55.4669C96.3316 56.3595 96.9714 57.1667 97.8638 57.2698C97.9275 57.2772 97.9902 57.2808 98.0529 57.2808C98.8677 57.2808 99.5711 56.6696 99.667 55.8407C99.8881 53.928 100 51.9761 100 50.0398V49.9368C99.9998 49.0382 99.2715 48.3099 98.373 48.3099Z" fill="black"/>
<path d="M58.1421 96.0793C56.3673 96.3908 54.5509 96.602 52.7433 96.7065C51.8464 96.7584 51.1613 97.5275 51.2132 98.4244C51.263 99.2895 51.9804 99.9572 52.8359 99.9572C52.8673 99.9572 52.8995 99.9564 52.9314 99.9545C54.8638 99.8428 56.8066 99.6172 58.7048 99.2836C59.5898 99.1281 60.1814 98.285 60.0257 97.3998C59.8706 96.5152 59.0267 95.9236 58.1421 96.0793Z" fill="black"/>
<path d="M47.3054 96.7094C45.4976 96.6067 43.6812 96.3975 41.9066 96.0879C41.0199 95.933 40.1787 96.5258 40.024 97.4108C39.8695 98.2959 40.4619 99.1387 41.3469 99.2932C43.2453 99.6244 45.1879 99.8483 47.1211 99.958C47.1523 99.9598 47.1836 99.9606 47.2148 99.9606C48.0711 99.9606 48.7887 99.2914 48.8377 98.426C48.8885 97.5287 48.2025 96.7604 47.3054 96.7094Z" fill="black"/>
<path d="M36.6179 94.8426C34.8874 94.3266 33.1685 93.702 31.5087 92.9862C30.6839 92.6307 29.7263 93.0108 29.3708 93.836C29.0148 94.661 29.3954 95.6182 30.2204 95.9739C31.9968 96.7397 33.8362 97.4079 35.6882 97.9602C35.8433 98.0065 35.9997 98.0286 36.1538 98.0286C36.8546 98.0286 37.5017 97.5719 37.7124 96.8662C37.9689 96.0055 37.479 95.0995 36.6179 94.8426Z" fill="black"/>
<path d="M1.75809 46.0929C1.82118 46.1001 1.88349 46.1036 1.9454 46.1036C2.76102 46.1036 3.46473 45.4915 3.55946 44.6618C3.76512 42.8655 4.0784 41.0644 4.4909 39.3083C4.69618 38.4335 4.15379 37.5579 3.27899 37.3524C2.40438 37.1464 1.52841 37.6894 1.32294 38.5644C0.881924 40.4431 0.546573 42.37 0.326652 44.2915C0.224308 45.1843 0.865323 45.9907 1.75809 46.0929Z" fill="black"/>
<path d="M68.5347 92.9678C66.8761 93.6848 65.1585 94.3108 63.4296 94.8285C62.5689 95.0863 62.0802 95.993 62.3378 96.8537C62.5487 97.559 63.1956 98.0145 63.8958 98.0145C64.0503 98.0145 64.2073 97.9922 64.3632 97.9457C66.2136 97.3916 68.0515 96.7217 69.8263 95.9543C70.6509 95.5977 71.0306 94.6401 70.6737 93.8154C70.3171 92.9906 69.3599 92.6112 68.5347 92.9678Z" fill="black"/>
<path d="M2.14336 57.3208C3.03593 57.2167 3.6748 56.4089 3.5707 55.5163C3.3621 53.7275 3.25546 51.9015 3.25371 50.0892C3.25292 49.1911 2.52461 48.464 1.62695 48.464C1.62656 48.464 1.62597 48.464 1.62519 48.464C0.726757 48.465 -0.00078062 49.1939 6.28605e-07 50.0925C0.00195375 52.029 0.116016 53.9808 0.339062 55.8933C0.435742 56.7218 1.13867 57.3317 1.95273 57.3317C2.01562 57.3317 2.07949 57.3282 2.14336 57.3208Z" fill="black"/>
<path d="M4.37607 34.1366H23.1725C25.0792 34.1366 26.6303 32.5855 26.6303 30.6788V26.7587C26.6303 25.457 26.419 24.1773 26.0018 22.9552C25.7399 22.188 24.9045 21.7785 24.1387 22.0402C23.3713 22.3021 22.9618 23.1361 23.2237 23.9034C23.5364 24.8195 23.6948 25.7804 23.6948 26.7589V30.679C23.6948 30.9671 23.4606 31.2013 23.1725 31.2013H4.37587C4.08779 31.2013 3.85361 30.9671 3.85361 30.679V26.7589C3.85361 24.2343 4.93779 21.8425 6.79638 20.1757C8.36883 22.264 10.8679 23.6171 13.6774 23.6171C18.4247 23.6171 22.287 19.7548 22.287 15.0076C22.287 10.2603 18.4249 6.39801 13.6778 6.39801C8.93075 6.39801 5.06825 10.2603 5.06825 15.0076C5.06825 15.871 5.19736 16.7044 5.43505 17.4913C2.59677 19.7163 0.918457 23.1341 0.918457 26.7591V30.6792C0.918262 32.5855 2.46943 34.1366 4.37607 34.1366ZM13.6778 9.33336C16.8065 9.33336 19.352 11.8787 19.352 15.0076C19.352 18.1365 16.8067 20.6818 13.6778 20.6818C10.5493 20.6818 8.0038 18.1365 8.0038 15.0076C8.0038 11.8787 10.5489 9.33336 13.6778 9.33336Z" fill="black"/>
<path d="M73.3691 26.7589V30.679C73.3691 32.5856 74.9201 34.1368 76.8269 34.1368H95.6234C97.53 34.1368 99.0812 32.5856 99.0812 30.679V26.7589C99.0812 25.4571 98.8699 24.1775 98.4527 22.9554C98.1908 22.1882 97.3558 21.7786 96.5896 22.0404C95.8222 22.3023 95.4126 23.1362 95.6746 23.9036C95.9871 24.8196 96.1457 25.7806 96.1457 26.7591V30.6792C96.1457 30.9673 95.9115 31.2015 95.6234 31.2015H76.8269C76.5389 31.2015 76.3047 30.9673 76.3047 30.6792V26.7591C76.3047 24.2345 77.3889 21.8427 79.2474 20.1759C80.8199 22.2642 83.3189 23.6173 86.1285 23.6173C90.8757 23.6173 94.738 19.755 94.738 15.0077C94.738 10.2605 90.8757 6.39819 86.1285 6.39819C81.3812 6.39819 77.5191 10.2605 77.5191 15.0077C77.5191 15.8712 77.6482 16.7046 77.8859 17.4915C75.0473 19.7163 73.3691 23.1339 73.3691 26.7589ZM86.1283 9.33334C89.257 9.33334 91.8025 11.8787 91.8025 15.0076C91.8025 18.1365 89.2572 20.6818 86.1283 20.6818C82.9998 20.6818 80.4543 18.1365 80.4543 15.0076C80.4543 11.8787 82.9998 9.33334 86.1283 9.33334Z" fill="black"/>
<path d="M96.5894 81.5848C95.822 81.8467 95.4125 82.6807 95.6744 83.4481C95.9869 84.3641 96.1455 85.3248 96.1455 86.3035V90.2236C96.1455 90.5117 95.9113 90.7459 95.6232 90.7459H76.8268C76.5387 90.7459 76.3045 90.5117 76.3045 90.2236V86.3035C76.3045 83.7789 77.3887 81.3871 79.2473 79.7203C80.8197 81.8086 83.3187 83.1617 86.1283 83.1617C90.8756 83.1617 94.7378 79.2994 94.7378 74.5522C94.7378 69.8049 90.8756 65.9426 86.1283 65.9426C81.381 65.9426 77.5189 69.8049 77.5189 74.5522C77.5189 75.4157 77.648 76.249 77.8857 77.036C75.0475 79.261 73.3691 82.6787 73.3691 86.3037V90.2238C73.3691 92.1305 74.9201 93.6816 76.8269 93.6816H95.6234C97.53 93.6816 99.0812 92.1306 99.0812 90.2238V86.3037C99.0812 85.002 98.8699 83.7223 98.4527 82.5002C98.1906 81.7324 97.3554 81.3227 96.5894 81.5848ZM86.1283 68.8778C89.257 68.8778 91.8025 71.4231 91.8025 74.552C91.8025 77.6809 89.2572 80.2262 86.1283 80.2262C82.9998 80.2262 80.4543 77.6809 80.4543 74.552C80.4543 71.4231 82.9998 68.8778 86.1283 68.8778Z" fill="black"/>
<path d="M24.1387 81.5848C23.3713 81.8467 22.9618 82.6807 23.2237 83.4481C23.5364 84.3641 23.6948 85.3248 23.6948 86.3035V90.2236C23.6948 90.5117 23.4606 90.7459 23.1725 90.7459H4.37607C4.08798 90.7459 3.8538 90.5117 3.8538 90.2236V86.3035C3.8538 83.7789 4.93798 81.3871 6.79657 79.7203C8.36903 81.8086 10.868 83.1617 13.6776 83.1617C18.4249 83.1617 22.2872 79.2994 22.2872 74.5522C22.2872 69.8049 18.4249 65.9426 13.6776 65.9426C8.93036 65.9426 5.06825 69.8049 5.06825 74.5522C5.06825 75.4157 5.19736 76.249 5.43505 77.036C2.59677 79.261 0.918457 82.6787 0.918457 86.3037V90.2238C0.918457 92.1305 2.46963 93.6816 4.37626 93.6816H23.1727C25.0793 93.6816 26.6305 92.1306 26.6305 90.2238V86.3037C26.6305 85.002 26.4192 83.7223 26.002 82.5002C25.7397 81.7324 24.9043 81.3227 24.1387 81.5848ZM13.6778 68.8778C16.8065 68.8778 19.352 71.4231 19.352 74.552C19.352 77.6809 16.8067 80.2262 13.6778 80.2262C10.5493 80.2262 8.0038 77.6809 8.0038 74.552C8.0038 71.4231 10.5489 68.8778 13.6778 68.8778Z" fill="black"/>
<path d="M63.8826 33.8212H48.2643C41.5155 33.8212 35.9007 38.7579 34.8345 45.2095H34.3016C28.214 45.2095 23.2612 50.3026 23.2612 56.563C23.2612 60.9733 25.7032 64.9231 29.5366 66.8047C31.4208 71.3688 37.2995 73.5579 37.5598 73.6526C37.7239 73.7125 37.8938 73.7415 38.0622 73.7415C38.4635 73.7415 38.8563 73.5764 39.1393 73.271C39.5409 72.8374 39.6432 72.2051 39.3989 71.667C38.8081 70.3659 38.4759 69.1092 38.4055 67.9163H46.6094C51.1471 67.9163 55.0526 65.0856 56.7479 61.0518H59.0848C59.0436 62.6591 58.6075 64.3579 57.7817 66.1196C57.5307 66.6551 57.6256 67.2893 58.0225 67.7276C58.3059 68.0405 58.7035 68.2102 59.1108 68.2102C59.2744 68.2102 59.4393 68.1829 59.5991 68.1264C59.925 68.0114 67.3342 65.3395 69.608 59.7899C74.4229 57.5628 77.498 52.7839 77.498 47.4366C77.498 39.929 71.3902 33.8212 63.8826 33.8212ZM67.8957 57.3339C67.4983 57.4954 67.1873 57.8169 67.0565 58.2255C66.2328 60.797 63.7256 62.7112 61.6571 63.9057C62.0125 62.3757 62.1102 60.879 61.9471 59.4296C61.8631 58.6837 61.2381 58.1163 60.4875 58.1163H48.2645C46.859 58.1163 45.5172 57.8417 44.2874 57.3454C43.7428 57.1257 43.1208 57.2454 42.7055 57.6606L42.6846 57.6815C41.9465 58.4196 42.2046 59.669 43.1721 60.0614C44.7458 60.6993 46.4645 61.0516 48.2643 61.0516H53.4604C52.0231 63.4104 49.4899 64.9805 46.609 64.9805H36.9768C36.2327 64.9805 35.601 65.5378 35.519 66.2774C35.4079 67.2801 35.4419 68.309 35.6198 69.3585C34.195 68.4178 32.6741 67.0587 32.1151 65.3182C31.9796 64.896 31.6804 64.5417 31.2714 64.3704C28.1882 63.078 26.1962 60.0132 26.1962 56.563C26.1962 51.9214 29.8319 48.145 34.3012 48.145H34.6677C34.7468 49.6792 35.0817 51.1466 35.63 52.5062C36.0214 53.477 37.2718 53.7397 38.012 52.9995C38.0192 52.9923 38.0264 52.9851 38.0335 52.978C38.4469 52.5645 38.569 51.945 38.3509 51.4024C37.8298 50.1065 37.5544 48.6864 37.587 47.1987C37.7153 41.3693 42.5844 36.757 48.4153 36.757H63.7029C69.5965 36.757 74.5809 41.578 74.5623 47.4714C74.5486 51.8255 71.9348 55.6942 67.8957 57.3339Z" fill="black"/>
</g>
<defs>
<clipPath id="clip0">
<rect width="100" height="100" fill="white"/>
</clipPath>
</defs>
</svg>
