<svg width="70" height="71" viewBox="0 0 70 71" fill="none" xmlns="http://www.w3.org/2000/svg">
<path d="M54.3595 53.0862C57.7954 53.0862 60.5818 55.8726 60.5818 59.3085C60.5818 62.7444 57.7954 65.5308 54.3595 65.5308C50.9236 65.5308 48.1372 62.7444 48.1372 59.3085C48.1543 55.8726 50.9236 53.0862 54.3595 53.0862Z" fill="#E30613"/>
<path d="M27.795 53.0862C31.231 53.0862 34.0173 55.8726 34.0173 59.3085C34.0173 62.7444 31.231 65.5308 27.795 65.5308C24.3591 65.5308 21.5728 62.7444 21.5728 59.3085C21.5728 55.8726 24.3591 53.0862 27.795 53.0862Z" fill="#E30613"/>
<path d="M54.3594 51.3768C49.9833 51.3768 46.4277 54.9324 46.4277 59.3085C46.4277 63.6846 49.9833 67.2402 54.3594 67.2402C58.7355 67.2402 62.2911 63.6846 62.2911 59.3085C62.3082 54.9324 58.7355 51.3768 54.3594 51.3768ZM54.3594 63.8213C51.8637 63.8213 49.8466 61.8042 49.8466 59.3085C49.8466 56.8127 51.8637 54.7956 54.3594 54.7956C56.8552 54.7956 58.8723 56.8127 58.8723 59.3085C58.8894 61.8042 56.8552 63.8213 54.3594 63.8213Z" fill="black"/>
<path d="M68.3084 12.8123H15.1625L14.7181 10.6072C13.8976 6.33361 10.1027 3.23956 5.69236 3.23956H1.70942C0.769238 3.23956 0 4.0088 0 4.94898C0 5.88916 0.769238 6.6584 1.70942 6.6584H5.67527C8.49581 6.6584 10.8206 8.52167 11.3505 11.2396L17.7438 43.3596C18.3762 46.5562 21.1968 48.881 24.4447 48.881H57.5732C60.8211 48.881 63.6416 46.522 64.2741 43.3425L69.9665 14.8294C70.0691 14.3337 69.9323 13.8209 69.6075 13.4277C69.2998 13.0345 68.8041 12.8123 68.3084 12.8123ZM65.2143 21.1885H56.8211L57.4365 16.2311H66.2058L65.2143 21.1885ZM43.0432 21.1885V16.2311H54.0005L53.3851 21.1885H43.0432ZM52.9578 24.6073L52.3766 29.2227H43.0432V24.6073H52.9578ZM39.6243 21.1885H29.2994L28.684 16.2311H39.6243V21.1885ZM39.6243 24.6073V29.2227H30.308L29.7268 24.6073H39.6243ZM26.8721 29.2227H18.4446L17.5215 24.6073H26.2909L26.8721 29.2227ZM19.1113 32.6416H27.2823L27.8464 37.257H20.0173L19.1113 32.6416ZM30.7353 32.6416H39.6243V37.257H31.2995L30.7353 32.6416ZM39.6243 40.6758V45.4622H32.308L31.7268 40.6758H39.6243ZM43.0432 40.6758H50.9578L50.3766 45.4622H43.0432V40.6758ZM43.0432 37.257V32.6416H51.9492L51.3851 37.257H43.0432ZM55.4023 32.6416H62.9237L62.0006 37.257H54.8381L55.4023 32.6416ZM55.8296 29.2227L56.4108 24.6073H64.5476L63.6075 29.2227H55.8296ZM25.2481 16.2311L25.8635 21.1885H16.8378L15.8463 16.2311H25.2481ZM21.0942 42.6587L20.7182 40.6758H28.2909L28.8721 45.4622H24.4447C22.8207 45.4622 21.419 44.2485 21.0942 42.6587ZM57.5732 45.4622H53.8125L54.3937 40.6758H61.2997L60.9066 42.6587C60.5989 44.2485 59.1972 45.4622 57.5732 45.4622Z" fill="black"/>
<path d="M27.795 51.3768C23.4189 51.3768 19.8633 54.9324 19.8633 59.3085C19.8633 63.6846 23.4189 67.2402 27.795 67.2402C32.1711 67.2402 35.7267 63.6846 35.7267 59.3085C35.7267 54.9324 32.1711 51.3768 27.795 51.3768ZM27.795 63.8213C25.2992 63.8213 23.2821 61.8042 23.2821 59.3085C23.2821 56.8127 25.2992 54.7956 27.795 54.7956C30.2907 54.7956 32.3079 56.8127 32.3079 59.3085C32.3079 61.8042 30.2907 63.8213 27.795 63.8213Z" fill="black"/>
</svg>
