<?xml version="1.0" encoding="UTF-8"?><!DOCTYPE svg PUBLIC "-//W3C//DTD SVG 1.1//EN" "http://www.w3.org/Graphics/SVG/1.1/DTD/svg11.dtd"><svg xmlns="http://www.w3.org/2000/svg" xmlns:xlink="http://www.w3.org/1999/xlink"><defs>
<clipPath id="clip0">
<rect width="100" height="100" fill="white"/>
</clipPath>

<clipPath id="clip0">
<rect width="100" height="100" fill="white" transform="translate(0.745117 0.741455)"/>
</clipPath>

<clipPath id="clip0">
<rect width="100" height="100" fill="white" transform="translate(0 0.741455)"/>
</clipPath>

<clipPath id="clip0">
<rect width="87" height="89" fill="white"/>
</clipPath>
</defs><symbol id="inform" viewBox="0 0 100 100">
<g clip-path="url(#clip0)">
<path d="M23.4265 32.839H4.12148C3.28262 32.839 2.60254 32.1589 2.60254 31.3201V27.0586C2.60254 20.8886 7.60429 15.8869 13.7742 15.8869C19.9441 15.8869 24.9459 20.8886 24.9459 27.0586V31.3201C24.9455 32.1591 24.2656 32.839 23.4265 32.839Z" fill="#F6F6F6"/>
<path d="M34.7574 70.6651C32.5932 69.2362 31.2029 67.5983 30.6248 65.7966C26.9822 64.2499 24.6309 60.6304 24.6309 56.5628C24.6309 51.0579 28.9689 46.5792 34.3015 46.5792H46.6093C51.9418 46.5792 56.28 51.0579 56.28 56.5628C56.28 62.0677 51.9419 66.5462 46.6093 66.5462H37.0652C36.9832 67.37 37.0164 68.2276 37.1638 69.0968L37.6062 71.7057C37.6672 72.0651 37.2701 72.3239 36.966 72.1231L34.7574 70.6651Z" fill="#E30613"/>
<path d="M56.2796 56.563C56.2796 51.0581 51.9416 46.5794 46.609 46.5794H34.3012C32.9131 46.5794 31.5937 46.8853 30.3994 47.4314C30.9133 55.6962 37.934 62.152 46.3019 62.152H54.6181C55.6666 60.5561 56.2796 58.6319 56.2796 56.563Z" fill="#E30613"/>
<path d="M60.1318 63.5517C60.4398 62.2257 60.5296 60.9241 60.3996 59.6819H48.4502C41.7304 59.6819 36.1228 54.3458 36.0205 47.6267C35.9162 40.788 41.449 35.1913 48.2642 35.1913H63.7111C70.445 35.1913 76.048 40.556 76.1269 47.2896C76.1862 52.3431 73.1911 56.8544 68.5261 58.7677C67.5218 61.8087 64.665 63.9767 62.4396 65.2618L60.147 66.5856C59.8314 66.7681 59.4503 66.4856 59.5328 66.1306L60.1318 63.5517Z" fill="#E30613"/>
<path d="M46.0293 50.953C45.925 44.1142 51.4578 38.5177 58.273 38.5177H72.2009C69.9689 36.4533 66.974 35.1913 63.7111 35.1913H48.2642C41.449 35.1913 35.9162 40.788 36.0205 47.6267C36.123 54.3456 41.7304 59.6819 48.4502 59.6819H49.9599C47.5931 57.4956 46.0822 54.4083 46.0293 50.953Z" fill="#E30613"/>
<path d="M95.7864 32.839H76.4813C75.6425 32.839 74.9624 32.1589 74.9624 31.3201V27.0586C74.9624 20.8886 79.9642 15.8869 86.1341 15.8869C92.304 15.8869 97.3057 20.8886 97.3057 27.0586V31.3201C97.3053 32.1591 96.6253 32.839 95.7864 32.839Z" fill="#F6F6F6"/>
<path d="M23.4265 92.5125H4.12148C3.28262 92.5125 2.60254 91.8324 2.60254 90.9933V86.7318C2.60254 80.5619 7.60429 75.5602 13.7742 75.5602C19.9441 75.5602 24.9459 80.5619 24.9459 86.7318V90.9933C24.9455 91.8322 24.2656 92.5125 23.4265 92.5125Z" fill="#F6F6F6"/>
<path d="M95.7864 92.5125H76.4813C75.6425 92.5125 74.9624 91.8324 74.9624 90.9933V86.7318C74.9624 80.5619 79.9642 75.5602 86.1341 75.5602C92.304 75.5602 97.3057 80.5619 97.3057 86.7318V90.9933C97.3053 91.8322 96.6253 92.5125 95.7864 92.5125Z" fill="#F6F6F6"/>
<path d="M13.6774 22.247C9.68564 22.247 6.43799 18.9994 6.43799 15.0074C6.43799 11.0154 9.68564 7.76776 13.6774 7.76776C17.6694 7.76776 20.9171 11.0154 20.9171 15.0074C20.9171 18.9994 17.6694 22.247 13.6774 22.247Z" fill="#F6F6F6"/>
<path d="M86.0373 22.247C82.0455 22.247 78.7979 18.9994 78.7979 15.0074C78.7979 11.0154 82.0455 7.76776 86.0373 7.76776C90.0293 7.76776 93.2769 11.0154 93.2769 15.0074C93.2769 18.9994 90.0293 22.247 86.0373 22.247Z" fill="#F6F6F6"/>
<path d="M13.6774 81.9206C9.68564 81.9206 6.43799 78.6727 6.43799 74.6809C6.43799 70.6891 9.68564 67.4413 13.6774 67.4413C17.6694 67.4413 20.9171 70.6889 20.9171 74.6809C20.9171 78.6729 17.6694 81.9206 13.6774 81.9206Z" fill="#F6F6F6"/>
<path d="M86.0373 81.9206C82.0455 81.9206 78.7979 78.6727 78.7979 74.6809C78.7979 70.6891 82.0455 67.4413 86.0373 67.4413C90.0293 67.4413 93.2769 70.6889 93.2769 74.6809C93.2769 78.6729 90.0293 81.9206 86.0373 81.9206Z" fill="#F6F6F6"/>
<path d="M25.7557 9.79921C26.033 9.79921 26.3139 9.72811 26.5709 9.57909C28.1332 8.67226 29.7644 7.84882 31.4191 7.13124C32.2435 6.77363 32.6221 5.81582 32.2644 4.9914C31.907 4.16719 30.949 3.78867 30.1248 4.14609C28.3543 4.91386 26.609 5.79492 24.9375 6.76503C24.1602 7.2162 23.8961 8.21151 24.3471 8.98866C24.649 9.50878 25.1947 9.79921 25.7557 9.79921Z" fill="black"/>
<path d="M58.0443 3.98263C59.8244 4.29122 61.6041 4.70821 63.3343 5.22208C63.489 5.26798 63.6449 5.28985 63.7984 5.28985C64.5 5.28985 65.1472 4.83243 65.3574 4.1256C65.6134 3.26427 65.1224 2.35861 64.2611 2.10295C62.4093 1.55314 60.505 1.10666 58.6004 0.776582C57.7158 0.623262 56.8728 1.21623 56.7195 2.10158C56.566 2.98712 57.1591 3.82912 58.0443 3.98263Z" fill="black"/>
<path d="M47.1095 3.37834C47.1417 3.37834 47.1742 3.37756 47.2068 3.37541C48.1302 3.32092 49.0683 3.29338 49.9951 3.29338C49.9968 3.29338 49.9984 3.29338 49.9999 3.29338C50.8806 3.29338 51.7702 3.31818 52.6443 3.36701C53.546 3.41838 54.3093 2.73049 54.3593 1.83342C54.4091 0.936351 53.7228 0.168384 52.8257 0.118384C51.8915 0.0662353 50.9408 0.0396729 50.0003 0.0396729C49.9984 0.0396729 49.9968 0.0396729 49.9949 0.0396729C49.0048 0.0396729 48.0023 0.0689697 47.0156 0.127368C46.1187 0.180298 45.4343 0.950218 45.4872 1.84709C45.5378 2.71154 46.2548 3.37834 47.1095 3.37834Z" fill="black"/>
<path d="M96.6798 37.2034C95.8058 37.4116 95.2661 38.2892 95.4743 39.1632C95.8925 40.9181 96.2115 42.7182 96.423 44.5138C96.5204 45.3415 97.2232 45.9507 98.0365 45.9507C98.1001 45.9507 98.1642 45.947 98.2288 45.9393C99.121 45.8343 99.7593 45.0259 99.6542 44.1335C99.4282 42.2128 99.0868 40.2868 98.6396 38.4093C98.431 37.5349 97.554 36.9946 96.6798 37.2034Z" fill="black"/>
<path d="M93.9403 66.0282C93.6331 66.8725 94.0684 67.8061 94.913 68.1133C95.0965 68.1803 95.2842 68.2118 95.4692 68.2118C96.1338 68.2118 96.7577 67.8014 96.9981 67.1407C97.6596 65.3235 98.2198 63.4481 98.6641 61.5665C98.8704 60.6921 98.3288 59.8157 97.4544 59.6095C96.5811 59.4034 95.7036 59.9442 95.4971 60.8192C95.0819 62.5776 94.5583 64.3302 93.9403 66.0282Z" fill="black"/>
<path d="M68.4453 7.07323C70.1037 7.78612 71.7387 8.60545 73.3055 9.50818C73.5617 9.65564 73.8407 9.72576 74.1164 9.72576C74.6791 9.72576 75.2264 9.43338 75.5274 8.91092C75.976 8.1324 75.7088 7.13768 74.9301 6.68905C73.2539 5.72303 71.5045 4.84667 69.7301 4.08397C68.9041 3.72812 67.9477 4.11054 67.593 4.93612C67.2383 5.76151 67.62 6.71815 68.4453 7.07323Z" fill="black"/>
<path d="M2.55556 59.6603C1.68135 59.8677 1.14072 60.7444 1.34795 61.6187C1.79404 63.4995 2.35595 65.3733 3.01865 67.1882C3.25947 67.8481 3.8831 68.2575 4.54696 68.2575C4.73212 68.2575 4.92079 68.2257 5.10478 68.1583C5.94872 67.8503 6.38329 66.9163 6.07509 66.0722C5.45614 64.3765 4.93075 62.6257 4.51396 60.8681C4.30654 59.9937 3.43154 59.453 2.55556 59.6603Z" fill="black"/>
<path d="M36.0535 5.33433C36.2085 5.33433 36.3663 5.31207 36.5226 5.265C38.2505 4.74566 40.029 4.32281 41.8085 4.00836C42.6935 3.85192 43.2841 3.00797 43.1277 2.12321C42.9712 1.23825 42.1281 0.648015 41.2425 0.804069C39.3384 1.1404 37.4353 1.59293 35.5857 2.14879C34.7251 2.40758 34.2374 3.31481 34.496 4.17516C34.7078 4.87984 35.354 5.33433 36.0535 5.33433Z" fill="black"/>
<path d="M98.373 48.3099C97.4744 48.3099 96.7463 49.0382 96.7463 49.9366V50.0396C96.7463 51.8517 96.6414 53.6776 96.4347 55.4669C96.3316 56.3595 96.9714 57.1667 97.8638 57.2698C97.9275 57.2772 97.9902 57.2808 98.0529 57.2808C98.8677 57.2808 99.5711 56.6696 99.667 55.8407C99.8881 53.928 100 51.9761 100 50.0398V49.9368C99.9998 49.0382 99.2715 48.3099 98.373 48.3099Z" fill="black"/>
<path d="M58.1421 96.0793C56.3673 96.3908 54.5509 96.602 52.7433 96.7065C51.8464 96.7584 51.1613 97.5275 51.2132 98.4244C51.263 99.2895 51.9804 99.9572 52.8359 99.9572C52.8673 99.9572 52.8995 99.9564 52.9314 99.9545C54.8638 99.8428 56.8066 99.6172 58.7048 99.2836C59.5898 99.1281 60.1814 98.285 60.0257 97.3998C59.8706 96.5152 59.0267 95.9236 58.1421 96.0793Z" fill="black"/>
<path d="M47.3054 96.7094C45.4976 96.6067 43.6812 96.3975 41.9066 96.0879C41.0199 95.933 40.1787 96.5258 40.024 97.4108C39.8695 98.2959 40.4619 99.1387 41.3469 99.2932C43.2453 99.6244 45.1879 99.8483 47.1211 99.958C47.1523 99.9598 47.1836 99.9606 47.2148 99.9606C48.0711 99.9606 48.7887 99.2914 48.8377 98.426C48.8885 97.5287 48.2025 96.7604 47.3054 96.7094Z" fill="black"/>
<path d="M36.6179 94.8426C34.8874 94.3266 33.1685 93.702 31.5087 92.9862C30.6839 92.6307 29.7263 93.0108 29.3708 93.836C29.0148 94.661 29.3954 95.6182 30.2204 95.9739C31.9968 96.7397 33.8362 97.4079 35.6882 97.9602C35.8433 98.0065 35.9997 98.0286 36.1538 98.0286C36.8546 98.0286 37.5017 97.5719 37.7124 96.8662C37.9689 96.0055 37.479 95.0995 36.6179 94.8426Z" fill="black"/>
<path d="M1.75809 46.0929C1.82118 46.1001 1.88349 46.1036 1.9454 46.1036C2.76102 46.1036 3.46473 45.4915 3.55946 44.6618C3.76512 42.8655 4.0784 41.0644 4.4909 39.3083C4.69618 38.4335 4.15379 37.5579 3.27899 37.3524C2.40438 37.1464 1.52841 37.6894 1.32294 38.5644C0.881924 40.4431 0.546573 42.37 0.326652 44.2915C0.224308 45.1843 0.865323 45.9907 1.75809 46.0929Z" fill="black"/>
<path d="M68.5347 92.9678C66.8761 93.6848 65.1585 94.3108 63.4296 94.8285C62.5689 95.0863 62.0802 95.993 62.3378 96.8537C62.5487 97.559 63.1956 98.0145 63.8958 98.0145C64.0503 98.0145 64.2073 97.9922 64.3632 97.9457C66.2136 97.3916 68.0515 96.7217 69.8263 95.9543C70.6509 95.5977 71.0306 94.6401 70.6737 93.8154C70.3171 92.9906 69.3599 92.6112 68.5347 92.9678Z" fill="black"/>
<path d="M2.14336 57.3208C3.03593 57.2167 3.6748 56.4089 3.5707 55.5163C3.3621 53.7275 3.25546 51.9015 3.25371 50.0892C3.25292 49.1911 2.52461 48.464 1.62695 48.464C1.62656 48.464 1.62597 48.464 1.62519 48.464C0.726757 48.465 -0.00078062 49.1939 6.28605e-07 50.0925C0.00195375 52.029 0.116016 53.9808 0.339062 55.8933C0.435742 56.7218 1.13867 57.3317 1.95273 57.3317C2.01562 57.3317 2.07949 57.3282 2.14336 57.3208Z" fill="black"/>
<path d="M4.37607 34.1366H23.1725C25.0792 34.1366 26.6303 32.5855 26.6303 30.6788V26.7587C26.6303 25.457 26.419 24.1773 26.0018 22.9552C25.7399 22.188 24.9045 21.7785 24.1387 22.0402C23.3713 22.3021 22.9618 23.1361 23.2237 23.9034C23.5364 24.8195 23.6948 25.7804 23.6948 26.7589V30.679C23.6948 30.9671 23.4606 31.2013 23.1725 31.2013H4.37587C4.08779 31.2013 3.85361 30.9671 3.85361 30.679V26.7589C3.85361 24.2343 4.93779 21.8425 6.79638 20.1757C8.36883 22.264 10.8679 23.6171 13.6774 23.6171C18.4247 23.6171 22.287 19.7548 22.287 15.0076C22.287 10.2603 18.4249 6.39801 13.6778 6.39801C8.93075 6.39801 5.06825 10.2603 5.06825 15.0076C5.06825 15.871 5.19736 16.7044 5.43505 17.4913C2.59677 19.7163 0.918457 23.1341 0.918457 26.7591V30.6792C0.918262 32.5855 2.46943 34.1366 4.37607 34.1366ZM13.6778 9.33336C16.8065 9.33336 19.352 11.8787 19.352 15.0076C19.352 18.1365 16.8067 20.6818 13.6778 20.6818C10.5493 20.6818 8.0038 18.1365 8.0038 15.0076C8.0038 11.8787 10.5489 9.33336 13.6778 9.33336Z" fill="black"/>
<path d="M73.3691 26.7589V30.679C73.3691 32.5856 74.9201 34.1368 76.8269 34.1368H95.6234C97.53 34.1368 99.0812 32.5856 99.0812 30.679V26.7589C99.0812 25.4571 98.8699 24.1775 98.4527 22.9554C98.1908 22.1882 97.3558 21.7786 96.5896 22.0404C95.8222 22.3023 95.4126 23.1362 95.6746 23.9036C95.9871 24.8196 96.1457 25.7806 96.1457 26.7591V30.6792C96.1457 30.9673 95.9115 31.2015 95.6234 31.2015H76.8269C76.5389 31.2015 76.3047 30.9673 76.3047 30.6792V26.7591C76.3047 24.2345 77.3889 21.8427 79.2474 20.1759C80.8199 22.2642 83.3189 23.6173 86.1285 23.6173C90.8757 23.6173 94.738 19.755 94.738 15.0077C94.738 10.2605 90.8757 6.39819 86.1285 6.39819C81.3812 6.39819 77.5191 10.2605 77.5191 15.0077C77.5191 15.8712 77.6482 16.7046 77.8859 17.4915C75.0473 19.7163 73.3691 23.1339 73.3691 26.7589ZM86.1283 9.33334C89.257 9.33334 91.8025 11.8787 91.8025 15.0076C91.8025 18.1365 89.2572 20.6818 86.1283 20.6818C82.9998 20.6818 80.4543 18.1365 80.4543 15.0076C80.4543 11.8787 82.9998 9.33334 86.1283 9.33334Z" fill="black"/>
<path d="M96.5894 81.5848C95.822 81.8467 95.4125 82.6807 95.6744 83.4481C95.9869 84.3641 96.1455 85.3248 96.1455 86.3035V90.2236C96.1455 90.5117 95.9113 90.7459 95.6232 90.7459H76.8268C76.5387 90.7459 76.3045 90.5117 76.3045 90.2236V86.3035C76.3045 83.7789 77.3887 81.3871 79.2473 79.7203C80.8197 81.8086 83.3187 83.1617 86.1283 83.1617C90.8756 83.1617 94.7378 79.2994 94.7378 74.5522C94.7378 69.8049 90.8756 65.9426 86.1283 65.9426C81.381 65.9426 77.5189 69.8049 77.5189 74.5522C77.5189 75.4157 77.648 76.249 77.8857 77.036C75.0475 79.261 73.3691 82.6787 73.3691 86.3037V90.2238C73.3691 92.1305 74.9201 93.6816 76.8269 93.6816H95.6234C97.53 93.6816 99.0812 92.1306 99.0812 90.2238V86.3037C99.0812 85.002 98.8699 83.7223 98.4527 82.5002C98.1906 81.7324 97.3554 81.3227 96.5894 81.5848ZM86.1283 68.8778C89.257 68.8778 91.8025 71.4231 91.8025 74.552C91.8025 77.6809 89.2572 80.2262 86.1283 80.2262C82.9998 80.2262 80.4543 77.6809 80.4543 74.552C80.4543 71.4231 82.9998 68.8778 86.1283 68.8778Z" fill="black"/>
<path d="M24.1387 81.5848C23.3713 81.8467 22.9618 82.6807 23.2237 83.4481C23.5364 84.3641 23.6948 85.3248 23.6948 86.3035V90.2236C23.6948 90.5117 23.4606 90.7459 23.1725 90.7459H4.37607C4.08798 90.7459 3.8538 90.5117 3.8538 90.2236V86.3035C3.8538 83.7789 4.93798 81.3871 6.79657 79.7203C8.36903 81.8086 10.868 83.1617 13.6776 83.1617C18.4249 83.1617 22.2872 79.2994 22.2872 74.5522C22.2872 69.8049 18.4249 65.9426 13.6776 65.9426C8.93036 65.9426 5.06825 69.8049 5.06825 74.5522C5.06825 75.4157 5.19736 76.249 5.43505 77.036C2.59677 79.261 0.918457 82.6787 0.918457 86.3037V90.2238C0.918457 92.1305 2.46963 93.6816 4.37626 93.6816H23.1727C25.0793 93.6816 26.6305 92.1306 26.6305 90.2238V86.3037C26.6305 85.002 26.4192 83.7223 26.002 82.5002C25.7397 81.7324 24.9043 81.3227 24.1387 81.5848ZM13.6778 68.8778C16.8065 68.8778 19.352 71.4231 19.352 74.552C19.352 77.6809 16.8067 80.2262 13.6778 80.2262C10.5493 80.2262 8.0038 77.6809 8.0038 74.552C8.0038 71.4231 10.5489 68.8778 13.6778 68.8778Z" fill="black"/>
<path d="M63.8826 33.8212H48.2643C41.5155 33.8212 35.9007 38.7579 34.8345 45.2095H34.3016C28.214 45.2095 23.2612 50.3026 23.2612 56.563C23.2612 60.9733 25.7032 64.9231 29.5366 66.8047C31.4208 71.3688 37.2995 73.5579 37.5598 73.6526C37.7239 73.7125 37.8938 73.7415 38.0622 73.7415C38.4635 73.7415 38.8563 73.5764 39.1393 73.271C39.5409 72.8374 39.6432 72.2051 39.3989 71.667C38.8081 70.3659 38.4759 69.1092 38.4055 67.9163H46.6094C51.1471 67.9163 55.0526 65.0856 56.7479 61.0518H59.0848C59.0436 62.6591 58.6075 64.3579 57.7817 66.1196C57.5307 66.6551 57.6256 67.2893 58.0225 67.7276C58.3059 68.0405 58.7035 68.2102 59.1108 68.2102C59.2744 68.2102 59.4393 68.1829 59.5991 68.1264C59.925 68.0114 67.3342 65.3395 69.608 59.7899C74.4229 57.5628 77.498 52.7839 77.498 47.4366C77.498 39.929 71.3902 33.8212 63.8826 33.8212ZM67.8957 57.3339C67.4983 57.4954 67.1873 57.8169 67.0565 58.2255C66.2328 60.797 63.7256 62.7112 61.6571 63.9057C62.0125 62.3757 62.1102 60.879 61.9471 59.4296C61.8631 58.6837 61.2381 58.1163 60.4875 58.1163H48.2645C46.859 58.1163 45.5172 57.8417 44.2874 57.3454C43.7428 57.1257 43.1208 57.2454 42.7055 57.6606L42.6846 57.6815C41.9465 58.4196 42.2046 59.669 43.1721 60.0614C44.7458 60.6993 46.4645 61.0516 48.2643 61.0516H53.4604C52.0231 63.4104 49.4899 64.9805 46.609 64.9805H36.9768C36.2327 64.9805 35.601 65.5378 35.519 66.2774C35.4079 67.2801 35.4419 68.309 35.6198 69.3585C34.195 68.4178 32.6741 67.0587 32.1151 65.3182C31.9796 64.896 31.6804 64.5417 31.2714 64.3704C28.1882 63.078 26.1962 60.0132 26.1962 56.563C26.1962 51.9214 29.8319 48.145 34.3012 48.145H34.6677C34.7468 49.6792 35.0817 51.1466 35.63 52.5062C36.0214 53.477 37.2718 53.7397 38.012 52.9995C38.0192 52.9923 38.0264 52.9851 38.0335 52.978C38.4469 52.5645 38.569 51.945 38.3509 51.4024C37.8298 50.1065 37.5544 48.6864 37.587 47.1987C37.7153 41.3693 42.5844 36.757 48.4153 36.757H63.7029C69.5965 36.757 74.5809 41.578 74.5623 47.4714C74.5486 51.8255 71.9348 55.6942 67.8957 57.3339Z" fill="black"/>
</g>

</symbol><symbol id="shopping-cart" viewBox="0 0 70 71">
<path d="M54.3595 53.0862C57.7954 53.0862 60.5818 55.8726 60.5818 59.3085C60.5818 62.7444 57.7954 65.5308 54.3595 65.5308C50.9236 65.5308 48.1372 62.7444 48.1372 59.3085C48.1543 55.8726 50.9236 53.0862 54.3595 53.0862Z" fill="#E30613"/>
<path d="M27.795 53.0862C31.231 53.0862 34.0173 55.8726 34.0173 59.3085C34.0173 62.7444 31.231 65.5308 27.795 65.5308C24.3591 65.5308 21.5728 62.7444 21.5728 59.3085C21.5728 55.8726 24.3591 53.0862 27.795 53.0862Z" fill="#E30613"/>
<path d="M54.3594 51.3768C49.9833 51.3768 46.4277 54.9324 46.4277 59.3085C46.4277 63.6846 49.9833 67.2402 54.3594 67.2402C58.7355 67.2402 62.2911 63.6846 62.2911 59.3085C62.3082 54.9324 58.7355 51.3768 54.3594 51.3768ZM54.3594 63.8213C51.8637 63.8213 49.8466 61.8042 49.8466 59.3085C49.8466 56.8127 51.8637 54.7956 54.3594 54.7956C56.8552 54.7956 58.8723 56.8127 58.8723 59.3085C58.8894 61.8042 56.8552 63.8213 54.3594 63.8213Z" fill="black"/>
<path d="M68.3084 12.8123H15.1625L14.7181 10.6072C13.8976 6.33361 10.1027 3.23956 5.69236 3.23956H1.70942C0.769238 3.23956 0 4.0088 0 4.94898C0 5.88916 0.769238 6.6584 1.70942 6.6584H5.67527C8.49581 6.6584 10.8206 8.52167 11.3505 11.2396L17.7438 43.3596C18.3762 46.5562 21.1968 48.881 24.4447 48.881H57.5732C60.8211 48.881 63.6416 46.522 64.2741 43.3425L69.9665 14.8294C70.0691 14.3337 69.9323 13.8209 69.6075 13.4277C69.2998 13.0345 68.8041 12.8123 68.3084 12.8123ZM65.2143 21.1885H56.8211L57.4365 16.2311H66.2058L65.2143 21.1885ZM43.0432 21.1885V16.2311H54.0005L53.3851 21.1885H43.0432ZM52.9578 24.6073L52.3766 29.2227H43.0432V24.6073H52.9578ZM39.6243 21.1885H29.2994L28.684 16.2311H39.6243V21.1885ZM39.6243 24.6073V29.2227H30.308L29.7268 24.6073H39.6243ZM26.8721 29.2227H18.4446L17.5215 24.6073H26.2909L26.8721 29.2227ZM19.1113 32.6416H27.2823L27.8464 37.257H20.0173L19.1113 32.6416ZM30.7353 32.6416H39.6243V37.257H31.2995L30.7353 32.6416ZM39.6243 40.6758V45.4622H32.308L31.7268 40.6758H39.6243ZM43.0432 40.6758H50.9578L50.3766 45.4622H43.0432V40.6758ZM43.0432 37.257V32.6416H51.9492L51.3851 37.257H43.0432ZM55.4023 32.6416H62.9237L62.0006 37.257H54.8381L55.4023 32.6416ZM55.8296 29.2227L56.4108 24.6073H64.5476L63.6075 29.2227H55.8296ZM25.2481 16.2311L25.8635 21.1885H16.8378L15.8463 16.2311H25.2481ZM21.0942 42.6587L20.7182 40.6758H28.2909L28.8721 45.4622H24.4447C22.8207 45.4622 21.419 44.2485 21.0942 42.6587ZM57.5732 45.4622H53.8125L54.3937 40.6758H61.2997L60.9066 42.6587C60.5989 44.2485 59.1972 45.4622 57.5732 45.4622Z" fill="black"/>
<path d="M27.795 51.3768C23.4189 51.3768 19.8633 54.9324 19.8633 59.3085C19.8633 63.6846 23.4189 67.2402 27.795 67.2402C32.1711 67.2402 35.7267 63.6846 35.7267 59.3085C35.7267 54.9324 32.1711 51.3768 27.795 51.3768ZM27.795 63.8213C25.2992 63.8213 23.2821 61.8042 23.2821 59.3085C23.2821 56.8127 25.2992 54.7956 27.795 54.7956C30.2907 54.7956 32.3079 56.8127 32.3079 59.3085C32.3079 61.8042 30.2907 63.8213 27.795 63.8213Z" fill="black"/>
</symbol><symbol id="suitcases" viewBox="0 0 101 101">
<g clip-path="url(#clip0)">
<path d="M99.2764 53.3586V87.5852C99.2764 90.5559 96.8682 92.9641 93.8975 92.9641H47.0381V47.9817H93.8975C96.8682 47.9817 99.2764 50.3899 99.2764 53.3586Z" fill="#F6F6F6"/>
<path d="M99.2764 53.3586V87.5852C99.2764 90.5559 96.8682 92.9641 93.8975 92.9641H47.0381V88.6672H88.8193C91.79 88.6672 94.1982 86.259 94.1982 83.2883V53.3586C94.1982 50.3899 91.79 47.9817 88.8193 47.9817H93.8975C96.8682 47.9817 99.2764 50.3899 99.2764 53.3586Z" fill="#F6F6F6"/>
<path d="M52.8975 77.9094H99.2764V84.6985H52.8975V77.9094Z" fill="#E30613"/>
<path d="M98.7764 78.4094V84.1985H94.6279C94.6746 83.9012 94.6982 83.5972 94.6982 83.2883V78.4094H98.7764Z" fill="#F6F6F6" stroke="#F6F6F6"/>
<path d="M11.0024 98.7766C9.66062 98.7766 8.57275 97.6888 8.57275 96.3469V93.4643H13.4321V96.3469C13.4321 97.6888 12.3443 98.7766 11.0024 98.7766Z" fill="#F6F6F6" stroke="#F6F6F6"/>
<path d="M49.5884 96.3469V93.4643H54.4478V96.3469C54.4478 97.6887 53.3599 98.7766 52.0181 98.7766C50.6762 98.7766 49.5884 97.6887 49.5884 96.3469Z" fill="#F6F6F6" stroke="#F6F6F6"/>
<path d="M88.5386 96.3469V93.4643H93.3979V96.3469C93.3979 97.6887 92.3101 98.7766 90.9683 98.7766C89.6264 98.7766 88.5386 97.6887 88.5386 96.3469Z" fill="#F6F6F6" stroke="#F6F6F6"/>
<path d="M60.8076 24.1243V87.5852C60.8076 90.5559 58.3994 92.9641 55.4287 92.9641H7.59277C4.62207 92.9641 2.21387 90.5559 2.21387 87.5852V24.1243C2.21387 21.1536 4.62207 18.7454 7.59277 18.7454H55.4287C58.3994 18.7454 60.8076 21.1536 60.8076 24.1243Z" fill="#F6F6F6"/>
<path d="M60.8076 24.1243V87.5852C60.8076 90.5559 58.3994 92.9641 55.4287 92.9641H7.59277C4.62207 92.9641 2.21387 90.5559 2.21387 87.5852V87.1047H49.5693C52.54 87.1047 54.9482 84.6965 54.9482 81.7258V24.1243C54.9482 21.1536 52.54 18.7454 49.5693 18.7454H55.4287C58.3994 18.7454 60.8076 21.1536 60.8076 24.1243Z" fill="#F6F6F6"/>
<path d="M8.07324 54.4875H54.9482V87.1047H8.07324V54.4875Z" fill="#E30613"/>
<path d="M22.2446 33.8799H40.7759V38.7393H22.2446V33.8799Z" fill="#F6F6F6" stroke="#F6F6F6"/>
<path d="M84.3057 56.5545V65.5389H77.2744V56.5545L80.79 52.9731L84.3057 56.5545Z" fill="#D8E5EF"/>
<path d="M55.4287 17.2807H43.8369V3.67114H46.2783C47.0873 3.67114 47.7432 3.01528 47.7432 2.2063C47.7432 1.39731 47.0873 0.741455 46.2783 0.741455H16.743C15.934 0.741455 15.2781 1.39731 15.2781 2.2063C15.2781 3.01528 15.934 3.67114 16.743 3.67114H19.1844V17.2807H7.59258C3.81894 17.2807 0.749023 20.3506 0.749023 24.1243V87.5854C0.749023 91.0248 3.29941 93.8797 6.6084 94.3584V96.3469C6.6084 98.7702 8.57969 100.741 11.0029 100.741C13.4262 100.741 15.3975 98.7702 15.3975 96.3469V94.4292H47.624V96.3469C47.624 98.7702 49.5953 100.741 52.0186 100.741C54.4418 100.741 56.4131 98.7702 56.4131 96.3469V94.3584C59.7221 93.8797 62.2725 91.0248 62.2725 87.5854V35.2754C62.2725 34.4665 61.6168 33.8106 60.8076 33.8106C59.9984 33.8106 59.3428 34.4665 59.3428 35.2754V87.5854C59.3428 89.7436 57.5871 91.4995 55.4289 91.4995H7.59258C5.43457 91.4995 3.67871 89.7436 3.67871 87.5854V24.1243C3.67871 21.9661 5.43457 20.2104 7.59258 20.2104H55.4287C57.5869 20.2104 59.3426 21.9661 59.3426 24.1243V28.4182C59.3426 29.2272 59.9982 29.8831 60.8074 29.8831C61.6166 29.8831 62.2723 29.2272 62.2723 28.4182V24.1243C62.2723 20.3506 59.2023 17.2807 55.4287 17.2807ZM53.4832 94.4292V96.3469C53.4832 97.1547 52.8262 97.8118 52.0184 97.8118C51.2107 97.8118 50.5535 97.1547 50.5535 96.3469V94.4292H53.4832ZM12.4678 94.4292V96.3469C12.4678 97.1547 11.8107 97.8118 11.0029 97.8118C10.1951 97.8118 9.53808 97.1547 9.53808 96.3469V94.4292H12.4678ZM22.1141 3.67114H40.9072V17.2807H22.1141V3.67114Z" fill="black"/>
<path d="M20.6261 88.5698H54.9478C55.7569 88.5698 56.4126 87.9139 56.4126 87.1049V54.4877C56.4126 53.6787 55.7569 53.0229 54.9478 53.0229H8.07275C7.26377 53.0229 6.60791 53.6787 6.60791 54.4877V87.1049C6.60791 87.9139 7.26377 88.5698 8.07275 88.5698H13.9321C14.7411 88.5698 15.397 87.9139 15.397 87.1049C15.397 86.2959 14.7411 85.6401 13.9321 85.6401H9.5376V55.9526H53.4829V85.6401H20.6261C19.8171 85.6401 19.1612 86.2959 19.1612 87.1049C19.1612 87.9139 19.8171 88.5698 20.6261 88.5698Z" fill="black"/>
<path d="M44.4009 67.9633C45.2099 67.9633 45.8657 67.3075 45.8657 66.4985V61.7405H49.0884C49.8974 61.7405 50.5532 61.0846 50.5532 60.2756C50.5532 59.4667 49.8974 58.8108 49.0884 58.8108H13.9321C13.1231 58.8108 12.4673 59.4667 12.4673 60.2756C12.4673 61.0846 13.1231 61.7405 13.9321 61.7405H42.936V66.4985C42.936 67.3075 43.5919 67.9633 44.4009 67.9633Z" fill="black"/>
<path d="M41.2759 40.7041C42.0849 40.7041 42.7407 40.0483 42.7407 39.2393V33.3799C42.7407 32.5709 42.0849 31.9151 41.2759 31.9151H21.7446C20.9356 31.9151 20.2798 32.5709 20.2798 33.3799V39.2393C20.2798 40.0483 20.9356 40.7041 21.7446 40.7041H41.2759ZM23.2095 34.8448H39.811V37.7744H23.2095V34.8448Z" fill="black"/>
<path d="M93.8976 46.5161H82.2547V40.9432C82.2547 38.3739 80.1644 36.2836 77.5951 36.2836H66.5695C65.7604 36.2836 65.1047 36.9395 65.1047 37.7485C65.1047 38.5575 65.7604 39.2133 66.5695 39.2133H77.5951C78.549 39.2133 79.325 39.9895 79.325 40.9432V46.5161H66.5693C65.7602 46.5161 65.1045 47.1719 65.1045 47.9809C65.1045 48.7899 65.7602 49.4457 66.5693 49.4457H79.325V52.3743L76.2287 55.5284C75.96 55.8022 75.8094 56.1707 75.8094 56.5545V65.5389C75.8094 66.3479 76.465 67.0037 77.2742 67.0037H84.3055C85.1146 67.0037 85.7703 66.3479 85.7703 65.5389V56.5545C85.7703 56.1707 85.6197 55.8022 85.351 55.5284L82.2547 52.3743V49.4457H93.8976C96.0559 49.4457 97.8117 51.2014 97.8117 53.3596V76.4444H92.8281C92.0189 76.4444 91.3633 77.1002 91.3633 77.9092C91.3633 78.7182 92.0189 79.3741 92.8281 79.3741H97.8117V83.2342H66.5693C65.7602 83.2342 65.1045 83.8901 65.1045 84.6991C65.1045 85.508 65.7602 86.1639 66.5693 86.1639H97.8117V87.5856C97.8117 89.7438 96.0559 91.4996 93.8976 91.4996H66.5693C65.7602 91.4996 65.1045 92.1555 65.1045 92.9645C65.1045 93.7735 65.7602 94.4293 66.5693 94.4293H86.5734V96.3471C86.5734 98.7703 88.5449 100.742 90.968 100.742C93.391 100.742 95.3625 98.7703 95.3625 96.3471V94.2715C98.4348 93.5991 100.741 90.8567 100.741 87.5856V53.3596C100.741 49.586 97.6713 46.5161 93.8976 46.5161ZM82.8406 64.0741H78.7391V57.1534L80.7898 55.0643L82.8406 57.1534V64.0741ZM92.4328 96.3469C92.4328 97.1547 91.7758 97.8117 90.968 97.8117C90.1602 97.8117 89.5031 97.1547 89.5031 96.3469V94.4291H92.4328V96.3469Z" fill="black"/>
<path d="M66.5693 79.3741H86.059C86.8682 79.3741 87.5238 78.7182 87.5238 77.9092C87.5238 77.1003 86.8682 76.4444 86.059 76.4444H66.5693C65.7602 76.4444 65.1045 77.1003 65.1045 77.9092C65.1045 78.7182 65.7604 79.3741 66.5693 79.3741Z" fill="black"/>
</g>

</symbol><symbol id="tap" viewBox="0 0 100 101">
<g clip-path="url(#clip0)">
<path d="M65.2796 44.3303C62.262 48.4163 57.9062 50.9426 53.2585 51.7489C48.3292 52.6059 43.0691 51.5278 38.7347 48.3284C30.3144 42.1114 28.5198 30.204 34.7368 21.7834C39.1515 15.8032 46.437 13.1655 53.3056 14.3649C56.1077 14.8541 58.8415 15.9833 61.2818 17.7854C69.7021 24.0024 71.4966 35.9098 65.2796 44.3303Z" fill="#E30613"/>
<path d="M65.2793 44.3303C62.2617 48.4162 57.9059 50.9426 53.2582 51.7488C50.4561 51.2596 47.7223 50.1305 45.2821 48.3283C36.8617 42.1113 35.0672 30.2039 41.2842 21.7834C44.2998 17.6975 48.6557 15.1711 53.3053 14.3649C56.1074 14.8541 58.8412 15.9832 61.2815 17.7854C69.7018 24.0024 71.4963 35.9098 65.2793 44.3303Z" fill="#E30613"/>
<path d="M61.9778 36.3815C60.7646 40.7512 57.3636 43.9233 53.2855 45.0407C51.1937 45.6161 48.9255 45.6493 46.6829 45.027C40.0706 43.1915 36.1999 36.3424 38.0374 29.7321C39.8671 23.1374 46.6849 19.2708 53.2775 21.0729C53.295 21.0768 53.3146 21.0807 53.3323 21.0866C59.9446 22.9221 63.8153 29.7712 61.9778 36.3815Z" fill="#E30613"/>
<path d="M61.9782 36.3815C60.7649 40.7512 57.3639 43.9233 53.2858 45.0407C53.2682 45.0368 53.2487 45.0329 53.2309 45.027C46.6186 43.1915 42.7479 36.3424 44.5835 29.7321C45.7987 25.3624 49.2016 22.1903 53.2778 21.0729C53.2954 21.0768 53.3149 21.0807 53.3327 21.0866C59.945 22.9221 63.8157 29.7711 61.9782 36.3815Z" fill="#E30613"/>
<path d="M74.8915 63.9753V81.9491C74.8915 84.4618 72.8349 86.5165 70.3222 86.5165H49.2919C46.7792 86.5165 44.7226 84.4618 44.7226 81.9491V77.7848C44.7226 77.3817 44.5425 77.0001 44.2314 76.7438L33.6095 68.0024C31.4413 66.2159 31.0616 62.9262 32.8757 60.7815C34.6447 58.6897 37.8011 58.4001 39.9243 60.1456L42.5349 62.2354C42.7913 62.4409 43.0847 62.5329 43.3704 62.5329C44.0671 62.5329 44.7226 61.985 44.7226 61.1846C44.7226 61.079 44.7284 60.9753 44.7343 60.8735C44.7284 60.7698 44.7226 60.6661 44.7226 60.5604V36.994C44.7226 34.0587 47.2431 31.6831 50.2273 31.9237C50.4191 31.9393 50.607 31.9647 50.7908 32.004C53.1644 32.4698 54.8982 34.6223 54.8982 37.0977V59.4079H70.3222C72.8349 59.4079 74.8915 61.4626 74.8915 63.9753Z" fill="#F6F6F6"/>
<path d="M74.8915 80.8694V81.9491C74.8915 84.4612 72.8363 86.5165 70.3242 86.5165H49.2919C46.7786 86.5165 44.7226 84.4602 44.7226 81.9471V77.7848C44.7226 77.3817 44.5425 77.0001 44.2314 76.7438L33.6095 68.0024C31.4413 66.2159 31.0616 62.9262 32.8757 60.7815C34.6447 58.6897 37.8011 58.4001 39.9243 60.1456L42.5349 62.2354C42.7913 62.4409 43.0847 62.5329 43.3704 62.5329C44.0671 62.5329 44.7226 61.985 44.7226 61.1846C44.7226 61.079 44.7284 60.9753 44.7343 60.8735C44.7284 60.7698 44.7226 60.6661 44.7226 60.5604V36.994C44.7226 34.0587 47.2431 31.6831 50.2273 31.9237C50.4191 31.9393 50.607 31.9647 50.7908 32.004V76.4993C50.7908 78.913 52.7474 80.8696 55.1611 80.8696H74.8915V80.8694Z" fill="#F6F6F6"/>
<path d="M73.8488 89.4243V96.7391C73.8488 98.0913 72.7529 99.1871 71.4027 99.1871H47.5818C46.2316 99.1871 45.1357 98.0913 45.1357 96.7391V89.211C45.1357 87.62 46.4371 86.3168 48.0299 86.3168H70.7412C72.4496 86.3168 73.8488 87.7161 73.8488 89.4243Z" fill="#F6F6F6"/>
<path d="M73.8483 89.4243V96.7391C73.8483 98.0913 72.7524 99.1871 71.4022 99.1871H55.7278C54.3776 99.1871 53.2817 98.0913 53.2817 96.7391V89.211C53.2817 87.62 54.5851 86.3168 56.1759 86.3168H70.7409C72.4491 86.3168 73.8483 87.7161 73.8483 89.4243Z" fill="#F6F6F6"/>
<path d="M70.5754 57.8317H56.7168V52.5461C66.6678 49.276 72.6326 38.9313 70.3014 28.551C70.1135 27.7077 69.276 27.1754 68.4326 27.3651C67.5893 27.553 67.057 28.3905 67.2467 29.2338C69.149 37.728 64.5283 46.1202 56.7168 49.2174V45.4504C60.0729 43.6971 62.6793 40.6073 63.74 36.7893C66.2277 27.8391 59.4381 19.0522 50.2533 19.0522C42.4082 19.0522 36.042 25.5862 36.2734 33.4508C36.2988 34.3157 37.0248 34.9948 37.884 34.9694C38.7488 34.944 39.4279 34.2239 39.4025 33.3588C39.257 25.8 46.3242 20.6854 53.1672 22.5823C61.891 25.0055 63.943 36.4186 56.717 41.7694V37.0866C56.717 33.5858 54.0322 30.6289 50.6057 30.351C46.7123 30.0412 43.4104 33.1338 43.4104 36.9829V41.4797C42.334 40.6049 41.4262 39.519 40.7373 38.2627C40.3225 37.5055 39.3715 37.2276 38.6121 37.6424C37.8549 38.0592 37.577 39.0102 37.9918 39.7676C39.2736 42.1061 41.1443 43.9846 43.4104 45.2489V49.0549C32.8414 44.542 29.4217 31.0323 36.7609 22.0444C37.3049 21.3731 37.2051 20.387 36.534 19.8409C35.8627 19.295 34.8766 19.3967 34.3324 20.0678C25.3924 30.9672 29.9963 47.6772 43.4104 52.4149V60.7166L41.1639 58.9194C36.6957 55.2547 29.9117 58.728 30.4344 64.5746C30.5969 66.375 31.4832 68.0598 32.8688 69.1987L43.4104 77.8754V81.9379C43.4104 83.6231 44.094 85.1514 45.1982 86.261C44.3559 87.1129 43.8227 88.2999 43.8227 89.5899V96.7473C43.8227 98.9495 45.6143 100.741 47.8164 100.741H71.674C73.8764 100.741 75.6678 98.9495 75.6678 96.7473V89.5899C75.6678 88.4534 75.2535 87.3971 74.5791 86.5791C75.8828 85.4536 76.7102 83.7913 76.7102 81.9381V63.9643C76.7102 60.583 73.9588 57.8317 70.5754 57.8317ZM72.5367 96.7477C72.5367 97.2235 72.1496 97.6104 71.674 97.6104H47.816C47.34 97.6104 46.9533 97.2233 46.9533 96.7477V89.5903C46.9533 88.8094 47.5887 88.0713 48.2609 88.0713H71.2295C71.9018 88.0713 72.5371 88.8094 72.5371 89.5903V96.7477H72.5367ZM73.5791 81.9383C73.5791 83.5938 72.2309 84.9401 70.5754 84.9401H49.5449C47.8895 84.9401 46.5412 83.5938 46.5412 81.9383V77.7741C46.5412 76.8993 46.1557 76.0813 45.4807 75.5256L34.8588 66.7823C34.1172 66.1717 33.6416 65.2657 33.5535 64.2932C33.2752 61.2143 36.8432 59.4194 39.1815 61.3442C39.4102 61.4973 38.4176 60.7317 41.8096 63.4479C42.6922 64.1524 43.8721 64.2873 44.8916 63.7981C45.9092 63.3088 46.5412 62.303 46.5412 61.1739C46.5412 40.1323 46.5412 60.6258 46.5412 36.983C46.5412 36.0084 46.958 35.0653 47.682 34.3961C49.9703 32.2852 53.5859 33.9698 53.5859 37.0868C53.5859 42.4928 53.5859 53.9909 53.5859 59.3969C53.5859 60.2598 54.2865 60.9623 55.1514 60.9623H70.5754C72.2309 60.9623 73.5791 62.3086 73.5791 63.9641V81.9383Z" fill="black"/>
<path d="M40.7464 18.4575C49.1087 13.0155 60.3041 15.7088 65.2855 24.2401C65.5771 24.7372 66.1015 25.0151 66.6396 25.0151C67.8385 25.0151 68.6015 23.7059 67.9898 22.661C62.0392 12.4649 48.7929 9.4897 39.038 15.8334C38.314 16.3051 38.1085 17.2737 38.5802 17.9997C39.0517 18.7239 40.0205 18.9292 40.7464 18.4575Z" fill="black"/>
<path d="M50.2612 9.74302C51.1257 9.74302 51.8267 9.04204 51.8267 8.17759V2.30688C51.8267 1.44243 51.1257 0.741455 50.2612 0.741455C49.3968 0.741455 48.6958 1.44243 48.6958 2.30688V8.17739C48.6958 9.04204 49.3968 9.74302 50.2612 9.74302Z" fill="black"/>
<path d="M32.8307 16.7469C34.2123 16.7469 34.9275 15.0643 33.9377 14.0745L29.7863 9.92329C29.1748 9.31177 28.1838 9.31196 27.5723 9.92329C26.9609 10.5346 26.9609 11.5258 27.5723 12.1372C31.6443 16.0012 31.7041 16.7469 32.8307 16.7469Z" fill="black"/>
<path d="M25.4574 30.8934H19.5869C18.7225 30.8934 18.0215 31.5944 18.0215 32.4588C18.0215 33.3233 18.7225 34.0243 19.5869 34.0243H25.4574C26.3219 34.0243 27.0228 33.3233 27.0228 32.4588C27.023 31.5944 26.3221 30.8934 25.4574 30.8934Z" fill="black"/>
<path d="M33.5684 48.7825C32.9568 48.1711 31.9658 48.1711 31.3543 48.7825L27.2031 52.9336C26.5918 53.545 26.5918 54.5362 27.2031 55.1475C27.8148 55.759 28.8057 55.7588 29.4172 55.1475L33.5684 50.9963C34.1797 50.3852 34.1797 49.394 33.5684 48.7825Z" fill="black"/>
<path d="M68.2766 49.1516C67.6652 48.5403 66.6742 48.5401 66.0625 49.1516C65.4512 49.763 65.4512 50.7542 66.0625 51.3655C70.1344 55.2297 70.1939 55.9753 71.3205 55.9753C72.7021 55.9753 73.4174 54.2926 72.4275 53.3028L68.2766 49.1516Z" fill="black"/>
<path d="M80.413 31.4153H74.5425C73.678 31.4153 72.9771 32.1163 72.9771 32.9807C72.9771 33.8452 73.678 34.5461 74.5425 34.5461H80.413C81.2774 34.5461 81.9784 33.8452 81.9784 32.9807C81.9784 32.1163 81.2776 31.4153 80.413 31.4153Z" fill="black"/>
<path d="M68.6457 16.6573L72.7971 12.5061C73.4084 11.8948 73.4084 10.9036 72.7971 10.2922C72.1857 9.68092 71.1947 9.68073 70.583 10.2922L66.4316 14.4434C65.8203 15.0547 65.8203 16.046 66.4316 16.6573C67.043 17.2686 68.0342 17.2688 68.6457 16.6573Z" fill="black"/>
</g>

</symbol><symbol id="trade" viewBox="0 0 87 89">
<g clip-path="url(#clip0)">
<path d="M63.7989 37.0834H23.1997V60.0975H37.1558L55.0759 62.7862L59.0425 70.3595L63.7989 68.8968V37.0834Z" fill="#E30613"/>
<path d="M70.3237 45.9832H63.7988V43.0166H70.3236C73.1264 43.0166 75.3985 40.6922 75.3985 37.8251C75.3985 34.958 73.1263 32.6335 70.3236 32.6335H39.1493C33.5437 32.6335 28.9995 27.9849 28.9995 22.2505C28.9995 16.516 33.5437 11.8674 39.1493 11.8674H52.1991V14.8339H39.1493C35.1459 14.8339 31.8994 18.1551 31.8994 22.2505C31.8994 26.3458 35.1459 29.667 39.1493 29.667H70.3237C74.7288 29.667 78.2987 33.3189 78.2987 37.8252C78.2987 42.3316 74.7288 45.9832 70.3237 45.9832Z" fill="#4398D1"/>
<path d="M56.549 74.1661H40.5994C39.799 74.1661 39.1494 73.5015 39.1494 72.6828C39.1494 71.8641 39.799 71.1995 40.5994 71.1995H56.549C57.3494 71.1995 57.999 71.8641 57.999 72.6828C57.9992 73.5015 57.3495 74.1661 56.549 74.1661Z" fill="#F5B789"/>
<path d="M10.1499 81.5826C11.7514 81.5826 13.0498 80.2545 13.0498 78.6161C13.0498 76.9777 11.7514 75.6495 10.1499 75.6495C8.54832 75.6495 7.25 76.9777 7.25 78.6161C7.25 80.2545 8.54832 81.5826 10.1499 81.5826Z" fill="#E30613"/>
<path d="M14.4998 78.6161C14.4998 76.1581 12.5525 74.1661 10.1498 74.1661C7.74711 74.1661 5.7998 76.1581 5.7998 78.6161C5.7998 81.0738 7.74711 83.066 10.1498 83.066C12.5525 83.066 14.4998 81.0738 14.4998 78.6161ZM8.69986 78.6161C8.69986 77.7973 9.34947 77.1328 10.1498 77.1328C10.9501 77.1328 11.5997 77.7973 11.5997 78.6161C11.5997 79.4348 10.9501 80.0993 10.1498 80.0993C9.34947 80.0993 8.69986 79.4364 8.69986 78.6161Z" fill="black"/>
<path d="M85.5484 0.00189209H53.649C53.1922 0.00189209 52.763 0.221437 52.4889 0.595166L44.2241 11.8682H39.1492C33.5437 11.8682 28.9995 16.5169 28.9995 22.2513C28.9995 27.9857 33.5437 32.6344 39.1492 32.6344H70.3237C73.1266 32.6344 75.3986 34.9588 75.3986 37.8259C75.3986 40.6931 73.1264 43.0175 70.3237 43.0175H65.2489V37.0842C65.2489 36.2655 64.5992 35.6009 63.7989 35.6009H23.1996C22.3992 35.6009 21.7496 36.2655 21.7496 37.0842V59.3338C20.6259 59.7359 19.5355 60.2313 18.4915 60.8171H0V63.7836H17.3996V86.0336H0V89.0001H54.9424C56.2561 89.0001 57.5466 88.6337 58.6732 87.9426L83.5968 72.6452C86.9144 70.61 87.9917 66.2077 86.0009 62.8139C84.7351 60.6556 82.4543 59.334 79.9936 59.334H79.6878C78.5379 59.334 77.4069 59.6248 76.392 60.1765L65.2489 66.2567V45.9842H70.3237C74.7288 45.9842 78.2987 42.3323 78.2987 37.8259C78.2987 33.3196 74.7288 29.6677 70.3237 29.6677H39.1492C35.1459 29.6677 31.8994 26.3465 31.8994 22.2512C31.8994 18.1558 35.1459 14.8346 39.1492 14.8346H44.2241L52.4889 26.1077C52.763 26.4814 53.1922 26.701 53.649 26.701H85.5484C86.3487 26.701 86.9983 26.0364 86.9983 25.2177V1.48516C86.9983 0.666262 86.3489 0.00189209 85.5484 0.00189209ZM40.5992 38.5678H46.3991V44.5009H40.5992V38.5678ZM24.6495 38.5678H37.6993V45.9844C37.6993 46.8031 38.3489 47.4676 39.1492 47.4676H47.8491C48.6494 47.4676 49.299 46.8031 49.299 45.9844V38.5678H62.3488V67.8378L59.9738 69.1327C60.8598 65.5595 58.7456 61.9282 55.2527 61.022C54.7292 60.887 54.1898 60.8173 53.649 60.8173H39.5277C34.9863 58.2853 29.7186 57.4695 24.6495 58.5151V38.5678ZM77.7563 62.7946C78.3508 62.4712 79.0134 62.3005 79.6876 62.3005H79.9935C82.2612 62.3005 84.0983 64.1814 84.0983 66.4997C84.0983 67.9757 83.3414 69.3432 82.1046 70.1012L57.181 85.3986C56.5054 85.8139 55.731 86.0334 54.9423 86.0334H20.2997V63.1905C26.0228 60.1957 32.8346 60.3485 38.4244 63.5956C38.6463 63.7232 38.8956 63.7869 39.1494 63.784H53.6492C55.6515 63.784 57.2741 65.4439 57.2741 67.4923C57.2741 69.5406 55.6515 71.2005 53.6492 71.2005H40.5994C39.799 71.2005 39.1494 71.8651 39.1494 72.6838C39.1494 73.5025 39.799 74.1671 40.5994 74.1671H56.549C56.7868 74.1671 57.0218 74.1078 57.232 73.9936L77.7563 62.7946ZM84.0984 23.7348H54.374L47.8492 14.835H51.0159C51.8162 17.1519 54.3015 18.3668 56.5664 17.5465C58.8313 16.7278 60.0188 14.1854 59.217 11.8684C58.4166 9.55147 55.9314 8.33659 53.6665 9.15688C52.4283 9.60483 51.4538 10.6016 51.0159 11.8684H47.8492L54.374 2.96861H84.0984V23.7348ZM53.649 13.3515C53.649 12.5328 54.2986 11.8682 55.0989 11.8682C55.8993 11.8682 56.5489 12.5328 56.5489 13.3515C56.5489 14.1702 55.8993 14.8348 55.0989 14.8348C54.2986 14.8348 53.649 14.1718 53.649 13.3515Z" fill="black"/>
</g>

</symbol></svg>