<svg width="101" height="101" viewBox="0 0 101 101" fill="none" xmlns="http://www.w3.org/2000/svg">
<g clip-path="url(#clip0)">
<path d="M99.2764 53.3586V87.5852C99.2764 90.5559 96.8682 92.9641 93.8975 92.9641H47.0381V47.9817H93.8975C96.8682 47.9817 99.2764 50.3899 99.2764 53.3586Z" fill="#F6F6F6"/>
<path d="M99.2764 53.3586V87.5852C99.2764 90.5559 96.8682 92.9641 93.8975 92.9641H47.0381V88.6672H88.8193C91.79 88.6672 94.1982 86.259 94.1982 83.2883V53.3586C94.1982 50.3899 91.79 47.9817 88.8193 47.9817H93.8975C96.8682 47.9817 99.2764 50.3899 99.2764 53.3586Z" fill="#F6F6F6"/>
<path d="M52.8975 77.9094H99.2764V84.6985H52.8975V77.9094Z" fill="#E30613"/>
<path d="M98.7764 78.4094V84.1985H94.6279C94.6746 83.9012 94.6982 83.5972 94.6982 83.2883V78.4094H98.7764Z" fill="#F6F6F6" stroke="#F6F6F6"/>
<path d="M11.0024 98.7766C9.66062 98.7766 8.57275 97.6888 8.57275 96.3469V93.4643H13.4321V96.3469C13.4321 97.6888 12.3443 98.7766 11.0024 98.7766Z" fill="#F6F6F6" stroke="#F6F6F6"/>
<path d="M49.5884 96.3469V93.4643H54.4478V96.3469C54.4478 97.6887 53.3599 98.7766 52.0181 98.7766C50.6762 98.7766 49.5884 97.6887 49.5884 96.3469Z" fill="#F6F6F6" stroke="#F6F6F6"/>
<path d="M88.5386 96.3469V93.4643H93.3979V96.3469C93.3979 97.6887 92.3101 98.7766 90.9683 98.7766C89.6264 98.7766 88.5386 97.6887 88.5386 96.3469Z" fill="#F6F6F6" stroke="#F6F6F6"/>
<path d="M60.8076 24.1243V87.5852C60.8076 90.5559 58.3994 92.9641 55.4287 92.9641H7.59277C4.62207 92.9641 2.21387 90.5559 2.21387 87.5852V24.1243C2.21387 21.1536 4.62207 18.7454 7.59277 18.7454H55.4287C58.3994 18.7454 60.8076 21.1536 60.8076 24.1243Z" fill="#F6F6F6"/>
<path d="M60.8076 24.1243V87.5852C60.8076 90.5559 58.3994 92.9641 55.4287 92.9641H7.59277C4.62207 92.9641 2.21387 90.5559 2.21387 87.5852V87.1047H49.5693C52.54 87.1047 54.9482 84.6965 54.9482 81.7258V24.1243C54.9482 21.1536 52.54 18.7454 49.5693 18.7454H55.4287C58.3994 18.7454 60.8076 21.1536 60.8076 24.1243Z" fill="#F6F6F6"/>
<path d="M8.07324 54.4875H54.9482V87.1047H8.07324V54.4875Z" fill="#E30613"/>
<path d="M22.2446 33.8799H40.7759V38.7393H22.2446V33.8799Z" fill="#F6F6F6" stroke="#F6F6F6"/>
<path d="M84.3057 56.5545V65.5389H77.2744V56.5545L80.79 52.9731L84.3057 56.5545Z" fill="#D8E5EF"/>
<path d="M55.4287 17.2807H43.8369V3.67114H46.2783C47.0873 3.67114 47.7432 3.01528 47.7432 2.2063C47.7432 1.39731 47.0873 0.741455 46.2783 0.741455H16.743C15.934 0.741455 15.2781 1.39731 15.2781 2.2063C15.2781 3.01528 15.934 3.67114 16.743 3.67114H19.1844V17.2807H7.59258C3.81894 17.2807 0.749023 20.3506 0.749023 24.1243V87.5854C0.749023 91.0248 3.29941 93.8797 6.6084 94.3584V96.3469C6.6084 98.7702 8.57969 100.741 11.0029 100.741C13.4262 100.741 15.3975 98.7702 15.3975 96.3469V94.4292H47.624V96.3469C47.624 98.7702 49.5953 100.741 52.0186 100.741C54.4418 100.741 56.4131 98.7702 56.4131 96.3469V94.3584C59.7221 93.8797 62.2725 91.0248 62.2725 87.5854V35.2754C62.2725 34.4665 61.6168 33.8106 60.8076 33.8106C59.9984 33.8106 59.3428 34.4665 59.3428 35.2754V87.5854C59.3428 89.7436 57.5871 91.4995 55.4289 91.4995H7.59258C5.43457 91.4995 3.67871 89.7436 3.67871 87.5854V24.1243C3.67871 21.9661 5.43457 20.2104 7.59258 20.2104H55.4287C57.5869 20.2104 59.3426 21.9661 59.3426 24.1243V28.4182C59.3426 29.2272 59.9982 29.8831 60.8074 29.8831C61.6166 29.8831 62.2723 29.2272 62.2723 28.4182V24.1243C62.2723 20.3506 59.2023 17.2807 55.4287 17.2807ZM53.4832 94.4292V96.3469C53.4832 97.1547 52.8262 97.8118 52.0184 97.8118C51.2107 97.8118 50.5535 97.1547 50.5535 96.3469V94.4292H53.4832ZM12.4678 94.4292V96.3469C12.4678 97.1547 11.8107 97.8118 11.0029 97.8118C10.1951 97.8118 9.53808 97.1547 9.53808 96.3469V94.4292H12.4678ZM22.1141 3.67114H40.9072V17.2807H22.1141V3.67114Z" fill="black"/>
<path d="M20.6261 88.5698H54.9478C55.7569 88.5698 56.4126 87.9139 56.4126 87.1049V54.4877C56.4126 53.6787 55.7569 53.0229 54.9478 53.0229H8.07275C7.26377 53.0229 6.60791 53.6787 6.60791 54.4877V87.1049C6.60791 87.9139 7.26377 88.5698 8.07275 88.5698H13.9321C14.7411 88.5698 15.397 87.9139 15.397 87.1049C15.397 86.2959 14.7411 85.6401 13.9321 85.6401H9.5376V55.9526H53.4829V85.6401H20.6261C19.8171 85.6401 19.1612 86.2959 19.1612 87.1049C19.1612 87.9139 19.8171 88.5698 20.6261 88.5698Z" fill="black"/>
<path d="M44.4009 67.9633C45.2099 67.9633 45.8657 67.3075 45.8657 66.4985V61.7405H49.0884C49.8974 61.7405 50.5532 61.0846 50.5532 60.2756C50.5532 59.4667 49.8974 58.8108 49.0884 58.8108H13.9321C13.1231 58.8108 12.4673 59.4667 12.4673 60.2756C12.4673 61.0846 13.1231 61.7405 13.9321 61.7405H42.936V66.4985C42.936 67.3075 43.5919 67.9633 44.4009 67.9633Z" fill="black"/>
<path d="M41.2759 40.7041C42.0849 40.7041 42.7407 40.0483 42.7407 39.2393V33.3799C42.7407 32.5709 42.0849 31.9151 41.2759 31.9151H21.7446C20.9356 31.9151 20.2798 32.5709 20.2798 33.3799V39.2393C20.2798 40.0483 20.9356 40.7041 21.7446 40.7041H41.2759ZM23.2095 34.8448H39.811V37.7744H23.2095V34.8448Z" fill="black"/>
<path d="M93.8976 46.5161H82.2547V40.9432C82.2547 38.3739 80.1644 36.2836 77.5951 36.2836H66.5695C65.7604 36.2836 65.1047 36.9395 65.1047 37.7485C65.1047 38.5575 65.7604 39.2133 66.5695 39.2133H77.5951C78.549 39.2133 79.325 39.9895 79.325 40.9432V46.5161H66.5693C65.7602 46.5161 65.1045 47.1719 65.1045 47.9809C65.1045 48.7899 65.7602 49.4457 66.5693 49.4457H79.325V52.3743L76.2287 55.5284C75.96 55.8022 75.8094 56.1707 75.8094 56.5545V65.5389C75.8094 66.3479 76.465 67.0037 77.2742 67.0037H84.3055C85.1146 67.0037 85.7703 66.3479 85.7703 65.5389V56.5545C85.7703 56.1707 85.6197 55.8022 85.351 55.5284L82.2547 52.3743V49.4457H93.8976C96.0559 49.4457 97.8117 51.2014 97.8117 53.3596V76.4444H92.8281C92.0189 76.4444 91.3633 77.1002 91.3633 77.9092C91.3633 78.7182 92.0189 79.3741 92.8281 79.3741H97.8117V83.2342H66.5693C65.7602 83.2342 65.1045 83.8901 65.1045 84.6991C65.1045 85.508 65.7602 86.1639 66.5693 86.1639H97.8117V87.5856C97.8117 89.7438 96.0559 91.4996 93.8976 91.4996H66.5693C65.7602 91.4996 65.1045 92.1555 65.1045 92.9645C65.1045 93.7735 65.7602 94.4293 66.5693 94.4293H86.5734V96.3471C86.5734 98.7703 88.5449 100.742 90.968 100.742C93.391 100.742 95.3625 98.7703 95.3625 96.3471V94.2715C98.4348 93.5991 100.741 90.8567 100.741 87.5856V53.3596C100.741 49.586 97.6713 46.5161 93.8976 46.5161ZM82.8406 64.0741H78.7391V57.1534L80.7898 55.0643L82.8406 57.1534V64.0741ZM92.4328 96.3469C92.4328 97.1547 91.7758 97.8117 90.968 97.8117C90.1602 97.8117 89.5031 97.1547 89.5031 96.3469V94.4291H92.4328V96.3469Z" fill="black"/>
<path d="M66.5693 79.3741H86.059C86.8682 79.3741 87.5238 78.7182 87.5238 77.9092C87.5238 77.1003 86.8682 76.4444 86.059 76.4444H66.5693C65.7602 76.4444 65.1045 77.1003 65.1045 77.9092C65.1045 78.7182 65.7604 79.3741 66.5693 79.3741Z" fill="black"/>
</g>
<defs>
<clipPath id="clip0">
<rect width="100" height="100" fill="white" transform="translate(0.745117 0.741455)"/>
</clipPath>
</defs>
</svg>
