<svg width="100" height="101" viewBox="0 0 100 101" fill="none" xmlns="http://www.w3.org/2000/svg">
<g clip-path="url(#clip0)">
<path d="M65.2796 44.3303C62.262 48.4163 57.9062 50.9426 53.2585 51.7489C48.3292 52.6059 43.0691 51.5278 38.7347 48.3284C30.3144 42.1114 28.5198 30.204 34.7368 21.7834C39.1515 15.8032 46.437 13.1655 53.3056 14.3649C56.1077 14.8541 58.8415 15.9833 61.2818 17.7854C69.7021 24.0024 71.4966 35.9098 65.2796 44.3303Z" fill="#E30613"/>
<path d="M65.2793 44.3303C62.2617 48.4162 57.9059 50.9426 53.2582 51.7488C50.4561 51.2596 47.7223 50.1305 45.2821 48.3283C36.8617 42.1113 35.0672 30.2039 41.2842 21.7834C44.2998 17.6975 48.6557 15.1711 53.3053 14.3649C56.1074 14.8541 58.8412 15.9832 61.2815 17.7854C69.7018 24.0024 71.4963 35.9098 65.2793 44.3303Z" fill="#E30613"/>
<path d="M61.9778 36.3815C60.7646 40.7512 57.3636 43.9233 53.2855 45.0407C51.1937 45.6161 48.9255 45.6493 46.6829 45.027C40.0706 43.1915 36.1999 36.3424 38.0374 29.7321C39.8671 23.1374 46.6849 19.2708 53.2775 21.0729C53.295 21.0768 53.3146 21.0807 53.3323 21.0866C59.9446 22.9221 63.8153 29.7712 61.9778 36.3815Z" fill="#E30613"/>
<path d="M61.9782 36.3815C60.7649 40.7512 57.3639 43.9233 53.2858 45.0407C53.2682 45.0368 53.2487 45.0329 53.2309 45.027C46.6186 43.1915 42.7479 36.3424 44.5835 29.7321C45.7987 25.3624 49.2016 22.1903 53.2778 21.0729C53.2954 21.0768 53.3149 21.0807 53.3327 21.0866C59.945 22.9221 63.8157 29.7711 61.9782 36.3815Z" fill="#E30613"/>
<path d="M74.8915 63.9753V81.9491C74.8915 84.4618 72.8349 86.5165 70.3222 86.5165H49.2919C46.7792 86.5165 44.7226 84.4618 44.7226 81.9491V77.7848C44.7226 77.3817 44.5425 77.0001 44.2314 76.7438L33.6095 68.0024C31.4413 66.2159 31.0616 62.9262 32.8757 60.7815C34.6447 58.6897 37.8011 58.4001 39.9243 60.1456L42.5349 62.2354C42.7913 62.4409 43.0847 62.5329 43.3704 62.5329C44.0671 62.5329 44.7226 61.985 44.7226 61.1846C44.7226 61.079 44.7284 60.9753 44.7343 60.8735C44.7284 60.7698 44.7226 60.6661 44.7226 60.5604V36.994C44.7226 34.0587 47.2431 31.6831 50.2273 31.9237C50.4191 31.9393 50.607 31.9647 50.7908 32.004C53.1644 32.4698 54.8982 34.6223 54.8982 37.0977V59.4079H70.3222C72.8349 59.4079 74.8915 61.4626 74.8915 63.9753Z" fill="#F6F6F6"/>
<path d="M74.8915 80.8694V81.9491C74.8915 84.4612 72.8363 86.5165 70.3242 86.5165H49.2919C46.7786 86.5165 44.7226 84.4602 44.7226 81.9471V77.7848C44.7226 77.3817 44.5425 77.0001 44.2314 76.7438L33.6095 68.0024C31.4413 66.2159 31.0616 62.9262 32.8757 60.7815C34.6447 58.6897 37.8011 58.4001 39.9243 60.1456L42.5349 62.2354C42.7913 62.4409 43.0847 62.5329 43.3704 62.5329C44.0671 62.5329 44.7226 61.985 44.7226 61.1846C44.7226 61.079 44.7284 60.9753 44.7343 60.8735C44.7284 60.7698 44.7226 60.6661 44.7226 60.5604V36.994C44.7226 34.0587 47.2431 31.6831 50.2273 31.9237C50.4191 31.9393 50.607 31.9647 50.7908 32.004V76.4993C50.7908 78.913 52.7474 80.8696 55.1611 80.8696H74.8915V80.8694Z" fill="#F6F6F6"/>
<path d="M73.8488 89.4243V96.7391C73.8488 98.0913 72.7529 99.1871 71.4027 99.1871H47.5818C46.2316 99.1871 45.1357 98.0913 45.1357 96.7391V89.211C45.1357 87.62 46.4371 86.3168 48.0299 86.3168H70.7412C72.4496 86.3168 73.8488 87.7161 73.8488 89.4243Z" fill="#F6F6F6"/>
<path d="M73.8483 89.4243V96.7391C73.8483 98.0913 72.7524 99.1871 71.4022 99.1871H55.7278C54.3776 99.1871 53.2817 98.0913 53.2817 96.7391V89.211C53.2817 87.62 54.5851 86.3168 56.1759 86.3168H70.7409C72.4491 86.3168 73.8483 87.7161 73.8483 89.4243Z" fill="#F6F6F6"/>
<path d="M70.5754 57.8317H56.7168V52.5461C66.6678 49.276 72.6326 38.9313 70.3014 28.551C70.1135 27.7077 69.276 27.1754 68.4326 27.3651C67.5893 27.553 67.057 28.3905 67.2467 29.2338C69.149 37.728 64.5283 46.1202 56.7168 49.2174V45.4504C60.0729 43.6971 62.6793 40.6073 63.74 36.7893C66.2277 27.8391 59.4381 19.0522 50.2533 19.0522C42.4082 19.0522 36.042 25.5862 36.2734 33.4508C36.2988 34.3157 37.0248 34.9948 37.884 34.9694C38.7488 34.944 39.4279 34.2239 39.4025 33.3588C39.257 25.8 46.3242 20.6854 53.1672 22.5823C61.891 25.0055 63.943 36.4186 56.717 41.7694V37.0866C56.717 33.5858 54.0322 30.6289 50.6057 30.351C46.7123 30.0412 43.4104 33.1338 43.4104 36.9829V41.4797C42.334 40.6049 41.4262 39.519 40.7373 38.2627C40.3225 37.5055 39.3715 37.2276 38.6121 37.6424C37.8549 38.0592 37.577 39.0102 37.9918 39.7676C39.2736 42.1061 41.1443 43.9846 43.4104 45.2489V49.0549C32.8414 44.542 29.4217 31.0323 36.7609 22.0444C37.3049 21.3731 37.2051 20.387 36.534 19.8409C35.8627 19.295 34.8766 19.3967 34.3324 20.0678C25.3924 30.9672 29.9963 47.6772 43.4104 52.4149V60.7166L41.1639 58.9194C36.6957 55.2547 29.9117 58.728 30.4344 64.5746C30.5969 66.375 31.4832 68.0598 32.8688 69.1987L43.4104 77.8754V81.9379C43.4104 83.6231 44.094 85.1514 45.1982 86.261C44.3559 87.1129 43.8227 88.2999 43.8227 89.5899V96.7473C43.8227 98.9495 45.6143 100.741 47.8164 100.741H71.674C73.8764 100.741 75.6678 98.9495 75.6678 96.7473V89.5899C75.6678 88.4534 75.2535 87.3971 74.5791 86.5791C75.8828 85.4536 76.7102 83.7913 76.7102 81.9381V63.9643C76.7102 60.583 73.9588 57.8317 70.5754 57.8317ZM72.5367 96.7477C72.5367 97.2235 72.1496 97.6104 71.674 97.6104H47.816C47.34 97.6104 46.9533 97.2233 46.9533 96.7477V89.5903C46.9533 88.8094 47.5887 88.0713 48.2609 88.0713H71.2295C71.9018 88.0713 72.5371 88.8094 72.5371 89.5903V96.7477H72.5367ZM73.5791 81.9383C73.5791 83.5938 72.2309 84.9401 70.5754 84.9401H49.5449C47.8895 84.9401 46.5412 83.5938 46.5412 81.9383V77.7741C46.5412 76.8993 46.1557 76.0813 45.4807 75.5256L34.8588 66.7823C34.1172 66.1717 33.6416 65.2657 33.5535 64.2932C33.2752 61.2143 36.8432 59.4194 39.1815 61.3442C39.4102 61.4973 38.4176 60.7317 41.8096 63.4479C42.6922 64.1524 43.8721 64.2873 44.8916 63.7981C45.9092 63.3088 46.5412 62.303 46.5412 61.1739C46.5412 40.1323 46.5412 60.6258 46.5412 36.983C46.5412 36.0084 46.958 35.0653 47.682 34.3961C49.9703 32.2852 53.5859 33.9698 53.5859 37.0868C53.5859 42.4928 53.5859 53.9909 53.5859 59.3969C53.5859 60.2598 54.2865 60.9623 55.1514 60.9623H70.5754C72.2309 60.9623 73.5791 62.3086 73.5791 63.9641V81.9383Z" fill="black"/>
<path d="M40.7464 18.4575C49.1087 13.0155 60.3041 15.7088 65.2855 24.2401C65.5771 24.7372 66.1015 25.0151 66.6396 25.0151C67.8385 25.0151 68.6015 23.7059 67.9898 22.661C62.0392 12.4649 48.7929 9.4897 39.038 15.8334C38.314 16.3051 38.1085 17.2737 38.5802 17.9997C39.0517 18.7239 40.0205 18.9292 40.7464 18.4575Z" fill="black"/>
<path d="M50.2612 9.74302C51.1257 9.74302 51.8267 9.04204 51.8267 8.17759V2.30688C51.8267 1.44243 51.1257 0.741455 50.2612 0.741455C49.3968 0.741455 48.6958 1.44243 48.6958 2.30688V8.17739C48.6958 9.04204 49.3968 9.74302 50.2612 9.74302Z" fill="black"/>
<path d="M32.8307 16.7469C34.2123 16.7469 34.9275 15.0643 33.9377 14.0745L29.7863 9.92329C29.1748 9.31177 28.1838 9.31196 27.5723 9.92329C26.9609 10.5346 26.9609 11.5258 27.5723 12.1372C31.6443 16.0012 31.7041 16.7469 32.8307 16.7469Z" fill="black"/>
<path d="M25.4574 30.8934H19.5869C18.7225 30.8934 18.0215 31.5944 18.0215 32.4588C18.0215 33.3233 18.7225 34.0243 19.5869 34.0243H25.4574C26.3219 34.0243 27.0228 33.3233 27.0228 32.4588C27.023 31.5944 26.3221 30.8934 25.4574 30.8934Z" fill="black"/>
<path d="M33.5684 48.7825C32.9568 48.1711 31.9658 48.1711 31.3543 48.7825L27.2031 52.9336C26.5918 53.545 26.5918 54.5362 27.2031 55.1475C27.8148 55.759 28.8057 55.7588 29.4172 55.1475L33.5684 50.9963C34.1797 50.3852 34.1797 49.394 33.5684 48.7825Z" fill="black"/>
<path d="M68.2766 49.1516C67.6652 48.5403 66.6742 48.5401 66.0625 49.1516C65.4512 49.763 65.4512 50.7542 66.0625 51.3655C70.1344 55.2297 70.1939 55.9753 71.3205 55.9753C72.7021 55.9753 73.4174 54.2926 72.4275 53.3028L68.2766 49.1516Z" fill="black"/>
<path d="M80.413 31.4153H74.5425C73.678 31.4153 72.9771 32.1163 72.9771 32.9807C72.9771 33.8452 73.678 34.5461 74.5425 34.5461H80.413C81.2774 34.5461 81.9784 33.8452 81.9784 32.9807C81.9784 32.1163 81.2776 31.4153 80.413 31.4153Z" fill="black"/>
<path d="M68.6457 16.6573L72.7971 12.5061C73.4084 11.8948 73.4084 10.9036 72.7971 10.2922C72.1857 9.68092 71.1947 9.68073 70.583 10.2922L66.4316 14.4434C65.8203 15.0547 65.8203 16.046 66.4316 16.6573C67.043 17.2686 68.0342 17.2688 68.6457 16.6573Z" fill="black"/>
</g>
<defs>
<clipPath id="clip0">
<rect width="100" height="100" fill="white" transform="translate(0 0.741455)"/>
</clipPath>
</defs>
</svg>
