<svg width="87" height="89" viewBox="0 0 87 89" fill="none" xmlns="http://www.w3.org/2000/svg">
<g clip-path="url(#clip0)">
<path d="M63.7989 37.0834H23.1997V60.0975H37.1558L55.0759 62.7862L59.0425 70.3595L63.7989 68.8968V37.0834Z" fill="#E30613"/>
<path d="M70.3237 45.9832H63.7988V43.0166H70.3236C73.1264 43.0166 75.3985 40.6922 75.3985 37.8251C75.3985 34.958 73.1263 32.6335 70.3236 32.6335H39.1493C33.5437 32.6335 28.9995 27.9849 28.9995 22.2505C28.9995 16.516 33.5437 11.8674 39.1493 11.8674H52.1991V14.8339H39.1493C35.1459 14.8339 31.8994 18.1551 31.8994 22.2505C31.8994 26.3458 35.1459 29.667 39.1493 29.667H70.3237C74.7288 29.667 78.2987 33.3189 78.2987 37.8252C78.2987 42.3316 74.7288 45.9832 70.3237 45.9832Z" fill="#4398D1"/>
<path d="M56.549 74.1661H40.5994C39.799 74.1661 39.1494 73.5015 39.1494 72.6828C39.1494 71.8641 39.799 71.1995 40.5994 71.1995H56.549C57.3494 71.1995 57.999 71.8641 57.999 72.6828C57.9992 73.5015 57.3495 74.1661 56.549 74.1661Z" fill="#F5B789"/>
<path d="M10.1499 81.5826C11.7514 81.5826 13.0498 80.2545 13.0498 78.6161C13.0498 76.9777 11.7514 75.6495 10.1499 75.6495C8.54832 75.6495 7.25 76.9777 7.25 78.6161C7.25 80.2545 8.54832 81.5826 10.1499 81.5826Z" fill="#E30613"/>
<path d="M14.4998 78.6161C14.4998 76.1581 12.5525 74.1661 10.1498 74.1661C7.74711 74.1661 5.7998 76.1581 5.7998 78.6161C5.7998 81.0738 7.74711 83.066 10.1498 83.066C12.5525 83.066 14.4998 81.0738 14.4998 78.6161ZM8.69986 78.6161C8.69986 77.7973 9.34947 77.1328 10.1498 77.1328C10.9501 77.1328 11.5997 77.7973 11.5997 78.6161C11.5997 79.4348 10.9501 80.0993 10.1498 80.0993C9.34947 80.0993 8.69986 79.4364 8.69986 78.6161Z" fill="black"/>
<path d="M85.5484 0.00189209H53.649C53.1922 0.00189209 52.763 0.221437 52.4889 0.595166L44.2241 11.8682H39.1492C33.5437 11.8682 28.9995 16.5169 28.9995 22.2513C28.9995 27.9857 33.5437 32.6344 39.1492 32.6344H70.3237C73.1266 32.6344 75.3986 34.9588 75.3986 37.8259C75.3986 40.6931 73.1264 43.0175 70.3237 43.0175H65.2489V37.0842C65.2489 36.2655 64.5992 35.6009 63.7989 35.6009H23.1996C22.3992 35.6009 21.7496 36.2655 21.7496 37.0842V59.3338C20.6259 59.7359 19.5355 60.2313 18.4915 60.8171H0V63.7836H17.3996V86.0336H0V89.0001H54.9424C56.2561 89.0001 57.5466 88.6337 58.6732 87.9426L83.5968 72.6452C86.9144 70.61 87.9917 66.2077 86.0009 62.8139C84.7351 60.6556 82.4543 59.334 79.9936 59.334H79.6878C78.5379 59.334 77.4069 59.6248 76.392 60.1765L65.2489 66.2567V45.9842H70.3237C74.7288 45.9842 78.2987 42.3323 78.2987 37.8259C78.2987 33.3196 74.7288 29.6677 70.3237 29.6677H39.1492C35.1459 29.6677 31.8994 26.3465 31.8994 22.2512C31.8994 18.1558 35.1459 14.8346 39.1492 14.8346H44.2241L52.4889 26.1077C52.763 26.4814 53.1922 26.701 53.649 26.701H85.5484C86.3487 26.701 86.9983 26.0364 86.9983 25.2177V1.48516C86.9983 0.666262 86.3489 0.00189209 85.5484 0.00189209ZM40.5992 38.5678H46.3991V44.5009H40.5992V38.5678ZM24.6495 38.5678H37.6993V45.9844C37.6993 46.8031 38.3489 47.4676 39.1492 47.4676H47.8491C48.6494 47.4676 49.299 46.8031 49.299 45.9844V38.5678H62.3488V67.8378L59.9738 69.1327C60.8598 65.5595 58.7456 61.9282 55.2527 61.022C54.7292 60.887 54.1898 60.8173 53.649 60.8173H39.5277C34.9863 58.2853 29.7186 57.4695 24.6495 58.5151V38.5678ZM77.7563 62.7946C78.3508 62.4712 79.0134 62.3005 79.6876 62.3005H79.9935C82.2612 62.3005 84.0983 64.1814 84.0983 66.4997C84.0983 67.9757 83.3414 69.3432 82.1046 70.1012L57.181 85.3986C56.5054 85.8139 55.731 86.0334 54.9423 86.0334H20.2997V63.1905C26.0228 60.1957 32.8346 60.3485 38.4244 63.5956C38.6463 63.7232 38.8956 63.7869 39.1494 63.784H53.6492C55.6515 63.784 57.2741 65.4439 57.2741 67.4923C57.2741 69.5406 55.6515 71.2005 53.6492 71.2005H40.5994C39.799 71.2005 39.1494 71.8651 39.1494 72.6838C39.1494 73.5025 39.799 74.1671 40.5994 74.1671H56.549C56.7868 74.1671 57.0218 74.1078 57.232 73.9936L77.7563 62.7946ZM84.0984 23.7348H54.374L47.8492 14.835H51.0159C51.8162 17.1519 54.3015 18.3668 56.5664 17.5465C58.8313 16.7278 60.0188 14.1854 59.217 11.8684C58.4166 9.55147 55.9314 8.33659 53.6665 9.15688C52.4283 9.60483 51.4538 10.6016 51.0159 11.8684H47.8492L54.374 2.96861H84.0984V23.7348ZM53.649 13.3515C53.649 12.5328 54.2986 11.8682 55.0989 11.8682C55.8993 11.8682 56.5489 12.5328 56.5489 13.3515C56.5489 14.1702 55.8993 14.8348 55.0989 14.8348C54.2986 14.8348 53.649 14.1718 53.649 13.3515Z" fill="black"/>
</g>
<defs>
<clipPath id="clip0">
<rect width="87" height="89" fill="white"/>
</clipPath>
</defs>
</svg>
