<svg width="1919" height="520" viewBox="0 0 1919 520" fill="none" xmlns="http://www.w3.org/2000/svg">
<path d="M1922.5 0C1904.31 57.8419 1857.68 108.372 1808.82 144.243C1759.95 180.115 1700.93 199.457 1640.33 199.458H280.859C243.45 199.431 206.403 206.781 171.835 221.09C137.267 235.398 105.858 256.384 79.4016 282.847C52.9455 309.31 31.9623 340.732 17.6516 375.314C3.34089 409.897 -4.01653 446.963 -3.99997 484.393V550H1946V0H1922.5Z" fill="#E30613"/>
<path d="M1919 17C1900.78 74.8419 1863.57 127.372 1814.63 163.243C1765.68 199.115 1706.55 218.457 1645.83 218.458H283.885C246.408 218.431 209.293 225.781 174.662 240.09C140.031 254.398 108.564 275.384 82.06 301.847C55.5557 328.31 34.5342 359.732 20.1974 394.314C5.86067 428.897 -5.01656 464.57 -4.99998 502V550H1919V17Z" fill="white"/>
</svg>
