<svg width="133" height="29" viewBox="0 0 133 29" fill="none" xmlns="http://www.w3.org/2000/svg">
<path d="M10.4229 22.7524C4.72923 22.7524 0.306641 17.9459 0.306641 11.8089C0.306641 5.672 4.72923 0.865479 10.4229 0.865479C15.1498 0.865479 18.6418 3.55649 19.9368 7.84879H15.6318C14.6978 5.94465 12.8314 4.52366 10.4229 4.52366C6.99095 4.52366 4.28078 7.84879 4.28078 11.8063C4.28078 15.7966 6.99095 19.1217 10.4229 19.1217C12.8014 19.1217 14.6978 17.6403 15.6318 15.7362H19.9067C18.5817 20.001 15.0595 22.7524 10.4229 22.7524Z" fill="#0092D2"/>
<path d="M26.5599 18.6715H36.6823V22.3891H22.5557V1.40991H26.5599V18.6715Z" fill="#0092D2"/>
<path d="M43.4507 22.3891H39.4766V1.40991H43.4507V22.3891Z" fill="#0092D2"/>
<path d="M56.547 22.7524C50.8569 22.7524 46.4316 17.9459 46.4316 11.8089C46.4316 5.672 50.8542 0.865479 56.547 0.865479C61.2738 0.865479 64.7668 3.55649 66.0617 7.84879H61.7559C60.8227 5.94465 58.9555 4.52366 56.547 4.52366C53.115 4.52366 50.4058 7.84879 50.4058 11.8063C50.4058 15.7966 53.115 19.1217 56.547 19.1217C58.9254 19.1217 60.8227 17.6403 61.7559 15.7362H66.0307C64.7066 20.001 61.1836 22.7524 56.547 22.7524Z" fill="#0092D2"/>
<path d="M111.909 22.3891H107.935V1.40991H111.909V22.3891Z" fill="#2F2B58"/>
<path d="M123.561 22.3891H115.825V1.40991H123.562C129.373 1.40991 132.986 5.43044 132.986 11.8995C132.984 18.3082 129.281 22.3891 123.561 22.3891ZM123.561 5.12848H119.797V18.6715H123.561C128.288 18.6715 129.01 14.4085 129.01 11.8693C129.01 8.78577 128.047 5.12848 123.561 5.12848Z" fill="#2F2B58"/>
<path d="M89.7122 13.9741C90.2478 12.967 90.9075 12.0316 91.6758 11.1899C92.6125 10.1605 93.5784 9.15606 94.5328 8.1436C95.052 7.59208 95.5845 7.05388 96.094 6.49347C96.4327 6.12046 96.4557 5.79985 96.2293 5.37533C95.9309 4.79144 95.4328 4.33517 94.8264 4.09021C94.5929 3.99518 94.3435 3.95255 94.1188 4.09821C93.9685 4.19212 93.8301 4.30395 93.7066 4.43125C91.8633 6.36381 90.022 8.29903 88.1828 10.2369C87.2806 11.1842 86.3775 12.1336 85.4735 13.0851C84.8208 13.7737 84.1692 14.4626 83.5188 15.1518C83.4604 15.214 83.3958 15.2708 83.3215 15.3418L79.9126 11.9608C79.9798 11.8844 80.032 11.8222 80.0895 11.7627L83.088 8.61165C84.3069 7.33156 85.5254 6.05178 86.7437 4.77229C87.7261 3.74029 88.707 2.70681 89.6865 1.67186C89.7314 1.6183 89.7725 1.56162 89.8094 1.50222L89.7838 1.46137H89.5406C87.5062 1.46137 86.5907 1.46137 84.5607 1.45693C84.4798 1.45261 84.3991 1.46693 84.3246 1.49879C84.25 1.53066 84.1838 1.57922 84.1308 1.64077C82.9668 2.88414 81.7995 4.12751 80.629 5.37089C79.3695 6.70958 78.1102 8.04798 76.8513 9.38609C76.8154 9.42928 76.7701 9.46354 76.7188 9.48619C76.6676 9.50884 76.6118 9.51926 76.5558 9.51664C75.7032 9.5122 74.4082 9.51664 73.5555 9.51664C73.4936 9.51664 73.4317 9.50954 73.3521 9.50421C73.3468 9.40474 73.338 9.3177 73.338 9.23067C73.338 6.84695 73.338 4.46322 73.338 2.0795C73.338 1.93829 73.338 1.79797 73.3477 1.65765C73.3574 1.51732 73.2875 1.46137 73.1407 1.46226C71.6706 1.4667 70.8693 1.46226 69.3992 1.46759C69.3107 1.46759 69.2223 1.47469 69.125 1.48002V22.4015C69.2135 22.406 69.2816 22.4122 69.3506 22.4122H73.0735C73.1115 22.4122 73.1496 22.4122 73.1885 22.4122C73.2076 22.4148 73.2271 22.4131 73.2454 22.4071C73.2638 22.4011 73.2806 22.391 73.2945 22.3776C73.3085 22.3642 73.3192 22.3478 73.326 22.3297C73.3327 22.3115 73.3353 22.292 73.3335 22.2727C73.3335 22.2026 73.3335 22.1324 73.3335 22.0623V14.4573C73.4158 14.4484 73.4591 14.4395 73.5025 14.4395C74.4188 14.4395 75.3352 14.4395 76.2516 14.4395C76.3435 14.4454 76.4305 14.4834 76.4975 14.547C77.849 15.8792 79.197 17.2143 80.5415 18.5524C81.788 19.7887 83.0337 21.0261 84.2786 22.2648C84.3261 22.3147 84.3838 22.3536 84.4478 22.3789C84.5118 22.4042 84.5805 22.4153 84.6492 22.4113C86.5748 22.4113 87.8334 22.4113 89.7573 22.4113H90.5533C90.5533 22.4113 89.4548 21.7576 88.9249 20.1191C88.7962 19.7025 88.7056 19.275 88.6543 18.8419C88.5541 17.8239 88.6533 16.7959 88.9462 15.8161C89.1442 15.1796 89.4006 14.563 89.7122 13.9741Z" fill="#0092D2"/>
<path d="M103.876 9.9146C103.923 9.86846 103.96 9.8131 103.985 9.75198C104.01 9.69085 104.021 9.62528 104.02 9.55936C104.02 6.9542 104.02 4.34904 104.02 1.74388C104.015 1.65749 104.004 1.57148 103.989 1.48633H99.4149L99.3893 1.5334C99.4211 1.5778 99.4503 1.62221 99.483 1.6675C99.7086 1.9668 99.9501 2.25633 100.158 2.56806C100.663 3.32811 100.983 4.19662 101.093 5.10365C101.142 5.58589 101.148 6.0715 101.111 6.55484C101.075 7.29287 100.831 7.97583 100.479 8.61883C100.179 9.16769 99.7714 9.62951 99.345 10.0789C98.0961 11.3933 96.8481 12.7092 95.6009 14.0266C95.0321 14.6288 94.497 15.2602 94.0769 15.9805C93.7845 16.4532 93.6173 16.9931 93.5913 17.5489C93.5692 18.2825 93.8062 18.9388 94.1989 19.5454C94.2653 19.6475 94.3458 19.7417 94.4262 19.8482C94.4988 19.7807 94.5474 19.7399 94.5908 19.6937C95.2188 19.0341 95.8459 18.374 96.4721 17.7132L99.9032 14.0985C101.228 12.7036 102.552 11.309 103.876 9.9146Z" fill="#FCB319"/>
<path d="M98.7474 22.3944H104.02V16.833C102.264 18.6714 100.454 20.5063 98.7129 22.3456L98.7474 22.3944Z" fill="#FCB319"/>
<path d="M70.7641 25.0695H70.4016C70.4025 25.009 70.3912 24.949 70.3682 24.8931C70.3453 24.8372 70.3112 24.7866 70.2681 24.7444C70.2266 24.7008 70.1766 24.6663 70.1213 24.6431C70.0659 24.6199 70.0063 24.6084 69.9463 24.6094C69.8868 24.6082 69.8277 24.6196 69.7728 24.6428C69.718 24.6661 69.6687 24.7007 69.628 24.7444C69.5859 24.7872 69.5526 24.8379 69.5301 24.8937C69.5076 24.9496 69.4965 25.0093 69.4972 25.0695C69.497 25.1291 69.5085 25.1883 69.5311 25.2434C69.5537 25.2986 69.587 25.3487 69.629 25.3909C69.671 25.4331 69.7209 25.4665 69.7758 25.4892C69.8307 25.512 69.8896 25.5235 69.949 25.5233C70.1646 25.5245 70.3711 25.611 70.5237 25.7641C70.6763 25.9172 70.7627 26.1246 70.7641 26.3413C70.7654 26.4492 70.7452 26.5562 70.7047 26.6561C70.6641 26.7561 70.6041 26.8468 70.528 26.923C70.4544 27.0018 70.3652 27.0643 70.266 27.1064C70.1669 27.1485 70.0601 27.1692 69.9525 27.1672C69.8446 27.1675 69.7378 27.1462 69.6381 27.1048C69.5384 27.0633 69.448 27.0024 69.3718 26.9256C69.2957 26.8488 69.2355 26.7577 69.1947 26.6574C69.1538 26.5571 69.1331 26.4496 69.1338 26.3413H69.4954C69.4945 26.4019 69.5059 26.4622 69.529 26.5182C69.5521 26.5743 69.5864 26.625 69.6298 26.6672C69.6715 26.7105 69.7216 26.7447 69.7769 26.7679C69.8322 26.7912 69.8917 26.8028 69.9516 26.8022C70.0111 26.8032 70.0701 26.7917 70.1249 26.7684C70.1797 26.7452 70.2291 26.7107 70.2699 26.6672C70.312 26.6243 70.3453 26.5734 70.3676 26.5174C70.3899 26.4614 70.4009 26.4016 70.3998 26.3413C70.4004 26.2816 70.3892 26.2225 70.3667 26.1672C70.3443 26.112 70.3111 26.0619 70.2691 26.0197C70.2271 25.9775 70.1772 25.9442 70.1222 25.9216C70.0672 25.899 70.0083 25.8877 69.949 25.8883C69.7333 25.8867 69.5269 25.7999 69.3744 25.6467C69.2219 25.4935 69.1355 25.2862 69.1338 25.0695C69.1326 24.9618 69.1528 24.855 69.1932 24.7553C69.2336 24.6555 69.2933 24.5649 69.369 24.4886C69.4427 24.4096 69.532 24.3469 69.6313 24.3047C69.7306 24.2625 69.8376 24.2416 69.9454 24.2435C70.0532 24.2436 70.1599 24.2651 70.2594 24.3067C70.3589 24.3483 70.4492 24.4092 70.5253 24.4859C70.6013 24.5626 70.6616 24.6537 70.7025 24.7538C70.7435 24.8539 70.7644 24.9612 70.7641 25.0695Z" fill="#A3A5A8"/>
<path d="M73.9674 27.0216H73.6039V26.6663C73.4085 26.8898 73.1499 27.0482 72.8625 27.1204C72.5752 27.1926 72.2728 27.1751 71.9956 27.0702C71.7184 26.9654 71.4796 26.7783 71.3111 26.5337C71.1425 26.2891 71.0522 25.9988 71.0522 25.7014C71.0522 25.404 71.1425 25.1136 71.3111 24.8691C71.4796 24.6245 71.7184 24.4373 71.9956 24.3325C72.2728 24.2277 72.5752 24.2102 72.8625 24.2824C73.1499 24.3545 73.4085 24.5129 73.6039 24.7364V24.3856H73.9674V27.0216ZM73.6039 25.708C73.6041 25.454 73.5165 25.2078 73.3562 25.0114C73.1958 24.8149 72.9726 24.6804 72.7245 24.6307C72.4764 24.581 72.2189 24.6192 71.9957 24.7388C71.7726 24.8585 71.5976 25.0521 71.5007 25.2867C71.4038 25.5213 71.391 25.7825 71.4643 26.0255C71.5377 26.2686 71.6928 26.4786 71.9031 26.6198C72.1134 26.7609 72.3659 26.8245 72.6177 26.7996C72.8694 26.7747 73.1048 26.663 73.2837 26.4834C73.387 26.383 73.4687 26.2624 73.5238 26.129C73.5789 25.9957 73.6061 25.8524 73.6039 25.708Z" fill="#A3A5A8"/>
<path d="M76.8428 24.39L75.7558 27.0215H75.3551L74.2627 24.39H74.6572L75.5594 26.5437L76.4528 24.39H76.8428Z" fill="#A3A5A8"/>
<path d="M79.7407 25.708H77.1924C77.1922 25.9102 77.2477 26.1085 77.3527 26.281C77.4578 26.4535 77.6083 26.5935 77.7877 26.6854C77.967 26.7773 78.1682 26.8177 78.369 26.8019C78.5697 26.7861 78.7622 26.7149 78.9252 26.5961C79.1099 26.4635 79.2477 26.2753 79.3188 26.0588H79.6974C79.6204 26.3769 79.4388 26.6595 79.182 26.8612C78.9252 27.0628 78.6081 27.1715 78.2822 27.1699C77.9941 27.1695 77.7126 27.0834 77.4732 26.9224C77.2339 26.7614 77.0474 26.5328 76.9374 26.2655C76.8275 25.9981 76.7989 25.704 76.8554 25.4203C76.9119 25.1367 77.0509 24.8762 77.2548 24.6719C77.4587 24.4675 77.7183 24.3284 78.0009 24.2723C78.2835 24.2161 78.5764 24.2453 78.8424 24.3562C79.1085 24.4671 79.3359 24.6547 79.4958 24.8953C79.6556 25.1359 79.7409 25.4187 79.7407 25.708ZM79.3117 25.343C79.2368 25.1296 79.0978 24.9448 78.9139 24.8141C78.73 24.6833 78.5102 24.6131 78.2848 24.6131C78.0595 24.6131 77.8397 24.6833 77.6557 24.8141C77.4718 24.9448 77.3328 25.1296 77.2579 25.343H79.3117Z" fill="#A3A5A8"/>
<path d="M83.8302 24.39L81.2023 28.0446H80.7529L81.488 27.0224V24.39H81.8524V26.5162L83.3809 24.39H83.8302Z" fill="#A3A5A8"/>
<path d="M86.5119 25.7081C86.5119 26.0463 86.395 26.3741 86.1813 26.6355C85.9676 26.8969 85.6702 27.0758 85.3399 27.1417C85.0095 27.2077 84.6666 27.1566 84.3695 26.9971C84.0725 26.8376 83.8397 26.5797 83.7109 26.2672C83.582 25.9548 83.565 25.6071 83.6628 25.2834C83.7606 24.9598 83.9672 24.6802 84.2473 24.4924C84.5273 24.3045 84.8636 24.22 85.1988 24.2531C85.5341 24.2863 85.8474 24.4352 86.0856 24.6744C86.2232 24.8083 86.332 24.9691 86.4053 25.1469C86.4786 25.3247 86.5149 25.5157 86.5119 25.7081ZM86.1475 25.7081C86.1477 25.4541 86.0602 25.2079 85.8998 25.0115C85.7395 24.815 85.5162 24.6805 85.2681 24.6308C85.0201 24.5811 84.7625 24.6193 84.5393 24.7389C84.3162 24.8585 84.1413 25.0522 84.0444 25.2868C83.9475 25.5214 83.9346 25.7825 84.008 26.0256C84.0813 26.2687 84.2364 26.4787 84.4467 26.6199C84.657 26.761 84.9096 26.8246 85.1613 26.7997C85.4131 26.7748 85.6484 26.6631 85.8273 26.4835C85.9306 26.3831 86.0123 26.2625 86.0674 26.1291C86.1225 25.9957 86.1497 25.8525 86.1475 25.7081Z" fill="#A3A5A8"/>
<path d="M89.1325 27.0216H88.7681V26.844C88.6028 27.0009 88.3954 27.1059 88.1714 27.1458C87.9474 27.1858 87.7167 27.159 87.5076 27.0688C87.2986 26.9786 87.1205 26.8289 86.9952 26.6383C86.87 26.4476 86.803 26.2242 86.8027 25.9958V24.3883H87.1663V25.9958C87.1627 26.1037 87.1808 26.2111 87.2194 26.3118C87.258 26.4125 87.3165 26.5044 87.3912 26.582C87.4659 26.6595 87.5554 26.7212 87.6544 26.7633C87.7533 26.8055 87.8597 26.8272 87.9672 26.8272C88.0747 26.8272 88.181 26.8055 88.28 26.7633C88.3789 26.7212 88.4684 26.6595 88.5432 26.582C88.6179 26.5044 88.6763 26.4125 88.7149 26.3118C88.7536 26.2111 88.7717 26.1037 88.7681 25.9958V24.3883H89.1325V27.0216Z" fill="#A3A5A8"/>
<path d="M90.3794 24.7551H90.2344C90.1865 24.7548 90.1391 24.7641 90.0948 24.7824C90.0505 24.8007 90.0102 24.8277 89.9764 24.8617C89.9425 24.8957 89.9157 24.9362 89.8974 24.9807C89.8792 25.0252 89.8699 25.0729 89.8702 25.121V27.0216H89.5068V24.39H89.8702V24.4851C89.9811 24.4217 90.1068 24.389 90.2344 24.39H90.3794V24.7551Z" fill="#A3A5A8"/>
<path d="M92.9904 24.7551H92.6995V27.0216H92.3353V24.7551H92.0444V24.3901H92.3353V23.6592H92.6995V24.3901H92.9904V24.7551Z" fill="#A3A5A8"/>
<path d="M95.6115 27.0216H95.2471V25.5598C95.2471 25.3466 95.1628 25.1422 95.0126 24.9914C94.8625 24.8407 94.6589 24.756 94.4466 24.756C94.2343 24.756 94.0307 24.8407 93.8806 24.9914C93.7305 25.1422 93.6462 25.3466 93.6462 25.5598V27.0216H93.2817V23.6592H93.6462V24.7116C93.8114 24.5546 94.0189 24.4497 94.2429 24.4097C94.4668 24.3698 94.6976 24.3966 94.9066 24.4868C95.1156 24.577 95.2938 24.7266 95.419 24.9173C95.5443 25.108 95.6112 25.3313 95.6115 25.5598V27.0216Z" fill="#A3A5A8"/>
<path d="M96.2662 24.097H95.9028V23.6592H96.2662V24.097ZM96.2662 27.0216H95.9028V24.3901H96.2662V27.0216Z" fill="#A3A5A8"/>
<path d="M98.887 27.0216H98.5235V25.4132C98.5271 25.3053 98.509 25.1979 98.4703 25.0972C98.4317 24.9965 98.3733 24.9046 98.2986 24.827C98.2238 24.7495 98.1343 24.6878 98.0354 24.6457C97.9364 24.6035 97.83 24.5818 97.7226 24.5818C97.6151 24.5818 97.5087 24.6035 97.4098 24.6457C97.3108 24.6878 97.2213 24.7495 97.1466 24.827C97.0719 24.9046 97.0134 24.9965 96.9748 25.0972C96.9361 25.1979 96.9181 25.3053 96.9216 25.4132V27.0216H96.5581V24.3901H96.9216V24.5677C97.0869 24.4107 97.2944 24.3058 97.5184 24.2658C97.7423 24.2259 97.9731 24.2527 98.1821 24.3429C98.3911 24.4331 98.5692 24.5827 98.6945 24.7734C98.8198 24.9641 98.8867 25.1874 98.887 25.4159V27.0216Z" fill="#A3A5A8"/>
<path d="M102.091 26.6708C102.094 26.8548 102.057 27.0372 101.984 27.2057C101.91 27.3743 101.801 27.525 101.665 27.6477C101.394 27.908 101.031 28.0509 100.656 28.0456C100.012 28.0456 99.5678 27.7531 99.3243 27.1681H99.6887C99.7831 27.3282 99.9184 27.4601 100.081 27.55C100.243 27.6399 100.426 27.6847 100.611 27.6797C100.891 27.6822 101.161 27.5821 101.372 27.3981C101.581 27.2118 101.708 26.9505 101.726 26.6708C101.498 27.0023 101.134 27.1678 100.634 27.1672C100.391 27.1676 100.151 27.1067 99.937 26.9901C99.7229 26.8734 99.5415 26.7047 99.4092 26.4993C99.277 26.294 99.1981 26.0587 99.1799 25.8148C99.1616 25.571 99.2046 25.3265 99.3048 25.1036C99.4051 24.8808 99.5594 24.6867 99.7537 24.5393C99.9479 24.3918 100.176 24.2956 100.417 24.2595C100.658 24.2235 100.904 24.2486 101.132 24.3327C101.361 24.4168 101.565 24.5571 101.726 24.7409V24.3901H102.09L102.091 26.6708ZM101.727 25.708C101.727 25.454 101.639 25.2078 101.479 25.0114C101.319 24.8149 101.095 24.6804 100.847 24.6307C100.599 24.581 100.342 24.6192 100.118 24.7388C99.8953 24.8585 99.7204 25.0521 99.6235 25.2867C99.5266 25.5213 99.5137 25.7824 99.5871 26.0255C99.6605 26.2686 99.8155 26.4786 100.026 26.6198C100.236 26.7609 100.489 26.8245 100.74 26.7996C100.992 26.7747 101.228 26.663 101.406 26.4834C101.51 26.3831 101.592 26.2625 101.647 26.1291C101.702 25.9958 101.729 25.8524 101.727 25.708Z" fill="#A3A5A8"/>
<path d="M104.019 25.0695H103.657C103.658 25.009 103.647 24.9489 103.624 24.893C103.6 24.8371 103.566 24.7866 103.523 24.7444C103.482 24.7009 103.432 24.6664 103.376 24.6431C103.321 24.6199 103.261 24.6084 103.201 24.6094C103.142 24.6082 103.083 24.6196 103.028 24.6429C102.973 24.6661 102.924 24.7007 102.883 24.7444C102.841 24.7872 102.808 24.838 102.785 24.8938C102.763 24.9496 102.752 25.0094 102.753 25.0695C102.752 25.1291 102.764 25.1883 102.786 25.2435C102.809 25.2987 102.842 25.3489 102.884 25.3911C102.926 25.4334 102.976 25.4668 103.031 25.4895C103.086 25.5122 103.144 25.5237 103.204 25.5233C103.42 25.5245 103.626 25.611 103.779 25.7641C103.931 25.9173 104.018 26.1246 104.019 26.3413C104.02 26.4491 104 26.5561 103.96 26.6559C103.919 26.7558 103.86 26.8466 103.784 26.923C103.71 27.0018 103.621 27.0642 103.521 27.1063C103.422 27.1483 103.315 27.1691 103.207 27.1672C103.1 27.1674 102.993 27.146 102.893 27.1045C102.794 27.063 102.703 27.0021 102.627 26.9254C102.551 26.8486 102.491 26.7575 102.45 26.6572C102.409 26.557 102.388 26.4496 102.389 26.3413H102.75C102.749 26.402 102.761 26.4622 102.784 26.5182C102.807 26.5743 102.841 26.625 102.885 26.6672C102.926 26.7105 102.976 26.7447 103.032 26.768C103.087 26.7912 103.147 26.8028 103.206 26.8022C103.266 26.8032 103.325 26.7917 103.38 26.7685C103.435 26.7453 103.484 26.7108 103.525 26.6672C103.567 26.6243 103.6 26.5734 103.622 26.5174C103.645 26.4614 103.656 26.4016 103.655 26.3413C103.655 26.2816 103.644 26.2225 103.622 26.1673C103.599 26.112 103.566 26.0619 103.524 26.0197C103.482 25.9775 103.432 25.9442 103.377 25.9216C103.322 25.8991 103.263 25.8877 103.204 25.8883C102.988 25.8867 102.782 25.7999 102.629 25.6467C102.477 25.4935 102.39 25.2862 102.389 25.0695C102.387 24.9618 102.408 24.8549 102.448 24.7551C102.489 24.6553 102.549 24.5648 102.625 24.4887C102.698 24.4095 102.787 24.3468 102.887 24.3046C102.986 24.2623 103.093 24.2415 103.2 24.2435C103.308 24.2437 103.415 24.2651 103.514 24.3067C103.614 24.3483 103.704 24.4092 103.78 24.4859C103.856 24.5627 103.916 24.6537 103.957 24.7538C103.998 24.854 104.019 24.9612 104.019 25.0695Z" fill="#A3A5A8"/>
</svg>
