<svg width="237" height="248" viewBox="0 0 237 248" fill="none" xmlns="http://www.w3.org/2000/svg">
<g clip-path="url(#clip0)">
<path d="M230.786 123.2C226.432 149.457 217.938 195.323 190.356 220.189C164.194 244.535 126.778 247.96 94.5508 247.849C62.1556 248.116 26.4237 243.749 11.347 221.969C3.20935 211.236 -0.00424833 195.122 0.0799792 177.845C0.0799792 159.84 3.38429 141.114 5.79449 127.723C10.4464 99.8417 20.165 50.9802 46.4245 26.9847C71.1485 3.69106 112.763 0.461786 142.502 0.637219C172.494 0.110918 212.748 4.56823 226.607 25.2889C233.734 35.0352 236.941 51.344 236.85 68.9329C236.85 88.315 233.39 108.646 230.786 123.22" fill="#E30613"/>
</g>
<defs>
<clipPath id="clip0">
<rect width="236.77" height="247.264" fill="white" transform="translate(0.079834 0.598145)"/>
</clipPath>
</defs>
</svg>
