<svg width="1920" height="488" viewBox="0 0 1920 488" fill="none" xmlns="http://www.w3.org/2000/svg">
<path opacity="0.2" fill-rule="evenodd" clip-rule="evenodd" d="M1827.38 146.039C1876.75 109.796 1923.87 58.7421 1942.25 0.300781H1965.99V17.4769H1938.71C1920.3 75.9182 1882.71 128.993 1833.25 165.236C1783.8 201.479 1724.05 221.022 1662.71 221.023H286.652C248.787 220.995 211.287 228.422 176.298 242.879C141.308 257.335 109.515 278.539 82.736 305.276C55.9571 332.013 34.7178 363.76 20.2324 398.701C8.35842 427.343 -1.16687 456.726 -4.20605 487.219C-3.90218 450.25 3.5191 413.677 17.6602 379.504C32.1191 344.563 53.3198 312.816 80.05 286.079C106.78 259.342 138.516 238.139 173.441 223.682C208.367 209.225 245.799 201.798 283.595 201.826H1657.15C1718.38 201.825 1778.02 182.282 1827.38 146.039Z" fill="#9D9D9C"/>
</svg>
