<svg width="164" height="57" viewBox="0 0 164 57" fill="none" xmlns="http://www.w3.org/2000/svg">
<path d="M37.2994 18.4755L30.9272 8.50236C30.8071 8.32206 30.7382 8.11148 30.728 7.89383V2.68752C30.7325 2.44495 30.6894 2.20392 30.6013 1.97851C30.5132 1.7531 30.3819 1.54784 30.215 1.37472C30.0481 1.20161 29.8491 1.0641 29.6294 0.970251C29.4098 0.8764 29.174 0.828083 28.9359 0.828125C28.4517 0.828125 27.9874 1.02403 27.6451 1.37273C27.3028 1.72143 27.1105 2.19438 27.1105 2.68752V7.89383C27.1072 8.10779 27.05 8.31731 26.9445 8.50236L20.5391 18.4755C20.4919 18.5513 20.4668 18.6392 20.4668 18.729C20.4668 18.8188 20.4919 18.9068 20.5391 18.9826L22.1653 21.3153C22.186 21.3503 22.2152 21.3792 22.2501 21.3994C22.285 21.4195 22.3244 21.43 22.3645 21.43C22.4046 21.43 22.444 21.4195 22.4789 21.3994C22.5138 21.3792 22.543 21.3503 22.5636 21.3153L26.8781 15.1962H27.0773V22.9718C27.0775 23.0148 27.0689 23.0573 27.0518 23.0966C27.0348 23.1359 27.0098 23.1711 26.9784 23.1999C26.9471 23.2286 26.9101 23.2503 26.8699 23.2634C26.8298 23.2765 26.7873 23.2809 26.7454 23.2761H26.0152C25.9297 23.2837 25.8496 23.3218 25.7889 23.3836C25.7282 23.4454 25.6908 23.5271 25.6834 23.6142V25.0003C25.6916 25.0839 25.7302 25.1615 25.7916 25.2177C25.8529 25.274 25.9327 25.3049 26.0152 25.3045H31.8565C31.9357 25.3045 32.0117 25.2725 32.0677 25.2154C32.1237 25.1583 32.1552 25.081 32.1552 25.0003V23.6142C32.1556 23.5301 32.1252 23.4488 32.07 23.3863C32.0147 23.3238 31.9386 23.2845 31.8565 23.2761H31.0599C30.9774 23.2765 30.8976 23.2456 30.8362 23.1893C30.7749 23.1331 30.7363 23.0555 30.728 22.9718V15.23C30.728 15.23 30.728 15.0271 30.9272 15.23L35.2417 21.3491C35.2663 21.384 35.2987 21.4124 35.3362 21.432C35.3737 21.4516 35.4153 21.4619 35.4574 21.4619C35.4996 21.4619 35.5412 21.4516 35.5787 21.432C35.6162 21.4124 35.6486 21.384 35.6732 21.3491L37.2994 19.0164C37.3466 18.9406 37.3717 18.8526 37.3717 18.7628C37.3717 18.673 37.3466 18.5851 37.2994 18.5093" fill="black"/>
<path d="M19.2769 19.3881L7.99271 22.5321C7.79661 22.5822 7.59141 22.5822 7.39531 22.5321L2.48338 20.8756C2.25265 20.7911 2.00757 20.7547 1.76276 20.7688C1.51795 20.7829 1.27843 20.8471 1.0585 20.9575C0.838575 21.0679 0.642744 21.2224 0.482697 21.4116C0.322651 21.6008 0.20167 21.8209 0.126977 22.0588C0.034818 22.3021 -0.0050959 22.5627 0.00992226 22.8231C0.0249404 23.0834 0.094542 23.3375 0.214041 23.5681C0.33354 23.7987 0.500162 24.0006 0.70269 24.1602C0.905218 24.3197 1.13895 24.4332 1.38815 24.493L6.2669 26.1157C6.45318 26.16 6.62482 26.2533 6.76473 26.3862L14.0994 35.6493C14.1739 35.6974 14.2602 35.723 14.3484 35.723C14.4365 35.723 14.5228 35.6974 14.5973 35.6493L17.2524 34.8041C17.2806 34.7788 17.3033 34.7476 17.3188 34.7126C17.3342 34.6776 17.3423 34.6397 17.3423 34.6013C17.3423 34.5629 17.3342 34.525 17.3188 34.49C17.3033 34.4551 17.2806 34.4238 17.2524 34.3985L13.0042 28.4484C13.0042 28.4484 13.0042 28.2117 13.0042 28.2794L20.2062 30.6797C20.281 30.6348 20.3702 30.6221 20.4543 30.6443C20.5383 30.6665 20.6102 30.7218 20.6542 30.798C20.6982 30.8742 20.7107 30.9651 20.6889 31.0507C20.6672 31.1363 20.6129 31.2096 20.5381 31.2544L20.2726 31.9981C20.2576 32.0873 20.2724 32.179 20.3145 32.2586C20.3566 32.3382 20.4236 32.4012 20.5049 32.4376L21.766 32.8433C21.8051 32.8591 21.847 32.8663 21.889 32.8645C21.931 32.8626 21.9721 32.8518 22.0097 32.8326C22.0473 32.8135 22.0805 32.7865 22.1071 32.7534C22.1338 32.7202 22.1533 32.6818 22.1643 32.6405L23.9897 26.9947C24.0101 26.9096 23.9973 26.8197 23.954 26.744C23.9106 26.6684 23.8402 26.6128 23.7574 26.589L22.4962 26.1495C22.4571 26.1337 22.4152 26.1265 22.3732 26.1284C22.3313 26.1302 22.2901 26.1411 22.2525 26.1602C22.2149 26.1794 22.1817 26.2064 22.1551 26.2395C22.1285 26.2726 22.109 26.311 22.0979 26.3524L21.8324 27.1299C21.8214 27.1712 21.8019 27.2097 21.7752 27.2428C21.7486 27.2759 21.7154 27.3029 21.6778 27.3221C21.6402 27.3412 21.5991 27.352 21.5571 27.3539C21.5151 27.3557 21.4732 27.3485 21.4342 27.3328L14.2322 24.7634C14.2322 24.7634 14.2322 24.7634 14.2322 24.5606L21.2682 22.2617C21.2958 22.2395 21.3182 22.2113 21.3335 22.1791C21.3488 22.1469 21.3568 22.1115 21.3568 22.0757C21.3568 22.0399 21.3488 22.0046 21.3335 21.9724C21.3182 21.9402 21.2958 21.912 21.2682 21.8898L19.6088 19.5909C19.5588 19.515 19.4884 19.4555 19.4059 19.4195C19.3235 19.3835 19.2325 19.3726 19.1441 19.3881" fill="black"/>
<path d="M14.565 37.1708L14.0007 49.0371C13.9906 49.2548 13.9217 49.4654 13.8016 49.6457L10.7814 53.8716C10.6402 54.0662 10.5384 54.2876 10.482 54.5227C10.4255 54.7578 10.4155 55.0021 10.4526 55.2411C10.4897 55.4802 10.573 55.7094 10.6979 55.9154C10.8227 56.1214 10.9865 56.3 11.1797 56.4409C11.3691 56.5893 11.5862 56.6969 11.8178 56.757C12.0493 56.8171 12.2905 56.8285 12.5265 56.7905C12.7626 56.7526 12.9885 56.666 13.1906 56.5362C13.3927 56.4063 13.5668 56.2359 13.7021 56.0352L16.7222 51.8093C16.8683 51.6855 17.0378 51.5935 17.2201 51.5389L28.1392 47.313C28.2242 47.2753 28.2972 47.2142 28.35 47.1366C28.4027 47.0589 28.4332 46.9678 28.4379 46.8735V44.0337C28.4419 43.9919 28.435 43.9497 28.4178 43.9115C28.4006 43.8733 28.3737 43.8405 28.3399 43.8164C28.3061 43.7923 28.2666 43.7778 28.2255 43.7744C28.1844 43.771 28.1431 43.7788 28.106 43.797L21.07 46.1635C21.07 46.1635 20.8708 46.1635 21.07 45.9945L25.5172 39.7402C25.5826 39.6852 25.6648 39.6551 25.7496 39.6551C25.8344 39.6551 25.9165 39.6852 25.9819 39.7402L26.6789 40.0444C26.7067 40.0741 26.7402 40.0977 26.7773 40.1138C26.8144 40.1299 26.8543 40.1382 26.8946 40.1382C26.9349 40.1382 26.9748 40.1299 27.0119 40.1138C27.0489 40.0977 27.0824 40.0741 27.1103 40.0444L27.9068 38.9626C27.9608 38.896 27.9903 38.8123 27.9903 38.7259C27.9903 38.6396 27.9608 38.5559 27.9068 38.4893L23.194 35.1086C23.1286 35.0536 23.0465 35.0236 22.9617 35.0236C22.8769 35.0236 22.7948 35.0536 22.7294 35.1086L21.9329 36.2242C21.9037 36.2526 21.8806 36.2867 21.8648 36.3245C21.8489 36.3623 21.8408 36.4029 21.8408 36.444C21.8408 36.485 21.8489 36.5257 21.8648 36.5634C21.8806 36.6012 21.9037 36.6353 21.9329 36.6637L22.5635 37.137C22.6174 37.2036 22.6469 37.2873 22.6469 37.3737C22.6469 37.46 22.6174 37.5437 22.5635 37.6103L18.0498 43.6956C18.0498 43.8646 17.8506 43.6956 17.8506 43.6956V36.1228C17.852 36.0808 17.8437 36.0391 17.8264 36.0009C17.8091 35.9628 17.7833 35.9292 17.7511 35.903C17.7189 35.8767 17.6812 35.8585 17.6408 35.8497C17.6005 35.8409 17.5587 35.8418 17.5188 35.8523L14.8637 36.7651C14.7771 36.7952 14.7003 36.8489 14.6418 36.9205C14.5832 36.9921 14.5452 37.0787 14.5318 37.1708" fill="black"/>
<path d="M29.6992 47.2116L40.6183 51.539C40.8095 51.6235 40.9796 51.7505 41.1162 51.9108L44.1363 56.1705C44.4212 56.5607 44.8448 56.8216 45.3163 56.8974C45.7878 56.9733 46.2697 56.858 46.6587 56.5762C46.853 56.4322 47.0175 56.2506 47.1427 56.0417C47.268 55.8328 47.3515 55.6008 47.3885 55.3589C47.4255 55.117 47.4153 54.8701 47.3584 54.6323C47.3015 54.3945 47.199 54.1705 47.057 53.9731L44.07 49.7472C43.945 49.5793 43.8649 49.3813 43.8376 49.1725L43.2734 37.1709C43.2639 37.0773 43.2273 36.9888 43.1682 36.9165C43.1091 36.8443 43.0302 36.7916 42.9415 36.7652L40.2864 35.8524C40.248 35.8399 40.2071 35.8379 40.1677 35.8464C40.1282 35.8549 40.0916 35.8737 40.0615 35.901C40.0313 35.9283 40.0087 35.9631 39.9958 36.002C39.9828 36.0409 39.9801 36.0826 39.9877 36.1229V43.6619C39.9877 43.8309 39.9877 43.8647 39.7886 43.6619L35.3413 37.4076C35.2874 37.3409 35.2579 37.2573 35.2579 37.1709C35.2579 37.0845 35.2874 37.0009 35.3413 36.9343L35.9719 36.461C36.001 36.4326 36.0242 36.3984 36.04 36.3607C36.0558 36.3229 36.064 36.2823 36.064 36.2412C36.064 36.2001 36.0558 36.1595 36.04 36.1217C36.0242 36.084 36.001 36.0499 35.9719 36.0215L35.1754 34.9058C35.1475 34.8762 35.114 34.8526 35.0769 34.8364C35.0399 34.8203 35 34.812 34.9597 34.812C34.9193 34.812 34.8794 34.8203 34.8424 34.8364C34.8053 34.8526 34.7718 34.8762 34.7439 34.9058L30.0311 38.2865C29.9965 38.3151 29.9685 38.3511 29.9493 38.3921C29.9301 38.433 29.9202 38.4778 29.9202 38.5232C29.9202 38.5686 29.9301 38.6134 29.9493 38.6543C29.9685 38.6953 29.9965 38.7313 30.0311 38.7598L30.7945 39.8417C30.8565 39.9036 30.9399 39.9383 31.0268 39.9383C31.1137 39.9383 31.1971 39.9036 31.2591 39.8417L31.8897 39.3684C31.9176 39.3387 31.9511 39.3151 31.9881 39.299C32.0252 39.2829 32.0651 39.2746 32.1054 39.2746C32.1457 39.2746 32.1856 39.2829 32.2227 39.299C32.2598 39.3151 32.2933 39.3387 32.3211 39.3684L36.7684 45.6227C36.7684 45.6227 36.7684 45.8255 36.7684 45.7917L29.7324 43.4252C29.5665 43.4252 29.4337 43.4252 29.4005 43.6619V46.5017C29.3983 46.5933 29.4222 46.6835 29.4693 46.7615C29.5164 46.8395 29.5848 46.902 29.666 46.9412" fill="black"/>
<path d="M43.7711 35.6493L51.0727 26.3861C51.2275 26.2322 51.4071 26.1064 51.6037 26.0143L56.5488 24.4929C56.9974 24.3381 57.3693 24.0118 57.5861 23.5828C57.8028 23.1539 57.8474 22.6559 57.7104 22.1941C57.6391 21.9614 57.5227 21.7456 57.3681 21.5594C57.2135 21.3733 57.0239 21.2206 56.8105 21.1103C56.597 21 56.3641 20.9344 56.1253 20.9173C55.8866 20.9002 55.6469 20.932 55.4204 21.0108L50.5416 22.5997C50.3345 22.6513 50.1182 22.6513 49.9111 22.5997L38.6601 19.4557C38.5669 19.4415 38.4717 19.4527 38.3842 19.4884C38.2967 19.524 38.2201 19.5828 38.1622 19.6585L36.5028 21.9574C36.4752 21.9796 36.4529 22.0078 36.4375 22.04C36.4222 22.0722 36.4142 22.1075 36.4142 22.1433C36.4142 22.1791 36.4222 22.2145 36.4375 22.2467C36.4529 22.2789 36.4752 22.3071 36.5028 22.3293L43.6384 24.4929C43.8043 24.4929 43.8043 24.662 43.6384 24.6958L36.4032 27.0961C36.3642 27.1119 36.3223 27.1191 36.2803 27.1172C36.2383 27.1154 36.1972 27.1045 36.1596 27.0854C36.122 27.0662 36.0888 27.0392 36.0621 27.0061C36.0355 26.973 36.016 26.9346 36.005 26.8933L35.7726 26.1157C35.7428 26.0376 35.6855 25.9736 35.6119 25.9361C35.5383 25.8987 35.4536 25.8904 35.3744 25.9128L34.08 26.3523C34.0395 26.3636 34.0017 26.3834 33.9692 26.4106C33.9367 26.4377 33.9102 26.4715 33.8914 26.5098C33.8726 26.5481 33.862 26.59 33.8601 26.6328C33.8583 26.6756 33.8654 26.7182 33.8809 26.758L35.6731 32.4038C35.6841 32.4451 35.7036 32.4836 35.7303 32.5167C35.7569 32.5498 35.7901 32.5768 35.8277 32.596C35.8653 32.6151 35.9064 32.626 35.9484 32.6278C35.9904 32.6296 36.0323 32.6224 36.0713 32.6067L37.3657 32.201C37.4074 32.1859 37.4458 32.1625 37.4785 32.1321C37.5112 32.1017 37.5377 32.0649 37.5562 32.024C37.5748 31.983 37.5851 31.9387 37.5866 31.8936C37.5881 31.8485 37.5807 31.8036 37.5648 31.7615L37.3325 31.2544C37.317 31.2146 37.31 31.1719 37.3118 31.1291C37.3136 31.0864 37.3242 31.0445 37.343 31.0062C37.3618 30.9679 37.3883 30.9341 37.4208 30.9069C37.4533 30.8798 37.4911 30.86 37.5317 30.8487L44.7336 28.4484C44.8996 28.4484 44.9659 28.4484 44.7336 28.6174L40.4854 34.6351C40.4572 34.6605 40.4346 34.6917 40.4191 34.7267C40.4036 34.7616 40.3956 34.7996 40.3956 34.8379C40.3956 34.8763 40.4036 34.9142 40.4191 34.9492C40.4346 34.9842 40.4572 35.0154 40.4854 35.0408L43.1737 35.886C43.2482 35.9341 43.3345 35.9596 43.4227 35.9596C43.5108 35.9596 43.5971 35.9341 43.6716 35.886" fill="black"/>
<path d="M83.7633 39.7741C83.427 39.3711 83.0026 39.0541 82.5242 38.8486C82.0457 38.6431 81.5267 38.5548 81.0086 38.5909H78.7518C78.322 38.5672 77.8949 38.673 77.5238 38.8951C77.1453 39.1541 76.8828 39.5552 76.7937 40.0108L75.0015 50.3219C75.0387 50.5046 75.1365 50.6687 75.2786 50.7865C75.4207 50.9043 75.5982 50.9686 75.7814 50.9686C75.9646 50.9686 76.1421 50.9043 76.2842 50.7865C76.4263 50.6687 76.5241 50.5046 76.5613 50.3219L76.9596 48.0907H79.1501C79.8359 48.1578 80.5276 48.0579 81.1681 47.7993C81.8086 47.5407 82.3796 47.1307 82.834 46.6032C83.5493 45.6049 84.0163 44.4449 84.1948 43.2224C84.2862 42.686 84.3417 42.1438 84.3607 41.5997C84.3901 40.885 84.1794 40.1814 83.7633 39.6051V39.7741ZM82.5353 43.2224C82.4432 44.1292 82.1357 44.9995 81.6392 45.758C81.3926 46.0487 81.0866 46.281 80.7427 46.4387C80.3987 46.5964 80.0251 46.6756 79.6479 46.6708H77.2251L78.3535 40.0784H81.0086C81.3551 40.0676 81.6983 40.1492 82.0043 40.315C82.2947 40.5013 82.5074 40.7902 82.6017 41.1264C82.6274 41.3397 82.6274 41.5554 82.6017 41.7687C82.5791 42.3014 82.5236 42.8321 82.4357 43.3577" fill="black"/>
<path d="M136.932 39.7741C136.595 39.3711 136.171 39.0541 135.693 38.8486C135.214 38.6431 134.695 38.5548 134.177 38.5909H131.92C131.49 38.5672 131.063 38.673 130.692 38.8951C130.314 39.1541 130.051 39.5552 129.962 40.0108L128.203 50.3219C128.24 50.5046 128.338 50.6687 128.48 50.7865C128.622 50.9043 128.8 50.9686 128.983 50.9686C129.166 50.9686 129.344 50.9043 129.486 50.7865C129.628 50.6687 129.726 50.5046 129.763 50.3219L130.161 48.0907H132.385C133.066 48.1551 133.752 48.0538 134.386 47.7952C135.021 47.5365 135.586 47.128 136.036 46.6032C136.764 45.6127 137.233 44.449 137.396 43.2224C137.432 42.6821 137.432 42.14 137.396 41.5997C137.426 40.885 137.215 40.1814 136.799 39.6051L136.932 39.7741ZM135.571 43.2224C135.479 44.1292 135.171 44.9995 134.675 45.758C134.428 46.0487 134.122 46.281 133.778 46.4387C133.434 46.5964 133.061 46.6756 132.684 46.6708H130.261L131.389 40.0784H134.011C134.358 40.0644 134.702 40.1462 135.007 40.315C135.155 40.4019 135.285 40.5186 135.387 40.6581C135.49 40.7976 135.564 40.9569 135.604 41.1264C135.63 41.3397 135.63 41.5554 135.604 41.7687C135.637 42.2979 135.637 42.8285 135.604 43.3577" fill="black"/>
<path d="M66.0406 39.3685C65.8278 39.1074 65.5577 38.9011 65.2522 38.766C64.9466 38.6309 64.6141 38.5709 64.2816 38.5909H60.2658C60.0689 38.5907 59.8796 38.668 59.7374 38.8066C59.5952 38.9452 59.511 39.1344 59.5024 39.3347C59.5024 39.5409 59.5829 39.7387 59.726 39.8845C59.8692 40.0303 60.0633 40.1122 60.2658 40.1122H64.1157C64.2212 40.1055 64.3268 40.1233 64.4245 40.1643C64.5223 40.2053 64.6096 40.2684 64.6799 40.3489C64.7237 40.5379 64.7237 40.7346 64.6799 40.9236V41.1603L64.4807 42.2083H61.0291C60.337 42.176 59.6523 42.3651 59.071 42.7492C58.3823 43.3512 57.9435 44.197 57.843 45.1157C57.8017 45.4525 57.8017 45.7931 57.843 46.1299C57.8209 46.441 57.8593 46.7535 57.9561 47.0494C58.053 47.3453 58.2063 47.6187 58.4072 47.8541C58.9209 48.2464 59.5607 48.4275 60.1994 48.3612H63.5183C63.964 48.3959 64.4082 48.2768 64.7794 48.0231C65.1182 47.7341 65.3326 47.3216 65.3768 46.8737L66.3061 41.3969C66.3244 41.138 66.3244 40.8782 66.3061 40.6193C66.3184 40.1629 66.1908 39.7138 65.941 39.3347L66.0406 39.3685ZM63.7174 46.6708H59.8675C59.772 46.6748 59.6769 46.6554 59.5903 46.6142C59.5037 46.5731 59.428 46.5113 59.3697 46.4342C59.3232 46.257 59.3232 46.0705 59.3697 45.8933C59.3403 45.6349 59.3403 45.374 59.3697 45.1157C59.3979 44.6767 59.5475 44.2548 59.8011 43.8986C59.9033 43.7886 60.027 43.7017 60.1642 43.6435C60.3014 43.5852 60.4491 43.557 60.5977 43.5606H64.2152L63.7174 46.6708Z" fill="black"/>
<path d="M145.727 39.1655C145.01 38.752 144.194 38.5528 143.371 38.5907C142.259 38.5287 141.156 38.8244 140.218 39.4359C139.076 40.4523 138.373 41.8851 138.26 43.4252C138.121 44.0697 138.043 44.7263 138.027 45.386C138.013 45.9752 138.15 46.5579 138.426 47.0763C138.68 47.4914 139.039 47.8295 139.465 48.0555C139.891 48.2814 140.369 48.3869 140.848 48.361H144.897C145.009 48.385 145.124 48.3834 145.234 48.3564C145.345 48.3293 145.448 48.2774 145.536 48.2045C145.625 48.1316 145.696 48.0395 145.745 47.935C145.794 47.8305 145.819 47.7161 145.819 47.6003C145.819 47.4846 145.794 47.3702 145.745 47.2657C145.696 47.1612 145.625 47.0691 145.536 46.9962C145.448 46.9233 145.345 46.8714 145.234 46.8443C145.124 46.8173 145.009 46.8157 144.897 46.8397H141.014C140.829 46.8532 140.643 46.8237 140.471 46.7534C140.298 46.6831 140.144 46.5739 140.019 46.434C139.818 46.1953 139.69 45.9011 139.654 45.5888V45.3522C139.621 44.9472 139.621 44.5401 139.654 44.1351H144.765C145.188 44.1503 145.605 44.0322 145.959 43.797C146.362 43.4283 146.621 42.9243 146.69 42.3771C146.703 42.1069 146.703 41.836 146.69 41.5658C146.717 41.0974 146.624 40.6298 146.421 40.209C146.217 39.7882 145.909 39.4285 145.528 39.1655H145.727ZM144.964 42.3095V42.5462H139.985C140.073 41.9845 140.289 41.4517 140.616 40.991C140.895 40.6301 141.264 40.3519 141.684 40.1854C142.104 40.0189 142.561 39.9702 143.006 40.0444C143.37 40.0087 143.737 40.0087 144.101 40.0444C144.414 40.1191 144.687 40.3126 144.864 40.5854C145.061 40.8981 145.165 41.262 145.163 41.6334C145.177 41.8134 145.177 41.9943 145.163 42.1743" fill="black"/>
<path d="M74.67 39.7065C74.3655 39.3138 73.9686 39.0056 73.5161 38.8106C73.0636 38.6156 72.5701 38.54 72.0813 38.5909H68.7624C68.6512 38.5669 68.5361 38.5685 68.4256 38.5955C68.3151 38.6226 68.2119 38.6745 68.1236 38.7474C68.0352 38.8203 67.964 38.9124 67.9151 39.0169C67.8662 39.1214 67.8408 39.2357 67.8408 39.3515C67.8408 39.4673 67.8662 39.5817 67.9151 39.6862C67.964 39.7907 68.0352 39.8828 68.1236 39.9557C68.2119 40.0286 68.3151 40.0805 68.4256 40.1075C68.5361 40.1346 68.6512 40.1362 68.7624 40.1122H72.0813C72.3762 40.044 72.6825 40.044 72.9774 40.1122C73.1303 40.1677 73.2692 40.2572 73.384 40.3742C73.4988 40.4911 73.5866 40.6326 73.6412 40.7883C73.6829 41.1138 73.6829 41.4433 73.6412 41.7688C73.6577 41.9487 73.6577 42.1298 73.6412 42.3097H68.0986C67.9999 42.3096 67.9022 42.3299 67.8113 42.3693C67.7205 42.4088 67.6385 42.4666 67.5703 42.5393C67.502 42.612 67.4489 42.698 67.4142 42.7922C67.3796 42.8864 67.364 42.9868 67.3685 43.0872C67.3685 43.2845 67.4454 43.4737 67.5823 43.6131C67.7193 43.7526 67.905 43.831 68.0986 43.831H73.3093C73.1928 44.4167 73.0032 44.9847 72.7451 45.5213C72.5379 45.9037 72.2281 46.2181 71.852 46.4276C71.4758 46.6372 71.0488 46.7333 70.621 46.7046H67.103C66.9093 46.7046 66.7236 46.783 66.5867 46.9224C66.4498 47.0619 66.3728 47.2511 66.3728 47.4484C66.3683 47.5488 66.3839 47.6492 66.4186 47.7434C66.4533 47.8376 66.5063 47.9236 66.5746 47.9963C66.6428 48.069 66.7249 48.1268 66.8157 48.1663C66.9065 48.2057 67.0042 48.226 67.103 48.2259H70.0568C70.6646 48.2599 71.2727 48.1664 71.8436 47.9512C72.4145 47.7361 72.9359 47.4038 73.3757 46.9751C74.2694 45.9054 74.8247 44.5855 74.9687 43.1887C75.0113 42.6486 75.0113 42.106 74.9687 41.5659C75.0218 40.8536 74.8216 40.1456 74.4045 39.5713" fill="black"/>
<path d="M103.013 39.7062C102.708 39.3135 102.311 39.0053 101.859 38.8103C101.406 38.6153 100.913 38.5397 100.424 38.5906H97.1051C96.9115 38.5906 96.7257 38.669 96.5888 38.8084C96.4519 38.9479 96.375 39.1371 96.375 39.3344C96.3705 39.4348 96.386 39.5352 96.4207 39.6294C96.4554 39.7235 96.5085 39.8096 96.5767 39.8823C96.645 39.9549 96.727 40.0128 96.8178 40.0523C96.9086 40.0917 97.0064 40.112 97.1051 40.1119H100.424C100.719 40.0437 101.025 40.0437 101.32 40.1119C101.475 40.1629 101.617 40.2508 101.732 40.3684C101.848 40.486 101.934 40.6298 101.984 40.7881C102.042 41.1122 102.042 41.4443 101.984 41.7685C102 41.9484 102 42.1295 101.984 42.3094H96.375C96.2762 42.3093 96.1785 42.3296 96.0877 42.3691C95.9968 42.4085 95.9148 42.4664 95.8466 42.539C95.7783 42.6117 95.7252 42.6978 95.6906 42.7919C95.6559 42.8861 95.6403 42.9865 95.6448 43.087C95.6448 43.1846 95.6637 43.2813 95.7004 43.3716C95.7371 43.4618 95.7909 43.5438 95.8587 43.6129C95.9265 43.6819 96.007 43.7367 96.0955 43.7741C96.1841 43.8115 96.2791 43.8307 96.375 43.8307H101.586C101.469 44.4164 101.28 44.9845 101.021 45.5211C100.814 45.9035 100.504 46.2178 100.128 46.4274C99.7521 46.6369 99.3251 46.733 98.8973 46.7043H95.2797C95.1838 46.7043 95.0889 46.7236 95.0003 46.7609C94.9117 46.7983 94.8312 46.8531 94.7634 46.9222C94.6956 46.9912 94.6419 47.0732 94.6052 47.1635C94.5685 47.2537 94.5496 47.3504 94.5496 47.4481C94.5451 47.5486 94.5607 47.6489 94.5953 47.7431C94.63 47.8373 94.6831 47.9233 94.7513 47.996C94.8196 48.0687 94.9016 48.1265 94.9924 48.166C95.0832 48.2054 95.181 48.2257 95.2797 48.2256H98.2667C98.8747 48.2616 99.4834 48.1691 100.055 47.9538C100.626 47.7386 101.147 47.4052 101.586 46.9748C102.479 45.9052 103.035 44.5853 103.179 43.1884C103.275 42.6526 103.33 42.1101 103.345 41.5656C103.422 40.9259 103.306 40.2774 103.013 39.7062Z" fill="black"/>
<path d="M94.5828 41.9715C94.6362 41.1231 94.3889 40.2834 93.8858 39.605C93.4444 39.1862 92.9192 38.8697 92.3463 38.6771C91.7734 38.4845 91.1664 38.4205 90.567 38.4894C89.2558 38.3824 87.95 38.7538 86.883 39.5374C85.8589 40.5613 85.204 41.9074 85.0245 43.3576C84.9808 43.8637 84.9808 44.3728 85.0245 44.8789C84.9752 45.7478 85.2214 46.6074 85.7214 47.3131C86.1724 47.7188 86.698 48.0294 87.2677 48.2267C87.8374 48.424 88.4399 48.5041 89.0403 48.4625C90.3589 48.5442 91.6636 48.1491 92.7242 47.3469C93.7508 46.311 94.4054 44.9536 94.5828 43.4928C94.6216 42.9865 94.6216 42.4779 94.5828 41.9715ZM92.7906 43.4252C92.711 44.4311 92.3285 45.3874 91.6954 46.1636C90.9353 46.7485 89.9893 47.0255 89.0403 46.9412C88.1442 46.9412 87.1485 46.9412 86.7503 46.1974C86.5131 45.8391 86.3967 45.412 86.4184 44.9804C86.4329 44.503 86.4884 44.0279 86.5843 43.5605C86.6728 42.5303 87.0663 41.5518 87.7127 40.7545C88.4761 40.1786 89.4228 39.9134 90.3678 40.0107C91.1976 40.0107 92.2928 40.0107 92.6911 40.6868C92.8949 41.0572 92.9872 41.4805 92.9566 41.9039C92.9965 42.4102 92.9965 42.9189 92.9566 43.4252" fill="black"/>
<path d="M107.66 43.0195L111.41 39.943C111.51 39.8768 111.592 39.7868 111.65 39.6807C111.708 39.5747 111.739 39.4558 111.742 39.3345C111.742 39.1372 111.665 38.948 111.528 38.8086C111.391 38.6691 111.205 38.5907 111.012 38.5907C110.861 38.5415 110.698 38.5415 110.547 38.5907L106.697 41.7348L106.133 42.2757L106.631 39.4021C106.631 39.2971 106.61 39.1931 106.57 39.0965C106.529 38.9999 106.47 38.9126 106.396 38.84C106.321 38.7673 106.233 38.7107 106.137 38.6737C106.04 38.6367 105.937 38.62 105.834 38.6245C105.653 38.6217 105.476 38.6848 105.336 38.8025C105.197 38.9202 105.102 39.0849 105.071 39.2669L103.644 47.4482C103.639 47.5531 103.656 47.6579 103.692 47.7562C103.728 47.8544 103.784 47.9442 103.855 48.02C103.927 48.0958 104.012 48.1562 104.107 48.1973C104.202 48.2385 104.304 48.2597 104.407 48.2596C104.589 48.2624 104.765 48.1993 104.905 48.0816C105.045 47.9639 105.139 47.7992 105.17 47.6172L105.801 44.2365C105.91 44.4749 106.098 44.6665 106.332 44.7774L109.253 48.1582C109.332 48.2613 109.432 48.3451 109.547 48.4036C109.662 48.4621 109.788 48.4937 109.916 48.4962C110.131 48.4875 110.333 48.3946 110.482 48.237C110.63 48.0795 110.713 47.8695 110.713 47.651C110.717 47.4514 110.646 47.2577 110.514 47.1101L107.593 43.7294L107.66 43.0195Z" fill="black"/>
<path d="M128.402 39.1656C128.286 38.9634 128.114 38.8009 127.907 38.6986C127.7 38.5963 127.469 38.5588 127.241 38.5908H122.395C122.161 38.568 121.924 38.6021 121.705 38.6902C121.486 38.7783 121.29 38.9181 121.134 39.0979C120.904 39.4162 120.756 39.7881 120.703 40.1798L119.607 47.4145C119.607 47.5211 119.628 47.6266 119.668 47.725C119.708 47.8235 119.767 47.9129 119.841 47.9882C119.915 48.0636 120.002 48.1233 120.099 48.1641C120.196 48.2049 120.299 48.2259 120.404 48.2259C120.584 48.2223 120.757 48.1568 120.896 48.0402C121.034 47.9236 121.13 47.7626 121.167 47.5835L122.462 40.1798V39.9769H126.909L125.681 47.2455C125.681 47.352 125.702 47.4575 125.742 47.556C125.782 47.6544 125.84 47.7439 125.914 47.8192C125.988 47.8945 126.076 47.9543 126.173 47.9951C126.269 48.0359 126.373 48.0568 126.477 48.0568C126.662 48.0516 126.839 47.9814 126.978 47.8581C127.117 47.7347 127.21 47.566 127.241 47.3807L128.535 40.0107C128.553 39.8196 128.553 39.6272 128.535 39.436C128.58 39.2472 128.58 39.0501 128.535 38.8613" fill="black"/>
<path d="M119.773 39.3344C119.773 39.2338 119.753 39.1342 119.715 39.0417C119.676 38.9492 119.619 38.8657 119.548 38.7961C119.476 38.7266 119.392 38.6725 119.3 38.6372C119.207 38.6019 119.109 38.586 119.01 38.5906H116.488C115.288 38.5195 114.105 38.9051 113.169 39.6724C112.17 40.7166 111.55 42.0757 111.41 43.5265C111.365 44.089 111.365 44.6543 111.41 45.2168C111.391 45.8579 111.553 46.4911 111.874 47.0424C112.172 47.4805 112.576 47.8323 113.047 48.0634C113.519 48.2945 114.041 48.397 114.563 48.3609H117.881C117.993 48.3849 118.108 48.3833 118.218 48.3562C118.329 48.3292 118.432 48.2773 118.52 48.2044C118.609 48.1315 118.68 48.0394 118.729 47.9349C118.778 47.8304 118.803 47.716 118.803 47.6002C118.803 47.4844 118.778 47.3701 118.729 47.2656C118.68 47.161 118.609 47.069 118.52 46.9961C118.432 46.9232 118.329 46.8713 118.218 46.8442C118.108 46.8171 117.993 46.8155 117.881 46.8396H115.226C114.809 46.8357 114.395 46.7673 113.998 46.6367C113.804 46.5696 113.629 46.454 113.49 46.3005C113.351 46.147 113.252 45.9604 113.202 45.7577C113.178 45.5556 113.178 45.3513 113.202 45.1492C113.166 44.6879 113.166 44.2244 113.202 43.7631C113.316 43.0716 113.494 42.3925 113.733 41.7347C113.944 41.2295 114.302 40.8027 114.759 40.5123C115.216 40.222 115.75 40.0822 116.288 40.1119H119.043C119.246 40.1119 119.44 40.03 119.583 39.8842C119.726 39.7384 119.806 39.5406 119.806 39.3344" fill="black"/>
<path d="M163.416 39.3345C163.408 39.1342 163.324 38.945 163.181 38.8064C163.039 38.6678 162.85 38.5906 162.653 38.5907H160.131C158.93 38.513 157.745 38.8993 156.812 39.6726C155.802 40.7087 155.179 42.0721 155.053 43.5266C155.008 44.0891 155.008 44.6544 155.053 45.2169C155.022 45.6437 155.083 46.0723 155.231 46.4726C155.38 46.8729 155.612 47.2354 155.912 47.5348C156.213 47.8341 156.573 48.0632 156.969 48.2059C157.366 48.3486 157.787 48.4015 158.206 48.361H161.525C161.636 48.385 161.751 48.3834 161.861 48.3564C161.972 48.3293 162.075 48.2774 162.163 48.2045C162.252 48.1316 162.323 48.0395 162.372 47.935C162.421 47.8305 162.446 47.7162 162.446 47.6004C162.446 47.4846 162.421 47.3702 162.372 47.2657C162.323 47.1612 162.252 47.0691 162.163 46.9962C162.075 46.9233 161.972 46.8714 161.861 46.8443C161.751 46.8173 161.636 46.8157 161.525 46.8397H158.869C158.452 46.8386 158.038 46.7701 157.641 46.6369C157.447 46.5698 157.272 46.4542 157.133 46.3006C156.994 46.1471 156.895 45.9605 156.845 45.7579C156.821 45.5558 156.821 45.3514 156.845 45.1493C156.809 44.688 156.809 44.2245 156.845 43.7632C156.964 43.076 157.13 42.3982 157.343 41.7348C157.557 41.2325 157.916 40.8085 158.373 40.5187C158.829 40.2289 159.361 40.0871 159.898 40.1121H162.753C162.955 40.1121 163.149 40.0301 163.292 39.8843C163.435 39.7385 163.516 39.5407 163.516 39.3345" fill="black"/>
<path d="M155.551 39.3346C155.551 39.1373 155.474 38.9481 155.337 38.8086C155.2 38.6692 155.014 38.5908 154.821 38.5908H152.265C151.064 38.5097 149.878 38.8964 148.946 39.6726C147.924 40.7002 147.3 42.0684 147.187 43.5266C147.078 44.0839 147.011 44.6491 146.988 45.217C146.964 45.8635 147.138 46.5016 147.486 47.0426C147.781 47.4831 148.185 47.8368 148.657 48.0682C149.129 48.2996 149.652 48.4006 150.174 48.3611H153.493C153.592 48.3612 153.69 48.3409 153.78 48.3014C153.871 48.2619 153.953 48.2041 154.022 48.1314C154.09 48.0587 154.143 47.9727 154.178 47.8785C154.212 47.7844 154.228 47.684 154.223 47.5835C154.223 47.4858 154.204 47.3891 154.168 47.2989C154.131 47.2086 154.077 47.1267 154.009 47.0576C153.942 46.9885 153.861 46.9337 153.773 46.8964C153.684 46.859 153.589 46.8398 153.493 46.8398H150.838C150.41 46.8383 149.985 46.7699 149.577 46.6369C149.385 46.5647 149.214 46.4475 149.075 46.2947C148.937 46.142 148.836 45.958 148.78 45.7579C148.76 45.5556 148.76 45.3517 148.78 45.1494C148.744 44.6881 148.744 44.2246 148.78 43.7633C148.899 43.0761 149.066 42.3982 149.278 41.7349C149.489 41.2297 149.847 40.8029 150.304 40.5125C150.762 40.2221 151.296 40.0823 151.834 40.1121H154.622C154.72 40.1122 154.818 40.0919 154.909 40.0525C155 40.013 155.082 39.9552 155.15 39.8825C155.218 39.8098 155.271 39.7237 155.306 39.6296C155.341 39.5354 155.356 39.435 155.352 39.3346" fill="black"/>
</svg>
