<svg width="156" height="32" viewBox="0 0 156 32" fill="none" xmlns="http://www.w3.org/2000/svg">
<path d="M12.2231 25.6921C5.58235 25.6921 0.424072 20.086 0.424072 12.9282C0.424072 5.7704 5.58235 0.164307 12.2231 0.164307C17.7363 0.164307 21.8093 3.30297 23.3196 8.3093H18.2986C17.2091 6.08841 15.0323 4.43103 12.2231 4.43103C8.2203 4.43103 5.0593 8.3093 5.0593 12.9251C5.0593 17.5792 8.2203 21.4575 12.2231 21.4575C14.9973 21.4575 17.2091 19.7297 18.2986 17.5088H23.2846C21.7391 22.483 17.6311 25.6921 12.2231 25.6921Z" fill="black"/>
<path d="M31.0446 20.9323H42.8509V25.2684H26.3743V0.799316H31.0446V20.9323Z" fill="black"/>
<path d="M50.7451 25.2684H46.1099V0.799316H50.7451V25.2684Z" fill="black"/>
<path d="M66.0197 25.6921C59.383 25.6921 54.2217 20.086 54.2217 12.9282C54.2217 5.7704 59.38 0.164307 66.0197 0.164307C71.5328 0.164307 75.6068 3.30297 77.1172 8.3093H72.0951C71.0067 6.08841 68.8289 4.43103 66.0197 4.43103C62.0169 4.43103 58.8569 8.3093 58.8569 12.9251C58.8569 17.5792 62.0169 21.4575 66.0197 21.4575C68.7938 21.4575 71.0067 19.7297 72.0951 17.5088H77.0811C75.5367 22.483 71.4276 25.6921 66.0197 25.6921Z" fill="black"/>
<path d="M130.591 25.2684H125.956V0.799316H130.591V25.2684Z" fill="black"/>
<path d="M144.181 25.2684H135.158V0.799316H144.183C150.96 0.799316 155.174 5.48866 155.174 13.0339C155.172 20.5086 150.853 25.2684 144.181 25.2684ZM144.181 5.13646H139.791V20.9323H144.181C149.694 20.9323 150.537 15.9602 150.537 12.9986C150.537 9.40214 149.414 5.13646 144.181 5.13646Z" fill="black"/>
<path d="M104.702 15.4534C105.326 14.2788 106.096 13.1878 106.992 12.2061C108.085 11.0055 109.211 9.83395 110.324 8.65308C110.93 8.00981 111.551 7.38209 112.145 6.72847C112.54 6.29341 112.567 5.91947 112.303 5.42433C111.955 4.74332 111.374 4.21115 110.667 3.92545C110.394 3.81461 110.103 3.76489 109.841 3.93477C109.666 4.0443 109.505 4.17473 109.361 4.32322C107.211 6.57723 105.063 8.83435 102.918 11.0946C101.866 12.1995 100.812 13.3068 99.758 14.4166C98.9967 15.2197 98.2367 16.0232 97.4781 16.827C97.41 16.8995 97.3347 16.9658 97.248 17.0487L93.272 13.1052C93.3504 13.0161 93.4113 12.9436 93.4783 12.8742L96.9757 9.19897C98.3973 7.70597 99.8185 6.2133 101.239 4.72099C102.385 3.51733 103.529 2.31194 104.672 1.10483C104.724 1.04237 104.772 0.976251 104.815 0.906978L104.785 0.85933H104.502C102.129 0.85933 101.061 0.859329 98.6934 0.85415C98.599 0.849109 98.5048 0.865811 98.4179 0.902977C98.331 0.940144 98.2537 0.996787 98.192 1.06857C96.8343 2.51876 95.4729 3.96896 94.1076 5.41915C92.6386 6.98052 91.1698 8.54155 89.7014 10.1022C89.6596 10.1526 89.6067 10.1926 89.547 10.219C89.4872 10.2454 89.4221 10.2576 89.3569 10.2545C88.3624 10.2493 86.852 10.2545 85.8575 10.2545C85.7853 10.2545 85.7131 10.2462 85.6202 10.24C85.614 10.124 85.6037 10.0225 85.6037 9.92096C85.6037 7.14074 85.6037 4.36051 85.6037 1.58028C85.6037 1.41558 85.6037 1.25192 85.6151 1.08825C85.6264 0.924587 85.5449 0.859329 85.3737 0.860365C83.659 0.865544 82.7244 0.860365 81.0098 0.86658C80.9066 0.86658 80.8034 0.874866 80.6899 0.881082V25.2826C80.7931 25.2878 80.8725 25.2951 80.953 25.2951H85.2953C85.3396 25.2951 85.384 25.2951 85.4294 25.2951C85.4517 25.2981 85.4744 25.2961 85.4958 25.2891C85.5172 25.2821 85.5368 25.2704 85.553 25.2548C85.5693 25.2391 85.5818 25.22 85.5897 25.1988C85.5976 25.1776 85.6006 25.155 85.5986 25.1324C85.5986 25.0506 85.5986 24.9688 85.5986 24.887V16.017C85.6945 16.0066 85.7451 15.9962 85.7956 15.9962C86.8644 15.9962 87.9332 15.9962 89.002 15.9962C89.1092 16.0031 89.2107 16.0474 89.2888 16.1216C90.8652 17.6753 92.4374 19.2326 94.0055 20.7933C95.4595 22.2352 96.9124 23.6785 98.3643 25.1231C98.4197 25.1813 98.4871 25.2268 98.5617 25.2563C98.6363 25.2858 98.7164 25.2987 98.7965 25.294C101.042 25.294 102.51 25.294 104.754 25.294H105.683C105.683 25.294 104.402 24.5317 103.784 22.6205C103.633 22.1347 103.528 21.6361 103.468 21.131C103.351 19.9435 103.467 18.7446 103.808 17.6018C104.039 16.8595 104.338 16.1403 104.702 15.4534Z" fill="black"/>
<path d="M121.223 10.7188C121.277 10.665 121.32 10.6004 121.349 10.5291C121.378 10.4578 121.392 10.3814 121.39 10.3045C121.39 7.26592 121.39 4.22737 121.39 1.18883C121.384 1.08806 121.372 0.987747 121.354 0.888428H116.019L115.989 0.943329C116.026 0.995122 116.06 1.04691 116.098 1.09974C116.361 1.44883 116.643 1.78652 116.886 2.15011C117.475 3.03661 117.848 4.04959 117.976 5.10751C118.033 5.66998 118.04 6.23638 117.998 6.80012C117.955 7.66092 117.671 8.45751 117.26 9.20747C116.91 9.84764 116.435 10.3863 115.937 10.9104C114.481 12.4435 113.025 13.9783 111.57 15.5149C110.907 16.2172 110.283 16.9537 109.793 17.7938C109.452 18.3451 109.257 18.9748 109.227 19.6231C109.201 20.4787 109.477 21.2442 109.935 21.9517C110.013 22.0709 110.107 22.1807 110.2 22.305C110.285 22.2262 110.342 22.1786 110.392 22.1247C111.125 21.3554 111.856 20.5854 112.587 19.8148L116.588 15.5988C118.133 13.9718 119.678 12.3451 121.223 10.7188Z" fill="black"/>
<path d="M115.24 25.2742H121.39V18.7878C119.342 20.932 117.23 23.072 115.2 25.2173L115.24 25.2742Z" fill="black"/>
<path d="M82.6017 28.3946H82.1789C82.18 28.3241 82.1668 28.2541 82.14 28.1889C82.1132 28.1237 82.0735 28.0647 82.0232 28.0155C81.9748 27.9647 81.9165 27.9244 81.8519 27.8974C81.7873 27.8703 81.7179 27.8569 81.6479 27.8581C81.5785 27.8566 81.5095 27.8699 81.4456 27.897C81.3816 27.9242 81.324 27.9645 81.2767 28.0155C81.2275 28.0654 81.1886 28.1246 81.1624 28.1897C81.1362 28.2548 81.1232 28.3244 81.1241 28.3946C81.1238 28.4642 81.1372 28.5332 81.1636 28.5975C81.19 28.6619 81.2288 28.7203 81.2778 28.7695C81.3268 28.8187 81.3849 28.8577 81.449 28.8842C81.5131 28.9107 81.5817 28.9242 81.651 28.924C81.9025 28.9253 82.1434 29.0262 82.3214 29.2048C82.4993 29.3834 82.6 29.6253 82.6017 29.878C82.6032 30.0038 82.5797 30.1287 82.5324 30.2452C82.4851 30.3618 82.4151 30.4676 82.3264 30.5565C82.2405 30.6484 82.1364 30.7213 82.0208 30.7704C81.9052 30.8194 81.7806 30.8436 81.6551 30.8413C81.5293 30.8416 81.4046 30.8169 81.2884 30.7685C81.1722 30.7201 81.0666 30.6491 80.9778 30.5596C80.8891 30.47 80.8188 30.3636 80.7712 30.2467C80.7235 30.1297 80.6994 30.0044 80.7003 29.878H81.122C81.1209 29.9488 81.1342 30.019 81.1612 30.0844C81.1881 30.1498 81.2281 30.2089 81.2787 30.2582C81.3274 30.3086 81.3858 30.3486 81.4503 30.3756C81.5148 30.4027 81.5841 30.4163 81.6541 30.4156C81.7234 30.4167 81.7923 30.4033 81.8562 30.3762C81.9201 30.3491 81.9777 30.3089 82.0253 30.2582C82.0744 30.2081 82.1132 30.1487 82.1392 30.0834C82.1652 30.0181 82.178 29.9483 82.1768 29.878C82.1775 29.8084 82.1644 29.7394 82.1382 29.675C82.112 29.6106 82.0733 29.5521 82.0244 29.5029C81.9754 29.4537 81.9171 29.4148 81.853 29.3885C81.7889 29.3622 81.7202 29.349 81.651 29.3497C81.3994 29.3478 81.1587 29.2466 80.9808 29.0679C80.8029 28.8892 80.7021 28.6474 80.7003 28.3946C80.6989 28.2691 80.7224 28.1445 80.7695 28.0282C80.8166 27.9119 80.8863 27.8061 80.9745 27.7172C81.0605 27.625 81.1647 27.5519 81.2805 27.5026C81.3963 27.4534 81.5211 27.4291 81.6468 27.4313C81.7725 27.4314 81.897 27.4565 82.013 27.505C82.1291 27.5535 82.2345 27.6245 82.3232 27.714C82.4119 27.8035 82.4821 27.9097 82.5299 28.0265C82.5777 28.1433 82.6021 28.2684 82.6017 28.3946Z" fill="black"/>
<path d="M86.3381 30.6712H85.9141V30.2569C85.6862 30.5176 85.3845 30.7023 85.0494 30.7865C84.7143 30.8707 84.3615 30.8503 84.0382 30.728C83.7149 30.6057 83.4364 30.3874 83.2399 30.1022C83.0433 29.8169 82.938 29.4783 82.938 29.1314C82.938 28.7845 83.0433 28.4459 83.2399 28.1606C83.4364 27.8754 83.7149 27.657 84.0382 27.5348C84.3615 27.4125 84.7143 27.3921 85.0494 27.4763C85.3845 27.5605 85.6862 27.7452 85.9141 28.0059V27.5967H86.3381V30.6712ZM85.9141 29.1392C85.9143 28.8429 85.8122 28.5557 85.6252 28.3266C85.4382 28.0974 85.1778 27.9405 84.8884 27.8826C84.5991 27.8246 84.2987 27.8692 84.0384 28.0087C83.7781 28.1482 83.5741 28.3741 83.4611 28.6477C83.3481 28.9214 83.3331 29.2259 83.4186 29.5095C83.5042 29.793 83.6851 30.038 83.9303 30.2026C84.1756 30.3672 84.4702 30.4414 84.7638 30.4123C85.0575 30.3833 85.332 30.253 85.5406 30.0435C85.6611 29.9264 85.7564 29.7857 85.8207 29.6302C85.8849 29.4746 85.9167 29.3075 85.9141 29.1392Z" fill="black"/>
<path d="M89.6922 27.6021L88.4243 30.6711H87.957L86.6829 27.6021H87.143L88.1953 30.1139L89.2372 27.6021H89.6922Z" fill="black"/>
<path d="M93.0718 29.1393H90.0996C90.0994 29.3751 90.1641 29.6064 90.2866 29.8076C90.4091 30.0088 90.5847 30.172 90.7939 30.2793C91.0031 30.3865 91.2378 30.4335 91.4719 30.4151C91.7061 30.3967 91.9306 30.3137 92.1206 30.1751C92.336 30.0205 92.4968 29.801 92.5797 29.5484H93.0213C92.9314 29.9194 92.7196 30.2491 92.4201 30.4842C92.1206 30.7194 91.7509 30.8463 91.3706 30.8443C91.0346 30.8439 90.7063 30.7435 90.4271 30.5557C90.1479 30.3679 89.9305 30.1013 89.8022 29.7894C89.674 29.4776 89.6407 29.1346 89.7066 28.8037C89.7724 28.4729 89.9345 28.1691 90.1723 27.9307C90.4101 27.6924 90.713 27.5302 91.0426 27.4646C91.3722 27.3991 91.7138 27.4331 92.0241 27.5625C92.3344 27.6918 92.5996 27.9107 92.7861 28.1913C92.9726 28.472 93.072 28.8019 93.0718 29.1393ZM92.5715 28.7135C92.4841 28.4646 92.322 28.2491 92.1075 28.0966C91.8929 27.9441 91.6366 27.8622 91.3737 27.8622C91.1109 27.8622 90.8545 27.9441 90.64 28.0966C90.4255 28.2491 90.2634 28.4646 90.176 28.7135H92.5715Z" fill="black"/>
<path d="M97.8411 27.6021L94.776 31.8645H94.252L95.1093 30.6723V27.6021H95.5343V30.0818L97.317 27.6021H97.8411Z" fill="black"/>
<path d="M100.969 29.1393C100.969 29.5337 100.833 29.9159 100.584 30.2208C100.334 30.5257 99.9875 30.7344 99.6022 30.8113C99.2169 30.8882 98.8169 30.8286 98.4704 30.6426C98.124 30.4566 97.8525 30.1558 97.7022 29.7913C97.5519 29.4269 97.5321 29.0214 97.6462 28.644C97.7603 28.2665 98.0011 27.9404 98.3278 27.7213C98.6545 27.5022 99.0467 27.4036 99.4377 27.4423C99.8287 27.481 100.194 27.6546 100.472 27.9336C100.632 28.0898 100.759 28.2774 100.845 28.4847C100.93 28.6921 100.973 28.9148 100.969 29.1393ZM100.544 29.1393C100.544 28.843 100.442 28.5559 100.255 28.3267C100.068 28.0976 99.8079 27.9407 99.5185 27.8827C99.2292 27.8248 98.9288 27.8693 98.6685 28.0089C98.4082 28.1484 98.2042 28.3742 98.0912 28.6479C97.9781 28.9215 97.9631 29.226 98.0487 29.5095C98.1343 29.7931 98.3151 30.038 98.5604 30.2026C98.8057 30.3673 99.1003 30.4414 99.3939 30.4124C99.6875 30.3834 99.9621 30.253 100.171 30.0435C100.291 29.9264 100.387 29.7858 100.451 29.6302C100.515 29.4747 100.547 29.3076 100.544 29.1393Z" fill="black"/>
<path d="M104.026 30.6713H103.601V30.4641C103.408 30.6472 103.166 30.7696 102.905 30.8162C102.644 30.8628 102.375 30.8316 102.131 30.7263C101.887 30.6211 101.679 30.4466 101.533 30.2241C101.387 30.0017 101.309 29.7412 101.309 29.4748V27.5999H101.733V29.4748C101.728 29.6006 101.75 29.726 101.795 29.8434C101.84 29.9609 101.908 30.068 101.995 30.1585C102.082 30.249 102.186 30.3209 102.302 30.37C102.417 30.4192 102.541 30.4445 102.667 30.4445C102.792 30.4445 102.916 30.4192 103.032 30.37C103.147 30.3209 103.251 30.249 103.339 30.1585C103.426 30.068 103.494 29.9609 103.539 29.8434C103.584 29.726 103.605 29.6006 103.601 29.4748V27.5999H104.026V30.6713Z" fill="black"/>
<path d="M105.48 28.0278H105.311C105.255 28.0275 105.2 28.0384 105.148 28.0597C105.096 28.0811 105.05 28.1125 105.01 28.1522C104.971 28.1919 104.939 28.239 104.918 28.291C104.897 28.3429 104.886 28.3985 104.886 28.4546V30.6713H104.462V27.6021H104.886V27.7129C105.016 27.6391 105.162 27.6008 105.311 27.6021H105.48V28.0278Z" fill="black"/>
<path d="M108.525 28.0278H108.186V30.6713H107.761V28.0278H107.422V27.602H107.761V26.7495H108.186V27.602H108.525V28.0278Z" fill="black"/>
<path d="M111.583 30.6711H111.158V28.9662C111.158 28.7175 111.059 28.4791 110.884 28.3033C110.709 28.1275 110.472 28.0288 110.224 28.0288C109.977 28.0288 109.739 28.1275 109.564 28.3033C109.389 28.4791 109.291 28.7175 109.291 28.9662V30.6711H108.865V26.7495H109.291V27.977C109.483 27.7939 109.725 27.6715 109.986 27.6249C110.248 27.5783 110.517 27.6095 110.761 27.7147C111.004 27.8199 111.212 27.9945 111.358 28.2169C111.504 28.4393 111.582 28.6997 111.583 28.9662V30.6711Z" fill="black"/>
<path d="M112.346 27.2602H111.922V26.7495H112.346V27.2602ZM112.346 30.6713H111.922V27.602H112.346V30.6713Z" fill="black"/>
<path d="M115.403 30.6714H114.979V28.7955C114.983 28.6697 114.962 28.5443 114.917 28.4269C114.872 28.3094 114.804 28.2023 114.717 28.1118C114.63 28.0214 114.525 27.9494 114.41 27.9003C114.294 27.8512 114.17 27.8259 114.045 27.8259C113.92 27.8259 113.795 27.8512 113.68 27.9003C113.565 27.9494 113.46 28.0214 113.373 28.1118C113.286 28.2023 113.218 28.3094 113.173 28.4269C113.128 28.5443 113.107 28.6697 113.111 28.7955V30.6714H112.687V27.6022H113.111V27.8094C113.304 27.6263 113.545 27.5039 113.807 27.4573C114.068 27.4107 114.337 27.4419 114.581 27.5471C114.825 27.6523 115.032 27.8269 115.179 28.0493C115.325 28.2717 115.403 28.5322 115.403 28.7986V30.6714Z" fill="black"/>
<path d="M119.14 30.2623C119.143 30.4768 119.1 30.6896 119.014 30.8862C118.929 31.0828 118.802 31.2585 118.642 31.4016C118.326 31.7053 117.904 31.8719 117.466 31.8657C116.715 31.8657 116.197 31.5246 115.913 30.8423H116.338C116.448 31.029 116.606 31.1828 116.795 31.2877C116.984 31.3926 117.198 31.4448 117.414 31.4389C117.74 31.4419 118.055 31.3251 118.301 31.1106C118.544 30.8933 118.693 30.5885 118.714 30.2623C118.447 30.649 118.023 30.842 117.441 30.8413C117.157 30.8418 116.877 30.7707 116.627 30.6346C116.378 30.4986 116.166 30.3018 116.012 30.0623C115.858 29.8229 115.766 29.5484 115.744 29.264C115.723 28.9796 115.773 28.6944 115.89 28.4345C116.007 28.1746 116.187 27.9483 116.414 27.7763C116.64 27.6043 116.906 27.4922 117.187 27.4501C117.468 27.408 117.755 27.4373 118.022 27.5354C118.288 27.6335 118.526 27.7971 118.714 28.0114V27.6023H119.139L119.14 30.2623ZM118.715 29.1394C118.715 28.8432 118.613 28.556 118.426 28.3269C118.239 28.0978 117.978 27.9409 117.689 27.8829C117.4 27.825 117.099 27.8695 116.839 28.0091C116.579 28.1486 116.375 28.3744 116.262 28.6481C116.149 28.9217 116.134 29.2262 116.219 29.5097C116.305 29.7932 116.486 30.0382 116.731 30.2028C116.976 30.3674 117.271 30.4415 117.564 30.4125C117.858 30.3835 118.133 30.2532 118.341 30.0437C118.462 29.9268 118.557 29.7861 118.622 29.6306C118.686 29.475 118.718 29.3078 118.715 29.1394Z" fill="black"/>
<path d="M121.389 28.3947H120.967C120.968 28.3241 120.955 28.254 120.928 28.1888C120.901 28.1236 120.861 28.0647 120.81 28.0155C120.762 27.9647 120.704 27.9245 120.639 27.8974C120.574 27.8703 120.505 27.8569 120.435 27.8581C120.366 27.8566 120.297 27.8699 120.233 27.897C120.169 27.9242 120.111 27.9645 120.064 28.0155C120.015 28.0654 119.976 28.1247 119.95 28.1898C119.924 28.2549 119.911 28.3245 119.912 28.3947C119.912 28.4642 119.925 28.5332 119.951 28.5976C119.977 28.662 120.016 28.7206 120.065 28.7698C120.114 28.8191 120.172 28.858 120.236 28.8845C120.3 28.911 120.369 28.9244 120.438 28.924C120.69 28.9253 120.93 29.0263 121.108 29.2048C121.286 29.3834 121.387 29.6253 121.389 29.878C121.39 30.0037 121.367 30.1285 121.32 30.245C121.273 30.3615 121.203 30.4674 121.114 30.5565C121.028 30.6484 120.924 30.7212 120.808 30.7702C120.693 30.8193 120.568 30.8435 120.442 30.8414C120.316 30.8415 120.192 30.8166 120.076 30.7682C119.96 30.7198 119.854 30.6488 119.765 30.5593C119.677 30.4697 119.606 30.3634 119.559 30.2465C119.511 30.1296 119.487 30.0044 119.487 29.878H119.909C119.908 29.9488 119.921 30.019 119.948 30.0844C119.975 30.1498 120.015 30.2089 120.066 30.2582C120.114 30.3086 120.173 30.3486 120.237 30.3756C120.302 30.4027 120.371 30.4163 120.441 30.4156C120.511 30.4168 120.579 30.4034 120.643 30.3763C120.707 30.3492 120.765 30.3089 120.812 30.2582C120.862 30.2081 120.9 30.1487 120.926 30.0834C120.952 30.0182 120.965 29.9483 120.964 29.878C120.965 29.8084 120.952 29.7394 120.925 29.675C120.899 29.6106 120.86 29.5521 120.811 29.5029C120.762 29.4537 120.704 29.4148 120.64 29.3885C120.576 29.3622 120.507 29.349 120.438 29.3497C120.187 29.3478 119.946 29.2466 119.768 29.0679C119.59 28.8892 119.489 28.6474 119.487 28.3947C119.486 28.269 119.51 28.1443 119.557 28.028C119.604 27.9116 119.674 27.806 119.763 27.7172C119.848 27.6249 119.952 27.5517 120.068 27.5025C120.184 27.4532 120.308 27.429 120.434 27.4313C120.56 27.4314 120.684 27.4565 120.8 27.505C120.916 27.5535 121.022 27.6245 121.11 27.714C121.199 27.8035 121.269 27.9097 121.317 28.0265C121.365 28.1433 121.389 28.2684 121.389 28.3947Z" fill="black"/>
</svg>
