<svg width="140" height="49" viewBox="0 0 140 49" fill="none" xmlns="http://www.w3.org/2000/svg">
<path d="M31.8704 15.5617L26.407 7.01098C26.304 6.8564 26.2449 6.67585 26.2362 6.48925V2.02548C26.24 1.8175 26.2031 1.61085 26.1275 1.41759C26.052 1.22433 25.9394 1.04834 25.7964 0.899916C25.6533 0.751488 25.4826 0.633596 25.2943 0.55313C25.106 0.472664 24.9039 0.431239 24.6997 0.431274C24.2846 0.431274 23.8865 0.599235 23.593 0.898206C23.2995 1.19718 23.1346 1.60267 23.1346 2.02548V6.48925C23.1318 6.67269 23.0828 6.85233 22.9923 7.01098L17.5005 15.5617C17.46 15.6267 17.4385 15.7021 17.4385 15.7791C17.4385 15.8561 17.46 15.9315 17.5005 15.9965L18.8948 17.9965C18.9125 18.0265 18.9375 18.0513 18.9674 18.0686C18.9973 18.0858 19.0311 18.0949 19.0655 18.0949C19.0999 18.0949 19.1337 18.0858 19.1636 18.0686C19.1935 18.0513 19.2185 18.0265 19.2362 17.9965L22.9354 12.7501H23.1062V19.4168C23.1064 19.4536 23.0989 19.4901 23.0843 19.5238C23.0697 19.5575 23.0483 19.5877 23.0214 19.6123C22.9945 19.6369 22.9628 19.6555 22.9284 19.6668C22.8939 19.678 22.8575 19.6817 22.8216 19.6777H22.1956C22.1223 19.6842 22.0536 19.7168 22.0015 19.7698C21.9495 19.8228 21.9174 19.8928 21.911 19.9675V21.1559C21.9181 21.2277 21.9512 21.2941 22.0038 21.3424C22.0564 21.3906 22.1248 21.4171 22.1956 21.4168H27.2037C27.2716 21.4168 27.3368 21.3893 27.3848 21.3404C27.4328 21.2915 27.4598 21.2251 27.4598 21.1559V19.9675C27.4602 19.8954 27.4341 19.8257 27.3868 19.7722C27.3394 19.7186 27.2742 19.6849 27.2037 19.6777H26.5208C26.45 19.678 26.3816 19.6515 26.329 19.6032C26.2764 19.555 26.2433 19.4885 26.2362 19.4168V12.7791C26.2362 12.7791 26.2362 12.6052 26.407 12.7791L30.1062 18.0255C30.1272 18.0554 30.155 18.0798 30.1872 18.0966C30.2193 18.1134 30.255 18.1222 30.2911 18.1222C30.3273 18.1222 30.3629 18.1134 30.3951 18.0966C30.4272 18.0798 30.455 18.0554 30.4761 18.0255L31.8704 16.0255C31.9109 15.9605 31.9324 15.8851 31.9324 15.8081C31.9324 15.7311 31.9109 15.6557 31.8704 15.5907" fill="#E30613"/>
<path d="M16.4182 16.3442L6.74339 19.0399C6.57526 19.0828 6.39933 19.0828 6.2312 19.0399L2.01982 17.6196C1.82199 17.5471 1.61186 17.516 1.40197 17.5281C1.19208 17.5401 0.986722 17.5952 0.79816 17.6898C0.609599 17.7845 0.441697 17.9169 0.304477 18.0792C0.167257 18.2414 0.0635309 18.4301 -0.000509769 18.6341C-0.0795245 18.8427 -0.113746 19.0661 -0.100869 19.2893C-0.0879933 19.5126 -0.0283185 19.7304 0.0741372 19.9281C0.176593 20.1259 0.319451 20.2989 0.493094 20.4357C0.666736 20.5725 0.867133 20.6698 1.08079 20.7211L5.26372 22.1124C5.42343 22.1504 5.57059 22.2303 5.69055 22.3442L11.9792 30.2863C12.043 30.3275 12.117 30.3494 12.1926 30.3494C12.2682 30.3494 12.3422 30.3275 12.406 30.2863L14.6824 29.5616C14.7066 29.5399 14.726 29.5131 14.7393 29.4831C14.7526 29.4531 14.7595 29.4206 14.7595 29.3877C14.7595 29.3548 14.7526 29.3223 14.7393 29.2923C14.726 29.2623 14.7066 29.2356 14.6824 29.2138L11.0401 24.1124C11.0401 24.1124 11.0401 23.9095 11.0401 23.9674L17.2149 26.0254C17.2791 25.987 17.3556 25.9761 17.4276 25.9951C17.4997 26.0141 17.5613 26.0615 17.5991 26.1269C17.6368 26.1922 17.6475 26.2701 17.6288 26.3435C17.6102 26.4169 17.5636 26.4797 17.4995 26.5182L17.2718 27.1558C17.2591 27.2323 17.2717 27.3109 17.3078 27.3791C17.3439 27.4474 17.4014 27.5014 17.471 27.5327L18.5523 27.8805C18.5858 27.894 18.6218 27.9002 18.6578 27.8986C18.6938 27.897 18.729 27.8877 18.7612 27.8713C18.7935 27.8549 18.8219 27.8317 18.8448 27.8033C18.8676 27.775 18.8843 27.742 18.8938 27.7066L20.4588 22.866C20.4764 22.793 20.4654 22.716 20.4282 22.6511C20.3911 22.5862 20.3306 22.5385 20.2597 22.5182L19.1784 22.1413C19.1449 22.1278 19.1089 22.1217 19.0729 22.1232C19.0369 22.1248 19.0017 22.1341 18.9694 22.1505C18.9372 22.1669 18.9087 22.1901 18.8859 22.2185C18.8631 22.2469 18.8464 22.2799 18.8369 22.3153L18.6092 22.9819C18.5998 23.0173 18.5831 23.0503 18.5602 23.0787C18.5374 23.1071 18.5089 23.1302 18.4767 23.1467C18.4445 23.1631 18.4092 23.1724 18.3732 23.174C18.3372 23.1755 18.3013 23.1694 18.2678 23.1558L12.093 20.9529C12.093 20.9529 12.093 20.9529 12.093 20.779L18.1255 18.808C18.1492 18.789 18.1683 18.7648 18.1815 18.7372C18.1946 18.7096 18.2015 18.6793 18.2015 18.6486C18.2015 18.6179 18.1946 18.5876 18.1815 18.56C18.1683 18.5324 18.1492 18.5082 18.1255 18.4892L16.7027 16.5182C16.6599 16.4531 16.5995 16.4021 16.5288 16.3712C16.4581 16.3403 16.3802 16.331 16.3044 16.3442" fill="#E30613"/>
<path d="M12.3781 31.5908L11.8944 41.7647C11.8857 41.9513 11.8267 42.1318 11.7237 42.2864L9.13424 45.9096C9.01317 46.0765 8.92589 46.2663 8.87749 46.4679C8.82909 46.6695 8.82052 46.8789 8.8523 47.0839C8.88407 47.2889 8.95555 47.4854 9.06258 47.662C9.1696 47.8386 9.31004 47.9917 9.47571 48.1125C9.6381 48.2397 9.82424 48.3319 10.0228 48.3835C10.2213 48.435 10.4281 48.4448 10.6304 48.4123C10.8328 48.3797 11.0265 48.3055 11.1998 48.1942C11.3731 48.0828 11.5223 47.9367 11.6383 47.7647L14.2277 44.1415C14.353 44.0354 14.4983 43.9565 14.6546 43.9096L24.0164 40.2864C24.0893 40.2541 24.1519 40.2017 24.1971 40.1352C24.2424 40.0686 24.2684 39.9905 24.2725 39.9096V37.4748C24.276 37.439 24.27 37.4028 24.2553 37.3701C24.2405 37.3374 24.2174 37.3092 24.1885 37.2885C24.1595 37.2679 24.1256 37.2555 24.0904 37.2525C24.0551 37.2496 24.0198 37.2563 23.9879 37.2719L17.9554 39.3009C17.9554 39.3009 17.7847 39.3009 17.9554 39.156L21.7684 33.7937C21.8245 33.7465 21.8949 33.7208 21.9676 33.7208C22.0403 33.7208 22.1107 33.7465 22.1668 33.7937L22.7643 34.0545C22.7882 34.08 22.8169 34.1002 22.8487 34.114C22.8805 34.1278 22.9147 34.135 22.9493 34.135C22.9838 34.135 23.0181 34.1278 23.0498 34.114C23.0816 34.1002 23.1103 34.08 23.1342 34.0545L23.8172 33.127C23.8634 33.0699 23.8887 32.9981 23.8887 32.9241C23.8887 32.8501 23.8634 32.7783 23.8172 32.7212L19.7765 29.8226C19.7204 29.7755 19.65 29.7498 19.5773 29.7498C19.5046 29.7498 19.4342 29.7755 19.3781 29.8226L18.6952 30.7792C18.6703 30.8035 18.6504 30.8328 18.6368 30.8651C18.6233 30.8975 18.6163 30.9324 18.6163 30.9676C18.6163 31.0028 18.6233 31.0376 18.6368 31.07C18.6504 31.1024 18.6703 31.1316 18.6952 31.156L19.2359 31.5618C19.2821 31.6189 19.3074 31.6906 19.3074 31.7647C19.3074 31.8387 19.2821 31.9105 19.2359 31.9676L15.366 37.185C15.366 37.3299 15.1952 37.185 15.1952 37.185V30.6922C15.1963 30.6562 15.1892 30.6204 15.1744 30.5877C15.1596 30.555 15.1375 30.5263 15.1099 30.5037C15.0823 30.4812 15.0499 30.4656 15.0153 30.4581C14.9807 30.4505 14.9449 30.4513 14.9107 30.4603L12.6342 31.2429C12.56 31.2687 12.4942 31.3148 12.444 31.3761C12.3938 31.4375 12.3612 31.5118 12.3497 31.5908" fill="#E30613"/>
<path d="M25.3539 40.1994L34.7157 43.9095C34.8795 43.982 35.0254 44.0909 35.1425 44.2284L37.7319 47.8806C37.9762 48.215 38.3393 48.4388 38.7436 48.5038C39.1478 48.5688 39.561 48.4699 39.8945 48.2284C40.0611 48.1049 40.2022 47.9492 40.3096 47.7701C40.4169 47.591 40.4885 47.392 40.5203 47.1847C40.552 46.9773 40.5432 46.7656 40.4944 46.5617C40.4456 46.3578 40.3578 46.1657 40.236 45.9965L37.675 42.3733C37.5679 42.2294 37.4992 42.0596 37.4758 41.8806L36.9921 31.5907C36.984 31.5105 36.9525 31.4346 36.9019 31.3726C36.8512 31.3107 36.7835 31.2655 36.7075 31.2429L34.4311 30.4603C34.3982 30.4496 34.3631 30.4478 34.3293 30.4551C34.2954 30.4624 34.2641 30.4785 34.2382 30.5019C34.2124 30.5253 34.193 30.5552 34.1819 30.5885C34.1708 30.6219 34.1684 30.6576 34.175 30.6921V37.1559C34.175 37.3008 34.175 37.3298 34.0043 37.1559L30.1913 31.7936C30.145 31.7365 30.1197 31.6647 30.1197 31.5907C30.1197 31.5167 30.145 31.4449 30.1913 31.3878L30.7319 30.982C30.7569 30.9577 30.7768 30.9284 30.7903 30.896C30.8039 30.8636 30.8109 30.8288 30.8109 30.7936C30.8109 30.7584 30.8039 30.7236 30.7903 30.6912C30.7768 30.6588 30.7569 30.6295 30.7319 30.6052L30.049 29.6487C30.0251 29.6232 29.9964 29.603 29.9646 29.5892C29.9328 29.5754 29.8986 29.5682 29.864 29.5682C29.8295 29.5682 29.7953 29.5754 29.7635 29.5892C29.7317 29.603 29.703 29.6232 29.6791 29.6487L25.6384 32.5472C25.6087 32.5717 25.5848 32.6026 25.5683 32.6377C25.5518 32.6728 25.5433 32.7112 25.5433 32.7501C25.5433 32.789 25.5518 32.8274 25.5683 32.8625C25.5848 32.8977 25.6087 32.9286 25.6384 32.953L26.2929 33.8806C26.3461 33.9337 26.4176 33.9634 26.4921 33.9634C26.5666 33.9634 26.6381 33.9337 26.6913 33.8806L27.2319 33.4748C27.2558 33.4493 27.2845 33.4291 27.3163 33.4153C27.3481 33.4015 27.3823 33.3943 27.4169 33.3943C27.4514 33.3943 27.4857 33.4015 27.5174 33.4153C27.5492 33.4291 27.5779 33.4493 27.6018 33.4748L31.4149 38.8371C31.4149 38.8371 31.4149 39.011 31.4149 38.982L25.3823 36.953C25.2401 36.953 25.1262 36.953 25.0978 37.1559V39.5907C25.0959 39.6692 25.1163 39.7466 25.1568 39.8135C25.1972 39.8804 25.2558 39.9339 25.3254 39.9675" fill="#E30613"/>
<path d="M37.4191 30.2863L43.6792 22.3442C43.812 22.2122 43.966 22.1044 44.1345 22.0254L48.3744 20.7211C48.759 20.5883 49.0779 20.3085 49.2637 19.9407C49.4495 19.573 49.4878 19.146 49.3703 18.75C49.3091 18.5505 49.2093 18.3655 49.0768 18.2059C48.9443 18.0463 48.7817 17.9154 48.5987 17.8208C48.4157 17.7263 48.216 17.67 48.0113 17.6554C47.8066 17.6407 47.6011 17.668 47.4069 17.7355L43.224 19.0979C43.0464 19.1421 42.8609 19.1421 42.6833 19.0979L33.037 16.4022C32.9571 16.39 32.8754 16.3997 32.8004 16.4303C32.7254 16.4608 32.6597 16.5112 32.6101 16.5761L31.1874 18.5471C31.1637 18.5661 31.1446 18.5903 31.1314 18.618C31.1182 18.6456 31.1114 18.6759 31.1114 18.7066C31.1114 18.7373 31.1182 18.7676 31.1314 18.7952C31.1446 18.8228 31.1637 18.847 31.1874 18.866L37.3053 20.7211C37.4475 20.7211 37.4475 20.866 37.3053 20.895L31.102 22.9529C31.0685 22.9665 31.0326 22.9726 30.9966 22.9711C30.9606 22.9695 30.9253 22.9602 30.8931 22.9438C30.8609 22.9273 30.8324 22.9042 30.8096 22.8758C30.7867 22.8474 30.77 22.8144 30.7605 22.779L30.5614 22.1124C30.5357 22.0454 30.4866 21.9906 30.4235 21.9584C30.3604 21.9263 30.2879 21.9192 30.2199 21.9384L29.1101 22.3153C29.0754 22.3249 29.043 22.3419 29.0151 22.3652C28.9873 22.3885 28.9645 22.4175 28.9484 22.4503C28.9323 22.4831 28.9232 22.519 28.9216 22.5557C28.9201 22.5924 28.9261 22.629 28.9394 22.6631L30.476 27.5037C30.4855 27.5391 30.5022 27.572 30.525 27.6004C30.5479 27.6288 30.5763 27.652 30.6085 27.6684C30.6408 27.6848 30.676 27.6941 30.712 27.6957C30.748 27.6973 30.784 27.6911 30.8175 27.6776L31.9272 27.3297C31.963 27.3168 31.9959 27.2968 32.0239 27.2707C32.052 27.2446 32.0746 27.2131 32.0906 27.178C32.1065 27.1429 32.1153 27.1049 32.1166 27.0662C32.1179 27.0276 32.1115 26.9891 32.0979 26.9529L31.8988 26.5182C31.8855 26.484 31.8794 26.4474 31.881 26.4108C31.8825 26.3741 31.8917 26.3382 31.9078 26.3054C31.9239 26.2725 31.9466 26.2435 31.9745 26.2203C32.0024 26.197 32.0347 26.18 32.0695 26.1703L38.2443 24.1124C38.3866 24.1124 38.4435 24.1124 38.2443 24.2573L34.602 29.4167C34.5778 29.4385 34.5584 29.4652 34.5451 29.4952C34.5318 29.5252 34.5249 29.5577 34.5249 29.5906C34.5249 29.6235 34.5318 29.656 34.5451 29.686C34.5584 29.716 34.5778 29.7428 34.602 29.7645L36.9069 30.4892C36.9707 30.5304 37.0447 30.5523 37.1203 30.5523C37.1959 30.5523 37.2699 30.5304 37.3337 30.4892" fill="#E30613"/>
<path d="M71.7075 33.8227C71.4192 33.4772 71.0553 33.2055 70.6451 33.0293C70.2349 32.8531 69.7899 32.7774 69.3457 32.8082H67.4108C67.0423 32.7879 66.6761 32.8787 66.3579 33.0691C66.0334 33.2912 65.8083 33.6351 65.7319 34.0256L64.1953 42.8662C64.2272 43.0229 64.3111 43.1635 64.4329 43.2645C64.5547 43.3655 64.707 43.4206 64.864 43.4206C65.0211 43.4206 65.1733 43.3655 65.2951 43.2645C65.4169 43.1635 65.5008 43.0229 65.5327 42.8662L65.8742 40.9532H67.7522C68.3402 41.0107 68.9333 40.9251 69.4824 40.7034C70.0316 40.4816 70.5212 40.1301 70.9108 39.6778C71.5241 38.822 71.9244 37.8273 72.0774 36.7793C72.1559 36.3193 72.2034 35.8545 72.2197 35.388C72.2449 34.7751 72.0643 34.1719 71.7075 33.6778V33.8227ZM70.6547 36.7793C70.5757 37.5567 70.312 38.3028 69.8864 38.9532C69.6749 39.2024 69.4126 39.4016 69.1177 39.5368C68.8228 39.672 68.5024 39.7399 68.1791 39.7358H66.1018L67.0693 34.0836H69.3457C69.6428 34.0744 69.937 34.1443 70.1994 34.2865C70.4484 34.4462 70.6307 34.6939 70.7116 34.9822C70.7336 35.165 70.7336 35.35 70.7116 35.5329C70.6922 35.9896 70.6446 36.4446 70.5693 36.8952" fill="#9D9D9C"/>
<path d="M117.293 33.8227C117.005 33.4772 116.641 33.2055 116.23 33.0293C115.82 32.8531 115.375 32.7774 114.931 32.8082H112.996C112.628 32.7879 112.261 32.8787 111.943 33.0691C111.619 33.2912 111.394 33.6351 111.317 34.0256L109.809 42.8662C109.841 43.0229 109.925 43.1635 110.047 43.2645C110.168 43.3655 110.321 43.4206 110.478 43.4206C110.635 43.4206 110.787 43.3655 110.909 43.2645C111.031 43.1635 111.115 43.0229 111.146 42.8662L111.488 40.9532H113.394C113.978 41.0084 114.566 40.9215 115.11 40.6998C115.655 40.4781 116.139 40.1278 116.525 39.6778C117.149 38.8286 117.551 37.8309 117.691 36.7793C117.722 36.316 117.722 35.8512 117.691 35.388C117.716 34.7751 117.536 34.1719 117.179 33.6778L117.293 33.8227ZM116.126 36.7793C116.047 37.5567 115.784 38.3028 115.358 38.9532C115.146 39.2024 114.884 39.4016 114.589 39.5368C114.294 39.672 113.974 39.7399 113.651 39.7358H111.573L112.541 34.0836H114.789C115.086 34.0716 115.381 34.1417 115.642 34.2865C115.77 34.361 115.881 34.4611 115.969 34.5807C116.057 34.7003 116.12 34.8369 116.155 34.9822C116.177 35.165 116.177 35.35 116.155 35.5329C116.182 35.9865 116.182 36.4415 116.155 36.8952" fill="#9D9D9C"/>
<path d="M56.5125 33.4749C56.3301 33.2511 56.0985 33.0742 55.8365 32.9584C55.5745 32.8426 55.2895 32.7912 55.0044 32.8083H51.5613C51.3926 32.8081 51.2303 32.8743 51.1083 32.9932C50.9864 33.112 50.9142 33.2742 50.9068 33.4459C50.9068 33.6228 50.9758 33.7923 51.0985 33.9174C51.2213 34.0424 51.3877 34.1126 51.5613 34.1126H54.8621C54.9526 34.1069 55.0431 34.1221 55.127 34.1573C55.2108 34.1924 55.2856 34.2465 55.3459 34.3155C55.3834 34.4775 55.3834 34.6462 55.3459 34.8083V35.0112L55.1751 35.9097H52.2158C51.6224 35.882 51.0353 36.0442 50.5369 36.3735C49.9465 36.8897 49.5702 37.6148 49.4841 38.4025C49.4487 38.6912 49.4487 38.9833 49.4841 39.272C49.4651 39.5388 49.4981 39.8067 49.5811 40.0604C49.6641 40.314 49.7955 40.5485 49.9678 40.7503C50.4082 41.0867 50.9568 41.2419 51.5044 41.1851H54.3499C54.7321 41.2148 55.113 41.1127 55.4312 40.8952C55.7217 40.6474 55.9055 40.2937 55.9434 39.9097L56.7402 35.2141C56.7559 34.9921 56.7559 34.7693 56.7402 34.5474C56.7507 34.156 56.6413 33.7711 56.4272 33.4459L56.5125 33.4749ZM54.5207 39.7358H51.2199C51.138 39.7392 51.0565 39.7226 50.9822 39.6873C50.9079 39.652 50.843 39.599 50.793 39.5329C50.7532 39.381 50.7532 39.2211 50.793 39.0691C50.7679 38.8477 50.7679 38.624 50.793 38.4025C50.8173 38.0261 50.9455 37.6643 51.1629 37.359C51.2505 37.2647 51.3566 37.1902 51.4742 37.1402C51.5918 37.0903 51.7185 37.0661 51.8459 37.0691H54.9475L54.5207 39.7358Z" fill="#9D9D9C"/>
<path d="M124.833 33.3008C124.219 32.9464 123.519 32.7756 122.813 32.8081C121.86 32.7549 120.914 33.0084 120.11 33.5327C119.131 34.4041 118.528 35.6326 118.431 36.953C118.312 37.5056 118.245 38.0686 118.232 38.6342C118.22 39.1393 118.337 39.6389 118.573 40.0834C118.791 40.4393 119.099 40.7292 119.464 40.9229C119.83 41.1166 120.239 41.2071 120.651 41.1849H124.122C124.217 41.2055 124.316 41.2041 124.411 41.1809C124.506 41.1577 124.594 41.1132 124.67 41.0507C124.746 40.9882 124.807 40.9093 124.849 40.8196C124.89 40.73 124.912 40.632 124.912 40.5327C124.912 40.4334 124.89 40.3354 124.849 40.2458C124.807 40.1562 124.746 40.0772 124.67 40.0147C124.594 39.9522 124.506 39.9078 124.411 39.8845C124.316 39.8613 124.217 39.86 124.122 39.8805H120.793C120.634 39.8921 120.475 39.8668 120.327 39.8066C120.179 39.7463 120.046 39.6527 119.939 39.5327C119.767 39.3281 119.658 39.0759 119.626 38.8081V38.6052C119.598 38.2579 119.598 37.909 119.626 37.5617H124.008C124.371 37.5747 124.729 37.4735 125.033 37.2719C125.378 36.9557 125.6 36.5236 125.659 36.0545C125.67 35.8227 125.67 35.5905 125.659 35.3588C125.682 34.9573 125.603 34.5564 125.428 34.1956C125.253 33.8347 124.99 33.5264 124.663 33.3008H124.833ZM124.179 35.9965V36.1994H119.911C119.986 35.7178 120.171 35.261 120.451 34.8661C120.69 34.5566 121.007 34.3181 121.367 34.1753C121.727 34.0326 122.119 33.9908 122.5 34.0545C122.812 34.0238 123.127 34.0238 123.439 34.0545C123.707 34.1185 123.941 34.2844 124.094 34.5182C124.262 34.7864 124.351 35.0984 124.35 35.4168C124.362 35.5711 124.362 35.7262 124.35 35.8805" fill="#9D9D9C"/>
<path d="M63.9109 33.7647C63.6498 33.428 63.3095 33.1638 62.9215 32.9966C62.5335 32.8294 62.1104 32.7646 61.6914 32.8082H58.8458C58.7505 32.7876 58.6518 32.789 58.5571 32.8122C58.4623 32.8354 58.3738 32.8799 58.2981 32.9424C58.2224 33.0049 58.1613 33.0838 58.1193 33.1734C58.0774 33.2631 58.0556 33.3611 58.0556 33.4604C58.0556 33.5597 58.0774 33.6577 58.1193 33.7473C58.1613 33.8369 58.2224 33.9158 58.2981 33.9783C58.3738 34.0409 58.4623 34.0853 58.5571 34.1085C58.6518 34.1318 58.7505 34.1331 58.8458 34.1125H61.6914C61.9442 34.0541 62.2068 34.0541 62.4596 34.1125C62.5908 34.1602 62.7098 34.2369 62.8083 34.3371C62.9067 34.4374 62.982 34.5587 63.0287 34.6923C63.0645 34.9713 63.0645 35.2538 63.0287 35.5328C63.0429 35.6871 63.0429 35.8423 63.0287 35.9966H58.2767C58.1921 35.9965 58.1083 36.0139 58.0304 36.0478C57.9525 36.0816 57.8822 36.1312 57.8237 36.1935C57.7652 36.2558 57.7197 36.3296 57.6899 36.4103C57.6602 36.4911 57.6468 36.5771 57.6507 36.6633C57.6507 36.8324 57.7166 36.9946 57.8341 37.1142C57.9515 37.2338 58.1107 37.3009 58.2767 37.3009H62.7442C62.6444 37.8031 62.4818 38.2902 62.2605 38.7502C62.0829 39.0781 61.8173 39.3476 61.4947 39.5273C61.1722 39.7069 60.8061 39.7893 60.4393 39.7647H57.4231C57.257 39.7647 57.0978 39.8319 56.9804 39.9515C56.863 40.0711 56.797 40.2333 56.797 40.4024C56.7932 40.4885 56.8065 40.5746 56.8363 40.6553C56.866 40.7361 56.9115 40.8098 56.97 40.8722C57.0285 40.9345 57.0989 40.9841 57.1767 41.0179C57.2546 41.0517 57.3384 41.0692 57.4231 41.0691H59.9556C60.4767 41.0982 60.9981 41.018 61.4876 40.8335C61.977 40.6491 62.4241 40.3642 62.8011 39.9966C63.5674 39.0795 64.0435 37.9479 64.167 36.7502C64.2034 36.2872 64.2034 35.8219 64.167 35.3589C64.2125 34.7482 64.0408 34.1412 63.6832 33.6488" fill="#9D9D9C"/>
<path d="M88.2118 33.7645C87.9507 33.4278 87.6104 33.1636 87.2225 32.9964C86.8345 32.8292 86.4114 32.7644 85.9923 32.808H83.1468C82.9807 32.808 82.8215 32.8752 82.7041 32.9948C82.5867 33.1144 82.5208 33.2766 82.5208 33.4457C82.5169 33.5318 82.5303 33.6179 82.56 33.6986C82.5897 33.7794 82.6352 33.8531 82.6937 33.9155C82.7523 33.9778 82.8226 34.0274 82.9005 34.0612C82.9783 34.095 83.0621 34.1124 83.1468 34.1124H85.9923C86.2452 34.0539 86.5077 34.0539 86.7606 34.1124C86.8938 34.1561 87.0149 34.2314 87.1138 34.3322C87.2128 34.433 87.2868 34.5564 87.3297 34.6921C87.3793 34.97 87.3793 35.2547 87.3297 35.5326C87.3439 35.6869 87.3439 35.8422 87.3297 35.9964H82.5208C82.4361 35.9963 82.3523 36.0137 82.2744 36.0476C82.1966 36.0814 82.1263 36.131 82.0677 36.1933C82.0092 36.2556 81.9637 36.3294 81.934 36.4101C81.9042 36.4909 81.8909 36.5769 81.8947 36.6631C81.8947 36.7468 81.9109 36.8297 81.9424 36.9071C81.9739 36.9845 82.02 37.0548 82.0781 37.114C82.1362 37.1732 82.2052 37.2202 82.2812 37.2522C82.3571 37.2843 82.4386 37.3008 82.5208 37.3008H86.9882C86.8884 37.8029 86.7258 38.29 86.5045 38.75C86.3269 39.0779 86.0613 39.3474 85.7388 39.5271C85.4163 39.7067 85.0502 39.7891 84.6834 39.7645H81.5817C81.4995 39.7645 81.4181 39.781 81.3422 39.8131C81.2662 39.8451 81.1972 39.8921 81.1391 39.9513C81.0809 40.0105 81.0348 40.0808 81.0034 40.1582C80.9719 40.2355 80.9557 40.3185 80.9557 40.4022C80.9519 40.4884 80.9652 40.5744 80.995 40.6551C81.0247 40.7359 81.0702 40.8097 81.1287 40.872C81.1872 40.9343 81.2575 40.9839 81.3354 41.0177C81.4133 41.0516 81.4971 41.069 81.5817 41.0689H84.1427C84.664 41.0997 85.1859 41.0204 85.6756 40.8358C86.1653 40.6513 86.6122 40.3655 86.9882 39.9964C87.7545 39.0793 88.2306 37.9477 88.3541 36.75C88.4366 36.2907 88.4842 35.8255 88.4964 35.3587C88.5624 34.8102 88.4632 34.2542 88.2118 33.7645Z" fill="#9D9D9C"/>
<path d="M80.9839 35.7067C81.0297 34.9793 80.8177 34.2593 80.3864 33.6777C80.0079 33.3186 79.5576 33.0472 79.0664 32.8821C78.5752 32.717 78.0548 32.6621 77.5409 32.7211C76.4167 32.6294 75.2971 32.9479 74.3823 33.6197C73.5043 34.4976 72.9428 35.6517 72.7888 36.8951C72.7514 37.329 72.7514 37.7655 72.7888 38.1994C72.7466 38.9443 72.9577 39.6813 73.3864 40.2864C73.7731 40.6343 74.2237 40.9005 74.7122 41.0697C75.2006 41.2389 75.7172 41.3076 76.2319 41.2719C77.3625 41.3419 78.481 41.0031 79.3904 40.3154C80.2706 39.4272 80.8318 38.2634 80.9839 37.011C81.0172 36.5769 81.0172 36.1408 80.9839 35.7067ZM79.4474 36.953C79.3791 37.8154 79.0511 38.6354 78.5083 39.3009C77.8566 39.8023 77.0456 40.0398 76.2319 39.9675C75.4636 39.9675 74.61 39.9675 74.2685 39.3298C74.0652 39.0226 73.9653 38.6564 73.9839 38.2864C73.9964 37.8771 74.044 37.4698 74.1262 37.069C74.2021 36.1857 74.5394 35.3468 75.0937 34.6632C75.7482 34.1695 76.5599 33.9421 77.3701 34.0255C78.0815 34.0255 79.0205 34.0255 79.362 34.6052C79.5367 34.9227 79.6159 35.2856 79.5896 35.6487C79.6239 36.0828 79.6239 36.5189 79.5896 36.953" fill="#9D9D9C"/>
<path d="M92.1952 36.6051L95.4106 33.9674C95.4962 33.9107 95.5669 33.8335 95.6165 33.7425C95.6661 33.6516 95.6931 33.5497 95.6952 33.4457C95.6952 33.2766 95.6292 33.1144 95.5118 32.9948C95.3944 32.8752 95.2352 32.808 95.0692 32.808C94.9396 32.7658 94.8004 32.7658 94.6708 32.808L91.37 35.5036L90.8862 35.9674L91.3131 33.5036C91.3131 33.4136 91.2953 33.3245 91.2607 33.2416C91.226 33.1588 91.1752 33.084 91.1114 33.0217C91.0476 32.9594 90.9721 32.9109 90.8893 32.8792C90.8066 32.8474 90.7184 32.8331 90.6301 32.837C90.4746 32.8346 90.3233 32.8887 90.2034 32.9896C90.0834 33.0905 90.0027 33.2317 89.9757 33.3877L88.7521 40.4022C88.7482 40.4922 88.7623 40.582 88.7935 40.6662C88.8247 40.7505 88.8723 40.8274 88.9334 40.8925C88.9946 40.9575 89.068 41.0092 89.1493 41.0445C89.2307 41.0798 89.3182 41.0979 89.4066 41.0978C89.5621 41.1003 89.7134 41.0462 89.8333 40.9452C89.9533 40.8443 90.034 40.7032 90.061 40.5471L90.6017 37.6486C90.695 37.853 90.8563 38.0172 91.057 38.1123L93.561 41.0109C93.6288 41.0993 93.715 41.1712 93.8134 41.2213C93.9119 41.2715 94.0201 41.2986 94.1301 41.3007C94.3138 41.2933 94.4875 41.2136 94.6149 41.0785C94.7422 40.9434 94.8132 40.7634 94.8131 40.5761C94.8167 40.4049 94.7556 40.2389 94.6423 40.1123L92.1383 37.2138L92.1952 36.6051Z" fill="#9D9D9C"/>
<path d="M109.98 33.3009C109.881 33.1276 109.733 32.9882 109.556 32.9005C109.378 32.8128 109.179 32.7807 108.984 32.8081H104.83C104.629 32.7886 104.426 32.8178 104.238 32.8933C104.05 32.9689 103.882 33.0887 103.748 33.2429C103.551 33.5158 103.424 33.8346 103.378 34.1704L102.439 40.3733C102.439 40.4647 102.457 40.5552 102.491 40.6396C102.526 40.724 102.576 40.8006 102.639 40.8652C102.703 40.9298 102.778 40.9811 102.861 41.016C102.944 41.051 103.033 41.069 103.122 41.069C103.276 41.0659 103.425 41.0098 103.544 40.9098C103.663 40.8098 103.745 40.6718 103.777 40.5183L104.887 34.1704V33.9965H108.7L107.647 40.2284C107.647 40.3198 107.664 40.4102 107.699 40.4946C107.733 40.579 107.783 40.6557 107.847 40.7203C107.91 40.7849 107.985 40.8362 108.068 40.8711C108.151 40.9061 108.24 40.9241 108.33 40.9241C108.488 40.9196 108.64 40.8594 108.759 40.7536C108.878 40.6479 108.958 40.5032 108.984 40.3444L110.094 34.0255C110.109 33.8616 110.109 33.6967 110.094 33.5328C110.133 33.3709 110.133 33.2019 110.094 33.04" fill="#9D9D9C"/>
<path d="M102.582 33.4456C102.582 33.3594 102.565 33.274 102.531 33.1947C102.498 33.1154 102.449 33.0437 102.388 32.9841C102.327 32.9245 102.255 32.8782 102.175 32.8479C102.096 32.8176 102.012 32.804 101.927 32.8079H99.7644C98.7358 32.747 97.7217 33.0775 96.9189 33.7355C96.0627 34.6307 95.5308 35.796 95.4108 37.0398C95.3728 37.5221 95.3728 38.0068 95.4108 38.4891C95.3951 39.0388 95.5333 39.5816 95.8092 40.0543C96.0644 40.4299 96.411 40.7315 96.815 40.9297C97.219 41.1279 97.6666 41.2157 98.114 41.1847H100.96C101.055 41.2053 101.154 41.204 101.248 41.1807C101.343 41.1575 101.432 41.1131 101.507 41.0505C101.583 40.988 101.644 40.9091 101.686 40.8195C101.728 40.7299 101.75 40.6318 101.75 40.5326C101.75 40.4333 101.728 40.3353 101.686 40.2456C101.644 40.156 101.583 40.0771 101.507 40.0146C101.432 39.9521 101.343 39.9076 101.248 39.8844C101.154 39.8612 101.055 39.8598 100.96 39.8804H98.6831C98.3256 39.8771 97.9706 39.8185 97.6303 39.7065C97.4637 39.649 97.314 39.5499 97.1947 39.4182C97.0754 39.2866 96.9903 39.1266 96.9474 38.9529C96.9265 38.7796 96.9265 38.6044 96.9474 38.4311C96.9165 38.0356 96.9165 37.6382 96.9474 37.2427C97.0456 36.6498 97.198 36.0676 97.4027 35.5036C97.5833 35.0704 97.8905 34.7045 98.2825 34.4555C98.6746 34.2066 99.1324 34.0867 99.5937 34.1123H101.956C102.129 34.1123 102.296 34.042 102.418 33.917C102.541 33.792 102.61 33.6224 102.61 33.4456" fill="#9D9D9C"/>
<path d="M140 33.4458C139.993 33.274 139.921 33.1118 139.799 32.993C139.677 32.8742 139.515 32.8079 139.346 32.8081H137.183C136.154 32.7415 135.138 33.0727 134.338 33.7356C133.472 34.624 132.938 35.793 132.83 37.04C132.792 37.5223 132.792 38.0069 132.83 38.4893C132.803 38.8552 132.856 39.2226 132.983 39.5658C133.11 39.909 133.309 40.2198 133.567 40.4765C133.824 40.7332 134.134 40.9295 134.473 41.0519C134.813 41.1742 135.174 41.2196 135.533 41.1849H138.379C138.474 41.2055 138.573 41.2041 138.667 41.1809C138.762 41.1577 138.851 41.1132 138.926 41.0507C139.002 40.9882 139.063 40.9093 139.105 40.8197C139.147 40.73 139.169 40.632 139.169 40.5327C139.169 40.4334 139.147 40.3354 139.105 40.2458C139.063 40.1562 139.002 40.0772 138.926 40.0147C138.851 39.9522 138.762 39.9078 138.667 39.8845C138.573 39.8613 138.474 39.86 138.379 39.8806H136.102C135.744 39.8796 135.389 39.8209 135.049 39.7066C134.883 39.6491 134.733 39.55 134.614 39.4184C134.494 39.2867 134.409 39.1267 134.366 38.953C134.345 38.7798 134.345 38.6045 134.366 38.4313C134.335 38.0358 134.335 37.6384 134.366 37.2429C134.468 36.6537 134.611 36.0725 134.793 35.5037C134.977 35.0731 135.285 34.7095 135.676 34.4611C136.068 34.2126 136.524 34.0911 136.984 34.1124H139.431C139.605 34.1124 139.771 34.0422 139.894 33.9172C140.017 33.7922 140.086 33.6226 140.086 33.4458" fill="#9D9D9C"/>
<path d="M133.257 33.4458C133.257 33.2767 133.191 33.1145 133.073 32.9949C132.956 32.8753 132.797 32.8082 132.63 32.8082H130.439C129.41 32.7386 128.393 33.0702 127.594 33.7357C126.718 34.6167 126.182 35.7898 126.086 37.04C125.992 37.5179 125.935 38.0024 125.915 38.4893C125.894 39.0436 126.043 39.5907 126.342 40.0545C126.595 40.4322 126.941 40.7355 127.346 40.9339C127.75 41.1323 128.199 41.2189 128.647 41.185H131.492C131.577 41.1851 131.661 41.1677 131.739 41.1338C131.816 41.1 131.887 41.0504 131.945 40.9881C132.004 40.9258 132.049 40.852 132.079 40.7712C132.109 40.6905 132.122 40.6045 132.118 40.5183C132.118 40.4346 132.102 40.3516 132.071 40.2743C132.039 40.1969 131.993 40.1266 131.935 40.0674C131.877 40.0082 131.808 39.9612 131.732 39.9292C131.656 39.8971 131.574 39.8806 131.492 39.8806H129.216C128.849 39.8794 128.484 39.8207 128.135 39.7067C127.97 39.6448 127.823 39.5443 127.704 39.4133C127.586 39.2824 127.499 39.1247 127.452 38.9531C127.434 38.7796 127.434 38.6048 127.452 38.4313C127.421 38.0358 127.421 37.6385 127.452 37.2429C127.554 36.6537 127.696 36.0726 127.878 35.5038C128.059 35.0707 128.366 34.7047 128.758 34.4558C129.15 34.2068 129.608 34.087 130.07 34.1125H132.46C132.544 34.1126 132.628 34.0952 132.706 34.0613C132.784 34.0275 132.854 33.9779 132.913 33.9156C132.971 33.8533 133.017 33.7795 133.047 33.6988C133.076 33.618 133.09 33.532 133.086 33.4458" fill="#9D9D9C"/>
</svg>
