<svg width="107" height="112" viewBox="0 0 107 112" fill="none" xmlns="http://www.w3.org/2000/svg">
<path d="M103.887 55.3659C101.936 67.11 98.1295 87.6252 85.7693 98.7473C74.045 109.637 57.2772 111.169 42.8352 111.119C28.3177 111.238 12.3049 109.285 5.54845 99.5436C1.90165 94.7425 0.461511 87.5351 0.499257 79.8074C0.499257 71.7542 1.98004 63.3784 3.06015 57.3887C5.14486 44.918 9.50011 23.0631 21.268 12.3304C32.3478 1.91154 50.997 0.467143 64.324 0.545611C77.7644 0.310206 95.8038 2.30388 102.014 11.5719C105.208 15.9312 106.645 23.2259 106.605 31.0931C106.605 39.7624 105.054 48.856 103.887 55.3747" fill="#F6F6F6"/>
</svg>
