<svg width="240" height="157" viewBox="0 0 240 157" fill="none" xmlns="http://www.w3.org/2000/svg">
<g clip-path="url(#clip0)">
<path d="M0 4C0 1.79086 1.79086 0 4 0H236C238.209 0 240 1.79086 240 4V153C240 155.209 238.209 157 236 157H4C1.79086 157 0 155.209 0 153V4Z" fill="url(#paint0_radial)"/>
<g opacity="0.4">
<path d="M42.25 131.124C41.9617 130.779 41.5978 130.507 41.1876 130.331C40.7774 130.155 40.3323 130.079 39.8882 130.11H37.9532C37.5848 130.09 37.2186 130.18 36.9004 130.371C36.5759 130.593 36.3508 130.937 36.2744 131.327L34.7378 140.168C34.7697 140.325 34.8536 140.465 34.9754 140.566C35.0972 140.667 35.2494 140.722 35.4065 140.722C35.5635 140.722 35.7158 140.667 35.8376 140.566C35.9594 140.465 36.0433 140.325 36.0752 140.168L36.4167 138.255H38.2947C38.8827 138.312 39.4758 138.227 40.0249 138.005C40.5741 137.783 41.0636 137.432 41.4532 136.98C42.0665 136.124 42.4669 135.129 42.6199 134.081C42.6984 133.621 42.7459 133.156 42.7622 132.69C42.7874 132.077 42.6068 131.474 42.25 130.98V131.124ZM41.1971 134.081C41.1182 134.858 40.8545 135.605 40.4289 136.255C40.2174 136.504 39.9551 136.703 39.6602 136.839C39.3653 136.974 39.0449 137.042 38.7215 137.038H36.6443L37.6118 131.385H39.8882C40.1852 131.376 40.4795 131.446 40.7419 131.588C40.9908 131.748 41.1732 131.996 41.2541 132.284C41.2761 132.467 41.2761 132.652 41.2541 132.835C41.2347 133.291 41.1871 133.746 41.1118 134.197" fill="white"/>
<path d="M87.8353 131.124C87.547 130.779 87.1831 130.507 86.7729 130.331C86.3627 130.155 85.9177 130.079 85.4735 130.11H83.5386C83.1701 130.09 82.8039 130.18 82.4857 130.371C82.1612 130.593 81.9361 130.937 81.8597 131.327L80.3516 140.168C80.3835 140.325 80.4674 140.465 80.5892 140.566C80.711 140.667 80.8632 140.722 81.0203 140.722C81.1773 140.722 81.3296 140.667 81.4514 140.566C81.5732 140.465 81.6571 140.325 81.689 140.168L82.0304 138.255H83.9369C84.5205 138.31 85.1087 138.223 85.6529 138.002C86.1971 137.78 86.6818 137.43 87.067 136.98C87.6919 136.13 88.0934 135.133 88.2337 134.081C88.2646 133.618 88.2646 133.153 88.2337 132.69C88.2589 132.077 88.0782 131.474 87.7215 130.98L87.8353 131.124ZM86.6686 134.081C86.5897 134.858 86.326 135.605 85.9003 136.255C85.6889 136.504 85.4266 136.703 85.1317 136.839C84.8368 136.974 84.5164 137.042 84.193 137.038H82.1158L83.0833 131.385H85.3312C85.6285 131.373 85.9235 131.443 86.1849 131.588C86.3121 131.663 86.4232 131.763 86.5112 131.882C86.5993 132.002 86.6625 132.139 86.6971 132.284C86.7191 132.467 86.7191 132.652 86.6971 132.835C86.7249 133.288 86.7249 133.743 86.6971 134.197" fill="white"/>
<path d="M27.055 130.777C26.8726 130.553 26.641 130.376 26.379 130.26C26.117 130.144 25.832 130.093 25.5469 130.11H22.1038C21.935 130.11 21.7727 130.176 21.6508 130.295C21.5288 130.414 21.4567 130.576 21.4493 130.748C21.4493 130.925 21.5183 131.094 21.641 131.219C21.7638 131.344 21.9302 131.414 22.1038 131.414H25.4046C25.4951 131.409 25.5856 131.424 25.6694 131.459C25.7532 131.494 25.8281 131.548 25.8884 131.617C25.9259 131.779 25.9259 131.948 25.8884 132.11V132.313L25.7176 133.212H22.7583C22.1648 133.184 21.5778 133.346 21.0794 133.675C20.489 134.192 20.1127 134.917 20.0266 135.704C19.9911 135.993 19.9911 136.285 20.0266 136.574C20.0076 136.841 20.0405 137.109 20.1236 137.362C20.2066 137.616 20.338 137.85 20.5103 138.052C20.9507 138.389 21.4993 138.544 22.0469 138.487H24.8924C25.2746 138.517 25.6554 138.415 25.9737 138.197C26.2642 137.949 26.448 137.596 26.4859 137.212L27.2827 132.516C27.2984 132.294 27.2984 132.071 27.2827 131.849C27.2932 131.458 27.1838 131.073 26.9696 130.748L27.055 130.777ZM25.0631 137.038H21.7623C21.6804 137.041 21.5989 137.024 21.5247 136.989C21.4504 136.954 21.3855 136.901 21.3355 136.835C21.2957 136.683 21.2957 136.523 21.3355 136.371C21.3103 136.15 21.3103 135.926 21.3355 135.704C21.3597 135.328 21.488 134.966 21.7054 134.661C21.793 134.567 21.899 134.492 22.0167 134.442C22.1343 134.392 22.2609 134.368 22.3883 134.371H25.49L25.0631 137.038Z" fill="white"/>
<path d="M95.3759 130.603C94.7613 130.248 94.0611 130.077 93.3556 130.11C92.4022 130.057 91.4565 130.31 90.6523 130.835C89.6737 131.706 89.0706 132.935 88.9735 134.255C88.8544 134.807 88.7877 135.37 88.7743 135.936C88.7622 136.441 88.8799 136.941 89.1158 137.385C89.3338 137.741 89.6415 138.031 90.0068 138.225C90.3721 138.419 90.7817 138.509 91.193 138.487H94.6645C94.7599 138.507 94.8585 138.506 94.9533 138.483C95.0481 138.46 95.1365 138.415 95.2123 138.353C95.288 138.29 95.3491 138.211 95.391 138.122C95.433 138.032 95.4547 137.934 95.4547 137.835C95.4547 137.735 95.433 137.637 95.391 137.548C95.3491 137.458 95.288 137.379 95.2123 137.317C95.1365 137.254 95.0481 137.21 94.9533 137.186C94.8585 137.163 94.7599 137.162 94.6645 137.182H91.3353C91.1764 137.194 91.0171 137.169 90.8692 137.108C90.7213 137.048 90.5888 136.955 90.4816 136.835C90.3092 136.63 90.2002 136.378 90.1686 136.11V135.907C90.1406 135.56 90.1406 135.211 90.1686 134.864H94.5507C94.9133 134.877 95.271 134.775 95.5751 134.574C95.9204 134.258 96.1426 133.826 96.2011 133.356C96.2129 133.125 96.2129 132.892 96.2011 132.661C96.2246 132.259 96.1452 131.858 95.9705 131.497C95.7959 131.137 95.5322 130.828 95.2052 130.603H95.3759ZM94.7214 133.298V133.501H90.4532C90.528 133.02 90.7132 132.563 90.9938 132.168C91.2329 131.858 91.5491 131.62 91.9094 131.477C92.2697 131.334 92.661 131.293 93.0426 131.356C93.3549 131.326 93.6693 131.326 93.9816 131.356C94.2498 131.42 94.4839 131.586 94.6361 131.82C94.8047 132.088 94.8936 132.4 94.8922 132.719C94.9043 132.873 94.9043 133.028 94.8922 133.182" fill="white"/>
<path d="M34.4533 131.066C34.1922 130.73 33.852 130.466 33.464 130.298C33.076 130.131 32.6529 130.066 32.2338 130.11H29.3883C29.293 130.089 29.1943 130.091 29.0995 130.114C29.0048 130.137 28.9163 130.182 28.8406 130.244C28.7648 130.307 28.7038 130.386 28.6618 130.475C28.6199 130.565 28.5981 130.663 28.5981 130.762C28.5981 130.861 28.6199 130.959 28.6618 131.049C28.7038 131.139 28.7648 131.218 28.8406 131.28C28.9163 131.343 29.0048 131.387 29.0995 131.41C29.1943 131.434 29.293 131.435 29.3883 131.414H32.2338C32.4867 131.356 32.7492 131.356 33.0021 131.414C33.1332 131.462 33.2523 131.539 33.3507 131.639C33.4492 131.739 33.5245 131.86 33.5712 131.994C33.607 132.273 33.607 132.556 33.5712 132.835C33.5854 132.989 33.5854 133.144 33.5712 133.298H28.8192C28.7345 133.298 28.6507 133.316 28.5729 133.35C28.495 133.383 28.4247 133.433 28.3662 133.495C28.3076 133.558 28.2621 133.631 28.2324 133.712C28.2027 133.793 28.1893 133.879 28.1932 133.965C28.1932 134.134 28.2591 134.296 28.3765 134.416C28.4939 134.536 28.6532 134.603 28.8192 134.603H33.2867C33.1868 135.105 33.0243 135.592 32.8029 136.052C32.6253 136.38 32.3597 136.649 32.0372 136.829C31.7147 137.009 31.3486 137.091 30.9818 137.066H27.9655C27.7995 137.066 27.6403 137.134 27.5229 137.253C27.4055 137.373 27.3395 137.535 27.3395 137.704C27.3357 137.79 27.349 137.876 27.3787 137.957C27.4085 138.038 27.454 138.112 27.5125 138.174C27.571 138.236 27.6413 138.286 27.7192 138.32C27.7971 138.354 27.8809 138.371 27.9655 138.371H30.4981C31.0192 138.4 31.5406 138.32 32.0301 138.135C32.5195 137.951 32.9666 137.666 33.3436 137.298C34.1098 136.381 34.586 135.25 34.7094 134.052C34.7459 133.589 34.7459 133.124 34.7094 132.661C34.755 132.05 34.5833 131.443 34.2257 130.951" fill="white"/>
<path d="M58.7543 131.066C58.4932 130.73 58.1529 130.465 57.7649 130.298C57.377 130.131 56.9539 130.066 56.5348 130.11H53.6893C53.5232 130.11 53.364 130.177 53.2466 130.297C53.1292 130.416 53.0632 130.578 53.0632 130.748C53.0594 130.834 53.0727 130.92 53.1025 131.001C53.1322 131.081 53.1777 131.155 53.2362 131.217C53.2947 131.28 53.3651 131.329 53.4429 131.363C53.5208 131.397 53.6046 131.414 53.6893 131.414H56.5348C56.7877 131.356 57.0502 131.356 57.3031 131.414C57.4363 131.458 57.5574 131.533 57.6563 131.634C57.7553 131.735 57.8293 131.858 57.8722 131.994C57.9218 132.272 57.9218 132.557 57.8722 132.835C57.8863 132.989 57.8863 133.144 57.8722 133.298H53.0632C52.9786 133.298 52.8948 133.316 52.8169 133.349C52.7391 133.383 52.6687 133.433 52.6102 133.495C52.5517 133.558 52.5062 133.631 52.4765 133.712C52.4467 133.793 52.4334 133.879 52.4372 133.965C52.4372 134.049 52.4534 134.132 52.4849 134.209C52.5163 134.286 52.5625 134.357 52.6206 134.416C52.6787 134.475 52.7477 134.522 52.8237 134.554C52.8996 134.586 52.981 134.603 53.0632 134.603H57.5307C57.4309 135.105 57.2683 135.592 57.047 136.052C56.8694 136.38 56.6038 136.649 56.2813 136.829C55.9587 137.009 55.5926 137.091 55.2258 137.066H52.1242C52.042 137.066 51.9606 137.083 51.8847 137.115C51.8087 137.147 51.7397 137.194 51.6816 137.253C51.6234 137.312 51.5773 137.383 51.5459 137.46C51.5144 137.537 51.4982 137.62 51.4982 137.704C51.4944 137.79 51.5077 137.876 51.5374 137.957C51.5672 138.038 51.6127 138.112 51.6712 138.174C51.7297 138.236 51.8 138.286 51.8779 138.32C51.9558 138.353 52.0396 138.371 52.1242 138.371H54.6852C55.2065 138.402 55.7284 138.322 56.2181 138.138C56.7078 137.953 57.1547 137.667 57.5307 137.298C58.297 136.381 58.7731 135.25 58.8966 134.052C58.9791 133.593 59.0266 133.127 59.0389 132.661C59.1049 132.112 59.0057 131.556 58.7543 131.066Z" fill="white"/>
<path d="M51.5264 133.009C51.5722 132.281 51.3601 131.561 50.9289 130.98C50.5504 130.62 50.1001 130.349 49.6089 130.184C49.1177 130.019 48.5973 129.964 48.0833 130.023C46.9592 129.931 45.8396 130.25 44.9248 130.922C44.0467 131.799 43.4853 132.954 43.3313 134.197C43.2939 134.631 43.2939 135.067 43.3313 135.501C43.2891 136.246 43.5001 136.983 43.9289 137.588C44.3156 137.936 44.7662 138.202 45.2546 138.372C45.7431 138.541 46.2597 138.609 46.7744 138.574C47.905 138.644 49.0235 138.305 49.9329 137.617C50.813 136.729 51.3743 135.565 51.5264 134.313C51.5597 133.879 51.5597 133.443 51.5264 133.009ZM49.9898 134.255C49.9215 135.117 49.5936 135.937 49.0508 136.603C48.3991 137.104 47.588 137.342 46.7744 137.269C46.0061 137.269 45.1524 137.269 44.811 136.632C44.6077 136.324 44.5078 135.958 44.5264 135.588C44.5389 135.179 44.5865 134.772 44.6687 134.371C44.7445 133.488 45.0819 132.649 45.6362 131.965C46.2907 131.471 47.1023 131.244 47.9126 131.327C48.624 131.327 49.563 131.327 49.9045 131.907C50.0792 132.225 50.1584 132.588 50.1321 132.951C50.1663 133.385 50.1663 133.821 50.1321 134.255" fill="white"/>
<path d="M62.7377 133.907L65.9531 131.269C66.0387 131.213 66.1094 131.135 66.159 131.045C66.2086 130.954 66.2356 130.852 66.2377 130.748C66.2377 130.579 66.1717 130.416 66.0543 130.297C65.9369 130.177 65.7777 130.11 65.6116 130.11C65.4821 130.068 65.3428 130.068 65.2133 130.11L61.9125 132.806L61.4287 133.269L61.8555 130.806C61.8556 130.716 61.8378 130.626 61.8031 130.544C61.7685 130.461 61.7177 130.386 61.6539 130.324C61.5901 130.261 61.5145 130.213 61.4318 130.181C61.3491 130.149 61.2609 130.135 61.1726 130.139C61.0171 130.137 60.8658 130.191 60.7458 130.292C60.6259 130.393 60.5452 130.534 60.5181 130.69L59.2946 137.704C59.2907 137.794 59.3048 137.884 59.336 137.968C59.3671 138.052 59.4147 138.129 59.4759 138.194C59.5371 138.259 59.6105 138.311 59.6918 138.346C59.7731 138.382 59.8606 138.4 59.949 138.4C60.1046 138.402 60.2559 138.348 60.3758 138.247C60.4957 138.146 60.5765 138.005 60.6035 137.849L61.1442 134.951C61.2375 135.155 61.3988 135.319 61.5994 135.414L64.1035 138.313C64.1712 138.401 64.2575 138.473 64.3559 138.523C64.4544 138.573 64.5626 138.601 64.6726 138.603C64.8563 138.595 65.03 138.516 65.1573 138.381C65.2847 138.245 65.3557 138.065 65.3555 137.878C65.3592 137.707 65.2981 137.541 65.1848 137.414L62.6807 134.516L62.7377 133.907Z" fill="white"/>
<path d="M80.5226 130.603C80.4231 130.43 80.2753 130.29 80.098 130.203C79.9207 130.115 79.7219 130.083 79.5266 130.11H75.3722C75.171 130.091 74.9682 130.12 74.7803 130.195C74.5924 130.271 74.4247 130.391 74.2909 130.545C74.0934 130.818 73.9663 131.137 73.921 131.472L72.9819 137.675C72.9819 137.767 72.9996 137.857 73.0339 137.942C73.0682 138.026 73.1185 138.103 73.182 138.167C73.2454 138.232 73.3207 138.283 73.4035 138.318C73.4864 138.353 73.5752 138.371 73.6649 138.371C73.819 138.368 73.9675 138.312 74.0863 138.212C74.2051 138.112 74.2873 137.974 74.3193 137.82L75.4291 131.472V131.299H79.2421L78.1893 137.53C78.1893 137.622 78.2069 137.712 78.2412 137.797C78.2756 137.881 78.3259 137.958 78.3893 138.022C78.4527 138.087 78.528 138.138 78.6108 138.173C78.6937 138.208 78.7825 138.226 78.8722 138.226C79.0303 138.222 79.182 138.161 79.3014 138.056C79.4207 137.95 79.5003 137.805 79.5266 137.646L80.6364 131.328C80.6515 131.164 80.6515 130.999 80.6364 130.835C80.675 130.673 80.675 130.504 80.6364 130.342" fill="white"/>
<path d="M73.124 130.748C73.1241 130.661 73.107 130.576 73.0738 130.497C73.0405 130.417 72.9919 130.346 72.9307 130.286C72.8695 130.227 72.7971 130.18 72.7178 130.15C72.6386 130.12 72.5541 130.106 72.4695 130.11H70.3069C69.2783 130.049 68.2642 130.38 67.4614 131.037C66.6052 131.933 66.0733 133.098 65.9533 134.342C65.9153 134.824 65.9153 135.309 65.9533 135.791C65.9376 136.341 66.0758 136.884 66.3516 137.356C66.6068 137.732 66.9534 138.034 67.3575 138.232C67.7615 138.43 68.2091 138.518 68.6565 138.487H71.502C71.5974 138.507 71.6961 138.506 71.7908 138.483C71.8856 138.46 71.9741 138.415 72.0498 138.353C72.1255 138.29 72.1866 138.211 72.2285 138.121C72.2705 138.032 72.2922 137.934 72.2922 137.835C72.2922 137.735 72.2705 137.637 72.2285 137.548C72.1866 137.458 72.1255 137.379 72.0498 137.317C71.9741 137.254 71.8856 137.21 71.7908 137.186C71.6961 137.163 71.5974 137.162 71.502 137.182H69.2256C68.8681 137.179 68.5131 137.12 68.1728 137.008C68.0062 136.951 67.8564 136.852 67.7371 136.72C67.6178 136.589 67.5328 136.429 67.4898 136.255C67.469 136.082 67.469 135.906 67.4898 135.733C67.459 135.338 67.459 134.94 67.4898 134.545C67.5881 133.952 67.7405 133.37 67.9451 132.806C68.1257 132.372 68.433 132.006 68.825 131.758C69.2171 131.509 69.6749 131.389 70.1362 131.414H72.498C72.6716 131.414 72.838 131.344 72.9608 131.219C73.0835 131.094 73.1525 130.924 73.1525 130.748" fill="white"/>
<path d="M110.543 130.748C110.536 130.576 110.463 130.414 110.341 130.295C110.22 130.176 110.057 130.11 109.888 130.11H107.726C106.697 130.043 105.68 130.375 104.88 131.038C104.014 131.926 103.481 133.095 103.372 134.342C103.334 134.824 103.334 135.309 103.372 135.791C103.346 136.157 103.398 136.524 103.525 136.868C103.653 137.211 103.852 137.522 104.109 137.778C104.367 138.035 104.676 138.231 105.016 138.354C105.355 138.476 105.717 138.522 106.075 138.487H108.921C109.016 138.507 109.115 138.506 109.21 138.483C109.305 138.46 109.393 138.415 109.469 138.353C109.544 138.29 109.606 138.211 109.647 138.122C109.689 138.032 109.711 137.934 109.711 137.835C109.711 137.735 109.689 137.637 109.647 137.548C109.606 137.458 109.544 137.379 109.469 137.317C109.393 137.254 109.305 137.21 109.21 137.186C109.115 137.163 109.016 137.162 108.921 137.182H106.645C106.287 137.181 105.931 137.123 105.592 137.009C105.425 136.951 105.275 136.852 105.156 136.72C105.037 136.589 104.952 136.429 104.909 136.255C104.888 136.082 104.888 135.906 104.909 135.733C104.878 135.338 104.878 134.94 104.909 134.545C105.011 133.956 105.153 133.374 105.336 132.806C105.52 132.375 105.828 132.011 106.219 131.763C106.61 131.515 107.066 131.393 107.527 131.414H109.974C110.147 131.414 110.314 131.344 110.437 131.219C110.559 131.094 110.628 130.924 110.628 130.748" fill="white"/>
<path d="M103.799 130.748C103.799 130.578 103.733 130.416 103.616 130.297C103.498 130.177 103.339 130.11 103.173 130.11H100.982C99.9522 130.04 98.9351 130.372 98.1364 131.037C97.2601 131.918 96.7247 133.092 96.6282 134.342C96.5343 134.82 96.4772 135.304 96.4575 135.791C96.4365 136.345 96.5857 136.892 96.8843 137.356C97.1375 137.734 97.4837 138.037 97.8883 138.236C98.2928 138.434 98.7415 138.521 99.1892 138.487H102.035C102.119 138.487 102.203 138.469 102.281 138.436C102.359 138.402 102.429 138.352 102.488 138.29C102.546 138.228 102.592 138.154 102.622 138.073C102.651 137.992 102.665 137.906 102.661 137.82C102.661 137.736 102.645 137.653 102.613 137.576C102.582 137.499 102.536 137.428 102.477 137.369C102.419 137.31 102.35 137.263 102.274 137.231C102.198 137.199 102.117 137.182 102.035 137.182H99.7583C99.3913 137.181 99.0266 137.122 98.677 137.008C98.5129 136.947 98.3655 136.846 98.2468 136.715C98.1281 136.584 98.0415 136.426 97.9941 136.255C97.9764 136.081 97.9764 135.907 97.9941 135.733C97.9633 135.338 97.9633 134.94 97.9941 134.545C98.0961 133.955 98.2387 133.374 98.4209 132.806C98.6015 132.372 98.9088 132.006 99.3008 131.758C99.6929 131.509 100.151 131.389 100.612 131.414H103.002C103.087 131.414 103.171 131.397 103.249 131.363C103.326 131.329 103.397 131.28 103.455 131.217C103.514 131.155 103.559 131.081 103.589 131.001C103.619 130.92 103.632 130.834 103.628 130.748" fill="white"/>
</g>
<g opacity="0.15">
<path d="M239.535 80.8667L216.376 44.7734C215.94 44.1209 215.689 43.3588 215.653 42.5711V23.7292C215.669 22.8514 215.512 21.9791 215.192 21.1633C214.872 20.3475 214.394 19.6047 213.788 18.9782C213.182 18.3516 212.458 17.854 211.66 17.5144C210.862 17.1747 210.005 16.9998 209.139 17C207.38 17 205.692 17.709 204.448 18.971C203.204 20.2329 202.505 21.9445 202.505 23.7292V42.5711C202.493 43.3455 202.285 44.1038 201.902 44.7734L178.622 80.8667C178.451 81.1411 178.359 81.4594 178.359 81.7843C178.359 82.1093 178.451 82.4275 178.622 82.7019L184.533 91.1441C184.608 91.2708 184.714 91.3756 184.84 91.4484C184.967 91.5211 185.111 91.5594 185.256 91.5594C185.402 91.5594 185.545 91.5211 185.672 91.4484C185.799 91.3756 185.905 91.2708 185.98 91.1441L201.661 68.9987H202.384V97.1392C202.385 97.2947 202.354 97.4487 202.292 97.5909C202.23 97.7332 202.139 97.8605 202.025 97.9645C201.911 98.0686 201.777 98.1469 201.631 98.1945C201.485 98.242 201.33 98.2577 201.178 98.2404H198.524C198.214 98.2679 197.922 98.4057 197.702 98.6295C197.481 98.8532 197.345 99.1487 197.318 99.4639V104.48C197.348 104.783 197.488 105.064 197.712 105.267C197.935 105.471 198.224 105.583 198.524 105.581H219.754C220.042 105.581 220.318 105.465 220.521 105.259C220.725 105.052 220.839 104.772 220.839 104.48V99.4639C220.841 99.1595 220.73 98.8655 220.53 98.6393C220.329 98.413 220.052 98.2708 219.754 98.2404H216.859C216.559 98.2419 216.269 98.1299 216.046 97.9263C215.823 97.7227 215.683 97.4421 215.653 97.1392V69.1211C215.653 69.1211 215.653 68.387 216.376 69.1211L232.057 91.2664C232.146 91.3927 232.264 91.4956 232.4 91.5666C232.537 91.6376 232.688 91.6746 232.841 91.6746C232.994 91.6746 233.145 91.6376 233.282 91.5666C233.418 91.4956 233.536 91.3927 233.625 91.2664L239.535 82.8243C239.707 82.5499 239.798 82.2316 239.798 81.9067C239.798 81.5817 239.707 81.2634 239.535 80.989" fill="white"/>
<path d="M174.034 84.17L133.024 95.5486C132.311 95.7299 131.565 95.7299 130.852 95.5486L113.001 89.5534C112.162 89.2475 111.271 89.1161 110.382 89.167C109.492 89.218 108.621 89.4502 107.822 89.8499C107.023 90.2495 106.311 90.8084 105.729 91.4933C105.148 92.1781 104.708 92.9747 104.437 93.8357C104.102 94.7162 103.957 95.6593 104.011 96.6015C104.066 97.5437 104.319 98.4631 104.753 99.2978C105.187 100.132 105.793 100.863 106.529 101.44C107.265 102.018 108.115 102.429 109.02 102.645L126.751 108.518C127.428 108.678 128.052 109.016 128.561 109.496L155.218 143.02C155.488 143.194 155.802 143.287 156.122 143.287C156.443 143.287 156.757 143.194 157.027 143.02L166.677 139.962C166.779 139.87 166.862 139.757 166.918 139.63C166.974 139.504 167.003 139.366 167.003 139.228C167.003 139.089 166.974 138.951 166.918 138.825C166.862 138.698 166.779 138.585 166.677 138.493L151.237 116.96C151.237 116.96 151.237 116.103 151.237 116.348L177.412 125.035C177.684 124.873 178.008 124.827 178.313 124.907C178.619 124.987 178.88 125.187 179.04 125.463C179.2 125.739 179.246 126.068 179.166 126.378C179.087 126.687 178.89 126.953 178.618 127.115L177.653 129.807C177.599 130.129 177.653 130.461 177.806 130.749C177.959 131.037 178.202 131.265 178.497 131.397L183.081 132.865C183.223 132.922 183.375 132.948 183.528 132.942C183.68 132.935 183.83 132.896 183.967 132.827C184.103 132.757 184.224 132.66 184.321 132.54C184.417 132.42 184.488 132.281 184.528 132.131L191.163 111.699C191.237 111.391 191.19 111.066 191.033 110.792C190.875 110.518 190.619 110.317 190.318 110.231L185.735 108.64C185.593 108.583 185.44 108.557 185.288 108.564C185.135 108.57 184.986 108.609 184.849 108.679C184.712 108.748 184.592 108.846 184.495 108.966C184.398 109.085 184.327 109.225 184.287 109.374L183.322 112.188C183.282 112.338 183.211 112.477 183.114 112.597C183.018 112.716 182.897 112.814 182.76 112.884C182.624 112.953 182.474 112.992 182.322 112.999C182.169 113.005 182.017 112.979 181.875 112.922L155.7 103.624C155.7 103.624 155.7 103.624 155.7 102.89L181.272 94.5698C181.372 94.4896 181.453 94.3874 181.509 94.2709C181.565 94.1543 181.594 94.0264 181.594 93.8969C181.594 93.7673 181.565 93.6394 181.509 93.5229C181.453 93.4063 181.372 93.3041 181.272 93.2239L175.241 84.9041C175.059 84.6295 174.803 84.414 174.503 84.2838C174.204 84.1535 173.873 84.114 173.552 84.17" fill="white"/>
<path d="M156.909 148.526L154.858 191.471C154.822 192.258 154.571 193.021 154.135 193.673L143.158 208.967C142.645 209.671 142.275 210.472 142.07 211.323C141.865 212.174 141.828 213.058 141.963 213.923C142.098 214.789 142.401 215.618 142.854 216.364C143.308 217.109 143.903 217.756 144.606 218.265C145.294 218.803 146.083 219.192 146.925 219.409C147.766 219.627 148.643 219.668 149.501 219.531C150.358 219.393 151.18 219.08 151.914 218.61C152.649 218.14 153.281 217.523 153.773 216.797L164.749 201.503C165.28 201.055 165.896 200.722 166.559 200.525L206.243 185.231C206.552 185.095 206.817 184.874 207.009 184.592C207.201 184.311 207.311 183.982 207.328 183.64V173.363C207.343 173.212 207.318 173.059 207.255 172.921C207.193 172.783 207.095 172.664 206.972 172.577C206.849 172.489 206.706 172.437 206.556 172.425C206.407 172.412 206.257 172.441 206.122 172.507L180.551 181.071C180.551 181.071 179.827 181.071 180.551 180.459L196.714 157.825C196.951 157.626 197.25 157.517 197.558 157.517C197.866 157.517 198.165 157.626 198.402 157.825L200.935 158.926C201.037 159.033 201.158 159.118 201.293 159.177C201.428 159.235 201.573 159.265 201.719 159.265C201.866 159.265 202.011 159.235 202.146 159.177C202.28 159.118 202.402 159.033 202.503 158.926L205.398 155.01C205.594 154.769 205.702 154.467 205.702 154.154C205.702 153.841 205.594 153.539 205.398 153.298L188.27 141.063C188.033 140.864 187.734 140.755 187.426 140.755C187.118 140.755 186.819 140.864 186.582 141.063L183.687 145.1C183.581 145.203 183.497 145.326 183.439 145.463C183.382 145.6 183.352 145.747 183.352 145.895C183.352 146.044 183.382 146.191 183.439 146.328C183.497 146.464 183.581 146.588 183.687 146.691L185.978 148.404C186.175 148.645 186.282 148.947 186.282 149.26C186.282 149.573 186.175 149.875 185.978 150.116L169.574 172.139C169.574 172.751 168.85 172.139 168.85 172.139V144.733C168.855 144.581 168.825 144.43 168.762 144.292C168.699 144.154 168.606 144.033 168.489 143.938C168.372 143.843 168.234 143.777 168.088 143.745C167.941 143.713 167.789 143.716 167.644 143.754L157.995 147.058C157.68 147.166 157.401 147.361 157.188 147.62C156.975 147.879 156.837 148.192 156.788 148.526" fill="white"/>
<path d="M211.912 184.863L251.596 200.524C252.291 200.83 252.909 201.29 253.406 201.87L264.382 217.286C265.417 218.698 266.957 219.642 268.67 219.917C270.384 220.191 272.135 219.774 273.549 218.754C274.255 218.233 274.853 217.576 275.308 216.82C275.764 216.064 276.067 215.224 276.202 214.349C276.336 213.474 276.299 212.58 276.092 211.719C275.885 210.859 275.513 210.048 274.997 209.333L264.141 194.04C263.687 193.432 263.396 192.715 263.296 191.96L261.246 148.525C261.211 148.187 261.078 147.866 260.863 147.605C260.649 147.343 260.362 147.153 260.04 147.057L250.39 143.754C250.25 143.709 250.102 143.701 249.958 143.732C249.815 143.763 249.682 143.831 249.572 143.93C249.463 144.028 249.381 144.154 249.334 144.295C249.287 144.436 249.277 144.587 249.305 144.733V172.017C249.305 172.628 249.305 172.751 248.581 172.017L232.418 149.382C232.222 149.141 232.114 148.838 232.114 148.525C232.114 148.213 232.222 147.91 232.418 147.669L234.709 145.956C234.815 145.853 234.899 145.73 234.957 145.593C235.015 145.457 235.044 145.309 235.044 145.161C235.044 145.012 235.015 144.865 234.957 144.729C234.899 144.592 234.815 144.468 234.709 144.366L231.815 140.328C231.713 140.221 231.592 140.135 231.457 140.077C231.322 140.019 231.177 139.989 231.031 139.989C230.884 139.989 230.739 140.019 230.604 140.077C230.47 140.135 230.348 140.221 230.247 140.328L213.118 152.563C212.993 152.666 212.891 152.797 212.821 152.945C212.751 153.093 212.715 153.255 212.715 153.419C212.715 153.584 212.751 153.746 212.821 153.894C212.891 154.042 212.993 154.173 213.118 154.276L215.893 158.191C216.118 158.415 216.421 158.541 216.737 158.541C217.053 158.541 217.356 158.415 217.581 158.191L219.873 156.478C219.975 156.371 220.096 156.286 220.231 156.227C220.366 156.169 220.511 156.139 220.657 156.139C220.804 156.139 220.949 156.169 221.083 156.227C221.218 156.286 221.34 156.371 221.441 156.478L237.604 179.113C237.604 179.113 237.604 179.847 237.604 179.725L212.033 171.16C211.43 171.16 210.947 171.16 210.827 172.017V182.294C210.819 182.625 210.905 182.952 211.077 183.234C211.248 183.517 211.496 183.743 211.792 183.885" fill="white"/>
<path d="M263.056 143.02L289.592 109.496C290.155 108.939 290.808 108.484 291.522 108.15L309.495 102.645C311.125 102.084 312.477 100.903 313.264 99.3508C314.052 97.7984 314.214 95.9961 313.716 94.3248C313.457 93.4826 313.034 92.7016 312.472 92.028C311.911 91.3543 311.221 90.8016 310.446 90.4025C309.67 90.0033 308.823 89.7659 307.956 89.704C307.088 89.6422 306.217 89.7573 305.394 90.0425L287.662 95.793C286.91 95.9797 286.124 95.9797 285.371 95.793L244.48 84.4144C244.142 84.363 243.796 84.4038 243.478 84.5328C243.16 84.6618 242.881 84.8743 242.671 85.1485L236.64 93.4683C236.54 93.5485 236.459 93.6507 236.403 93.7672C236.347 93.8838 236.318 94.0117 236.318 94.1412C236.318 94.2708 236.347 94.3987 236.403 94.5153C236.459 94.6318 236.54 94.734 236.64 94.8142L262.573 102.645C263.177 102.645 263.177 103.256 262.573 103.379L236.278 112.066C236.136 112.123 235.984 112.149 235.831 112.142C235.679 112.135 235.529 112.096 235.393 112.027C235.256 111.957 235.135 111.86 235.039 111.74C234.942 111.62 234.871 111.481 234.831 111.331L233.986 108.517C233.878 108.235 233.67 108.003 233.402 107.868C233.135 107.732 232.827 107.702 232.539 107.783L227.835 109.374C227.687 109.415 227.55 109.486 227.432 109.585C227.314 109.683 227.218 109.805 227.149 109.944C227.081 110.082 227.042 110.234 227.036 110.389C227.029 110.544 227.055 110.698 227.111 110.842L233.625 131.274C233.665 131.424 233.736 131.563 233.832 131.683C233.929 131.803 234.05 131.901 234.187 131.97C234.323 132.039 234.473 132.078 234.625 132.085C234.778 132.092 234.93 132.066 235.072 132.009L239.776 130.54C239.928 130.486 240.067 130.401 240.186 130.291C240.305 130.181 240.401 130.048 240.469 129.9C240.536 129.752 240.574 129.591 240.579 129.428C240.584 129.265 240.557 129.102 240.5 128.95L239.656 127.115C239.599 126.971 239.574 126.816 239.58 126.661C239.587 126.507 239.626 126.355 239.694 126.216C239.762 126.078 239.858 125.955 239.977 125.857C240.095 125.759 240.232 125.687 240.379 125.646L266.554 116.96C267.157 116.96 267.398 116.96 266.554 117.571L251.115 139.35C251.012 139.441 250.93 139.554 250.873 139.681C250.817 139.808 250.788 139.945 250.788 140.084C250.788 140.223 250.817 140.36 250.873 140.486C250.93 140.613 251.012 140.726 251.115 140.818L260.885 143.877C261.155 144.051 261.469 144.143 261.789 144.143C262.11 144.143 262.424 144.051 262.694 143.877" fill="white"/>
</g>
</g>
<defs>
<radialGradient id="paint0_radial" cx="0" cy="0" r="1" gradientUnits="userSpaceOnUse" gradientTransform="translate(38 17.4444) rotate(34.6394) scale(245.519 335.419)">
<stop stop-color="#F9B9FF"/>
<stop offset="1" stop-color="#0693E3"/>
</radialGradient>
<clipPath id="clip0">
<path d="M0 4C0 1.79086 1.79086 0 4 0H236C238.209 0 240 1.79086 240 4V153C240 155.209 238.209 157 236 157H4C1.79086 157 0 155.209 0 153V4Z" fill="white"/>
</clipPath>
</defs>
</svg>
