<svg width="18" height="16" viewBox="0 0 18 16" fill="none" xmlns="http://www.w3.org/2000/svg">
<path d="M0.84605 14.3854L8.34755 0.885387C8.4067 0.779162 8.49078 0.688908 8.59256 0.622401C8.69434 0.555894 8.81076 0.515128 8.9318 0.503615C9.05284 0.492101 9.17486 0.510186 9.28735 0.556311C9.39984 0.602436 9.49944 0.675218 9.57755 0.768387L9.65855 0.885387L17.1615 14.3854C17.2199 14.4901 17.2522 14.6072 17.2559 14.727C17.2596 14.8468 17.2346 14.9657 17.1829 15.0739C17.1312 15.182 17.0543 15.2761 16.9587 15.3484C16.8632 15.4207 16.7517 15.4691 16.6335 15.4894L16.506 15.4999H1.50005C1.38016 15.5001 1.26196 15.4716 1.15536 15.4168C1.04875 15.3619 0.956857 15.2823 0.887367 15.1846C0.817877 15.0869 0.772821 14.974 0.755976 14.8553C0.73913 14.7366 0.750986 14.6156 0.79055 14.5024L0.84455 14.3854L8.34605 0.885387L0.84455 14.3854H0.84605ZM9.00305 10.8154C8.70468 10.8154 8.41853 10.9339 8.20755 11.1449C7.99658 11.3559 7.87805 11.642 7.87805 11.9404C7.87805 12.2388 7.99658 12.5249 8.20755 12.7359C8.41853 12.9469 8.70468 13.0654 9.00305 13.0654C9.30142 13.0654 9.58757 12.9469 9.79854 12.7359C10.0095 12.5249 10.128 12.2388 10.128 11.9404C10.128 11.642 10.0095 11.3559 9.79854 11.1449C9.58757 10.9339 9.30142 10.8154 9.00305 10.8154ZM9.00305 6.31539C8.77811 6.3151 8.56057 6.39569 8.39012 6.54246C8.21966 6.68924 8.10766 6.8924 8.07455 7.11489L8.06555 7.25289L8.06405 8.74989L8.07305 8.88789C8.10545 9.11082 8.21705 9.31463 8.38742 9.46202C8.55778 9.60942 8.77552 9.69053 9.0008 9.69053C9.22607 9.69053 9.44382 9.60942 9.61418 9.46202C9.78455 9.31463 9.89614 9.11082 9.92855 8.88789L9.93905 8.74989V7.25439L9.93005 7.11639C9.89698 6.89416 9.78519 6.69119 9.61505 6.54445C9.44491 6.39771 9.22773 6.31696 9.00305 6.31689V6.31539Z" fill="#E30613"/>
</svg>
