<svg width="48" height="49" viewBox="0 0 48 49" fill="none" xmlns="http://www.w3.org/2000/svg">
<path d="M6.86665 35.15L6.15865 40.1C6.11489 40.4072 6.14324 40.7205 6.24144 41.0148C6.33965 41.3092 6.50501 41.5767 6.72446 41.7962C6.9439 42.0156 7.21141 42.181 7.5058 42.2792C7.8002 42.3774 8.11341 42.4058 8.42065 42.362L13.3706 41.654C14.1206 41.548 16.0006 36.5 16.0006 36.5C16.0006 36.5 16.9446 37.31 17.3306 37.432C18.1546 37.692 18.9566 36.884 19.2266 36.064L20.0006 32.52C20.0006 32.52 21.1546 33.104 21.5726 33.19C22.1046 33.3 22.6207 32.972 22.9867 32.604C23.2065 32.3848 23.3716 32.1169 23.4687 31.822L24.0007 28.52C24.0007 28.52 25.3507 28.894 25.8127 28.948C26.3386 29.008 26.8507 28.74 27.2267 28.362L29.5027 26.088C31.4293 26.7123 33.4908 26.7928 35.4602 26.3207C37.4296 25.8485 39.2305 24.842 40.6646 23.412C42.724 21.3473 43.8805 18.5502 43.8805 15.634C43.8805 12.7178 42.724 9.9207 40.6646 7.856C38.5999 5.79663 35.8028 4.64014 32.8867 4.64014C29.9705 4.64014 27.1734 5.79663 25.1087 7.856C23.6783 9.28985 22.6715 11.0908 22.1993 13.0603C21.7271 15.0298 21.8079 17.0914 22.4326 19.018L7.43065 34.018C7.12444 34.3239 6.92641 34.7213 6.86665 35.15ZM37.0086 11.512C38.0998 12.6063 38.7125 14.0886 38.7125 15.634C38.7125 17.1794 38.0998 18.6617 37.0086 19.756L28.7647 11.512C29.859 10.4209 31.3413 9.80817 32.8867 9.80817C34.432 9.80817 35.9143 10.4209 37.0086 11.512Z" fill="white"/>
</svg>
