<svg width="48" height="49" viewBox="0 0 48 49" fill="none" xmlns="http://www.w3.org/2000/svg">
<path d="M17.3784 32.5524C17.1561 32.5165 16.932 32.499 16.7078 32.5L16.5511 32.5021H16.5591H16V34.4917H16.6238C16.932 34.5192 17.2417 34.4783 17.5384 34.371L17.519 34.377C17.6591 34.3095 17.7803 34.1927 17.8681 34.0411L17.8697 34.039C17.9631 33.8609 18.0083 33.6501 17.9987 33.4377C17.9891 33.2252 17.9252 33.0222 17.8164 32.8581L17.818 32.8602C17.708 32.6934 17.5517 32.5842 17.3801 32.5544H17.3768L17.3784 32.5524Z" fill="white"/>
<path d="M20 36.5H22L21 34.5L20 36.5Z" fill="white"/>
<path d="M37.1715 6.5H10.8269C9.26542 6.5 8 7.69245 8 9.16389V39.8361C8 41.3076 9.26542 42.5 10.8269 42.5H37.1731C38.7346 42.5 40 41.3076 40 39.8361V9.16389C40 7.69245 38.7346 6.5 37.1731 6.5H37.1715ZM24.5651 10.5798C24.6797 10.5918 24.8086 10.5918 24.9232 10.6038C25.3084 10.6398 25.6506 10.7838 25.9228 11.0043L25.9196 11.0028C26.5133 11.4963 27.0052 12.0828 27.3729 12.7412L27.3904 12.7742C27.5798 13.0922 27.7692 13.4732 27.93 13.8677L27.9522 13.9307C26.9638 14.0567 25.7907 14.1437 24.6033 14.1707H24.5651V10.5798ZM28.4154 23.1868C27.1503 23.0148 25.8749 22.9186 24.5969 22.8988H24.5651V19.9949H28.8945C28.8452 21.1529 28.6717 22.2493 28.3852 23.3023L28.4107 23.1928L28.4154 23.1868ZM24.5651 24.1858C25.7637 24.204 26.9602 24.2896 28.148 24.4423L27.992 24.4258C27.8164 24.8797 27.6058 25.3208 27.3617 25.7457L27.3904 25.6917C27.0247 26.3615 26.5285 26.9604 25.9276 27.4571L25.9196 27.4631C25.641 27.6884 25.2951 27.8268 24.9296 27.8591H24.9216C24.8039 27.8738 24.6854 27.8818 24.5667 27.8831H24.5635L24.5651 24.1858ZM28.3645 26.1867C28.6303 25.7382 28.885 25.2087 29.0951 24.6597L29.1206 24.5832C29.7095 24.6792 30.3096 24.8007 30.9033 24.9432H30.916C30.7887 25.0887 30.647 25.2207 30.5197 25.3422C29.7294 26.0917 28.7991 26.6974 27.7756 27.1286L27.7183 27.1511C27.9475 26.8722 28.1608 26.5587 28.3438 26.2287L28.3613 26.1942L28.3645 26.1867ZM33.1715 19.9919C33.0434 21.3753 32.5664 22.7098 31.7803 23.8843L31.8026 23.8483L31.6482 23.8123C30.9459 23.6377 30.2377 23.4846 29.5249 23.3533C29.7986 22.3618 29.9801 21.2099 30.0326 20.0264L30.0342 19.9934L33.1715 19.9919ZM24.5651 15.4486C25.8996 15.4232 27.2315 15.3245 28.5539 15.1531L28.3772 15.1726C28.6622 16.1491 28.8516 17.2801 28.9009 18.4455L28.9025 18.4755H24.573L24.5651 15.4486ZM29.4899 15.0031C30.2061 14.8832 30.8906 14.7377 31.575 14.5562L31.7278 14.5202C32.5109 15.6421 33.0267 16.9891 33.1588 18.441L33.1604 18.4725H30.0135C29.9712 17.2648 29.7854 16.0654 29.4596 14.8967L29.4867 15.0091L29.4899 15.0031ZM30.8189 13.4117C30.2427 13.5452 29.6554 13.6652 29.0792 13.7612C28.8767 13.2265 28.6314 12.707 28.3454 12.2073L28.3772 12.2673C28.1755 11.92 27.9512 11.5849 27.7055 11.2638L27.7262 11.2923C28.7695 11.7283 29.719 12.3409 30.5277 13.0997C30.6168 13.2077 30.7203 13.3052 30.8221 13.4132L30.8189 13.4117ZM22.0963 11.0013C22.3653 10.7823 22.7091 10.6383 23.0864 10.6038H23.0943C23.1994 10.5903 23.3235 10.5813 23.4493 10.5798H23.4524V14.1587C22.267 14.1405 21.0838 14.0548 19.9093 13.9022L20.0621 13.9187C20.2515 13.4567 20.4409 13.0757 20.6526 12.7082L20.624 12.7622C21.0044 12.0768 21.4867 11.4948 22.0629 11.0088L22.0692 11.0043L22.0963 11.0013ZM18.5022 23.3548C17.7732 23.4868 17.0569 23.6323 16.3788 23.8138L16.2244 23.8498C15.4434 22.6989 14.974 21.3851 14.8571 20.0234L14.8556 19.9934H18.0024C18.0374 21.2039 18.2157 22.3603 18.5245 23.4673L18.499 23.3608L18.5022 23.3548ZM17.1078 24.9567C17.6963 24.8127 18.2911 24.6926 18.8906 24.5967C19.1293 25.2252 19.384 25.7532 19.6769 26.2602L19.645 26.2002C19.8679 26.5797 20.0828 26.8992 20.3168 27.2036L20.2961 27.1751C19.2528 26.7391 18.3033 26.1265 17.4946 25.3677C17.3673 25.2342 17.24 25.1022 17.1126 24.9567H17.1078ZM20.0239 24.4258C21.0426 24.2863 22.23 24.1993 23.4349 24.1858H23.4509V27.8846C23.1642 27.8692 22.8784 27.8412 22.5945 27.8006C22.4173 27.6989 22.2486 27.5846 22.0899 27.4586L22.0963 27.4631C21.5041 26.9714 21.0117 26.3824 20.6431 25.7247L20.6255 25.6917C20.4044 25.3081 20.2114 24.9107 20.0478 24.5023L20.0223 24.4318L20.0239 24.4258ZM23.4524 22.8943C22.0692 22.9198 20.737 23.0233 19.4318 23.2033L19.6037 23.1838C19.3142 22.1494 19.1471 21.088 19.1055 20.0189L19.1039 19.9904H23.4524V22.8943ZM19.6419 15.1696C20.8985 15.3442 22.1664 15.4369 23.4365 15.4471H23.4524V18.4725H19.1039C19.1628 17.2771 19.3538 16.1491 19.6641 15.0676L19.6371 15.1786L19.6419 15.1696ZM20.2929 11.2893C20.0796 11.5668 19.8631 11.8848 19.6673 12.2163L19.6403 12.2658C19.3731 12.7221 19.1458 13.1981 18.9606 13.6892L18.9383 13.7597C18.3547 13.6604 17.7744 13.5439 17.1986 13.4102H17.1858C17.2854 13.3033 17.3879 13.1988 17.493 13.0967C18.287 12.3573 19.214 11.7565 20.2308 11.3223L20.2897 11.2998L20.2929 11.2893ZM16.4441 14.5547C17.1222 14.7242 17.813 14.8682 18.5292 15.0016C18.2159 16.1264 18.036 17.2804 17.9928 18.4425L17.9912 18.4725H14.8444C14.9727 17.0496 15.4767 15.6796 16.3104 14.4872L16.2897 14.5187L16.4441 14.5547ZM17.8766 34.9838C17.702 35.0982 17.5076 35.183 17.302 35.2343L17.2893 35.2373C16.9544 35.2868 16.6159 35.3114 16.277 35.3108L16.1178 35.3093H16.1257H15.3967V37.2862H14.2714V32.0439H16.0748C16.5322 32.0231 16.9906 32.0533 17.4405 32.1339L17.4039 32.1279C17.7242 32.2123 18.0064 32.393 18.2077 32.6424L18.2109 32.6454C18.4115 32.9349 18.5308 33.2889 18.5308 33.6699C18.5308 33.9639 18.4608 34.2413 18.3335 34.4888L18.3382 34.4768C18.237 34.6831 18.0787 34.8598 17.8798 34.9883L17.875 34.9913L17.8766 34.9838ZM22.6852 37.2847L22.1982 36.0923H19.9698L19.5082 37.2847H18.3191L20.4839 32.0424H21.6729L23.8981 37.2847H22.6852ZM28.4791 36.5977C28.3014 36.8614 28.0411 37.0663 27.7342 37.1842L27.723 37.1872C27.3951 37.3102 27.0163 37.3822 26.6184 37.3822L26.5022 37.3807H26.507C25.9221 37.4149 25.3434 37.2511 24.8754 36.9187L24.8818 36.9232C24.4849 36.5764 24.243 36.1002 24.2053 35.5913V35.5853L25.2925 35.4893C25.3307 35.7893 25.4739 36.0518 25.6888 36.2468C25.9308 36.4012 26.2154 36.4855 26.5076 36.4892C26.7998 36.4929 27.0868 36.416 27.3331 36.2678L27.3267 36.2708C27.4107 36.2117 27.4797 36.1356 27.5284 36.0481C27.5772 35.9607 27.6045 35.864 27.6084 35.7653V35.7638V35.7518C27.6086 35.6415 27.5675 35.5348 27.4922 35.4503V35.4518C27.3783 35.3489 27.2412 35.2715 27.0911 35.2253L27.0832 35.2238C26.9558 35.1758 26.6486 35.1038 26.1918 34.9943C25.7307 34.913 25.2953 34.734 24.9184 34.4708L24.9264 34.4768C24.7669 34.3498 24.6387 34.1915 24.5508 34.013C24.4628 33.8346 24.4172 33.6402 24.417 33.4434V33.4149V33.4059C24.417 33.1299 24.5078 32.8749 24.6637 32.6649L24.6606 32.6694C24.8325 32.4369 25.0665 32.2539 25.3402 32.1429L25.3498 32.1399C25.6538 32.0244 26.0056 31.9584 26.3749 31.9584L26.4528 31.9599H26.4497C27.0151 31.9172 27.5772 32.0738 28.0271 32.3994L28.0207 32.3949C28.1935 32.5353 28.3321 32.7091 28.4272 32.9045C28.5222 33.1 28.5714 33.3124 28.5714 33.5274V33.5529V33.5514L27.4461 33.5994C27.4198 33.3786 27.3109 33.1739 27.1389 33.0219C26.9531 32.9011 26.7326 32.8367 26.507 32.8374L26.4194 32.8404H26.4226C26.1504 32.8227 25.8798 32.8914 25.6538 33.0354L25.6586 33.0324C25.6035 33.0695 25.5585 33.1183 25.5273 33.1748C25.496 33.2314 25.4794 33.2941 25.4787 33.3579V33.3624C25.4787 33.4884 25.544 33.6009 25.6443 33.6714H25.6458C25.9451 33.8379 26.2937 33.9609 26.6645 34.0179L26.6821 34.0194C27.1452 34.1138 27.5511 34.2428 27.9347 34.4078L27.8965 34.3928C28.1496 34.5203 28.3565 34.7003 28.5062 34.9178L28.5094 34.9238C28.6542 35.1556 28.7301 35.4198 28.729 35.6888L28.7274 35.7578V35.7548V35.7953C28.7274 36.0983 28.6319 36.3803 28.4664 36.6142L28.4696 36.6082L28.4791 36.5977ZM33.6586 36.5977C33.4809 36.8614 33.2205 37.0663 32.9137 37.1842L32.9025 37.1872C32.5746 37.3102 32.1958 37.3822 31.7979 37.3822L31.6817 37.3807H31.6864C31.1015 37.4149 30.5229 37.2511 30.0549 36.9187L30.0613 36.9232C29.6644 36.5764 29.4225 36.1002 29.3848 35.5913V35.5853L30.4719 35.4893C30.5101 35.7893 30.6534 36.0518 30.8683 36.2468C31.1102 36.4012 31.3949 36.4855 31.6871 36.4892C31.9793 36.4929 32.2662 36.416 32.5125 36.2678L32.5062 36.2708C32.5902 36.2117 32.6591 36.1356 32.7079 36.0481C32.7566 35.9607 32.784 35.864 32.7879 35.7653V35.7638V35.7518C32.7881 35.6415 32.7469 35.5348 32.6717 35.4503V35.4518C32.5577 35.3489 32.4206 35.2715 32.2706 35.2253L32.2626 35.2238C32.1353 35.1758 31.8281 35.1038 31.3713 34.9943C30.9102 34.913 30.4748 34.734 30.0979 34.4708L30.1059 34.4768C29.9464 34.3498 29.8182 34.1915 29.7302 34.013C29.6423 33.8346 29.5966 33.6402 29.5965 33.4434V33.4149V33.4059C29.5965 33.1299 29.6872 32.8749 29.8432 32.6649L29.84 32.6694C30.0095 32.4372 30.2451 32.2547 30.5197 32.1429L30.5292 32.1399C30.8333 32.0244 31.1866 31.9584 31.5543 31.9584L31.6323 31.9599H31.6291C32.1946 31.9172 32.7567 32.0738 33.2065 32.3994L33.2002 32.3949C33.3729 32.5353 33.5116 32.7091 33.6066 32.9045C33.7017 33.1 33.7509 33.3124 33.7509 33.5274V33.5529V33.5514L32.6255 33.5994C32.5993 33.3786 32.4903 33.1739 32.3183 33.0219C32.1326 32.9011 31.9121 32.8367 31.6864 32.8374L31.5989 32.8404H31.6021C31.3299 32.8227 31.0593 32.8914 30.8333 33.0354L30.838 33.0324C30.783 33.0695 30.738 33.1183 30.7067 33.1748C30.6755 33.2314 30.6588 33.2941 30.6582 33.3579V33.3624C30.6582 33.4884 30.7234 33.6009 30.8237 33.6714H30.8253C31.123 33.8379 31.4715 33.9594 31.8424 34.0179L31.8599 34.0209C32.3231 34.1153 32.729 34.2443 33.1126 34.4093L33.0744 34.3943C33.3275 34.5218 33.5344 34.7018 33.684 34.9193L33.6872 34.9253C33.8321 35.1571 33.908 35.4213 33.9069 35.6903L33.9053 35.7593V35.7563L33.9085 35.8448C33.909 36.1214 33.8171 36.3911 33.6458 36.6157L33.649 36.6112L33.6586 36.5977Z" fill="white"/>
</svg>
